<svg width="554" height="359" viewBox="0 0 554 359" fill="none" xmlns="http://www.w3.org/2000/svg">
<ellipse cx="204" cy="150.5" rx="204" ry="141.5" fill="#ED3A46" fill-opacity="0.5"/>
<path d="M169.564 166.486H98.2526V242.896H169.564V166.486Z" fill="#CCCCCC"/>
<path d="M61.9486 357.821H25.6444L21.7546 328.003H65.8383L61.9486 357.821Z" fill="#E6E6E6"/>
<path d="M134.849 336.223L133.624 352.272C133.568 352.999 133.676 353.728 133.938 354.412C134.201 355.095 134.614 355.717 135.148 356.235C135.682 356.753 136.325 357.156 137.035 357.417C137.745 357.677 138.505 357.789 139.264 357.745L147.867 357.245C148.265 357.222 148.653 357.115 149.004 356.932C149.355 356.749 149.659 356.494 149.895 356.185C150.131 355.876 150.293 355.522 150.37 355.146C150.447 354.771 150.437 354.384 150.34 354.012L145.565 335.71L134.849 336.223Z" fill="#E6E6E6"/>
<path d="M206.806 345.714C216.931 347.983 224.163 351.209 228.915 355.575C230.607 357.118 232.821 358.027 235.154 358.138C238.133 358.288 240.57 357.968 242.401 357.184H242.401C242.87 356.986 243.275 356.671 243.575 356.272C243.874 355.874 244.056 355.405 244.103 354.916C244.158 354.419 244.074 353.917 243.859 353.462C243.644 353.007 243.305 352.615 242.879 352.328L218.866 335.956L208.667 339.866L206.287 342.146C206.03 342.392 205.835 342.693 205.72 343.024C205.604 343.355 205.57 343.707 205.62 344.053C205.67 344.399 205.804 344.729 206.009 345.017C206.215 345.305 206.488 345.544 206.806 345.714H206.806Z" fill="#E6E6E6"/>
<path d="M175.648 83.6746L107.011 83.0656C107.184 73.4861 109.51 64.0792 114.594 55.6614C117.933 50.1329 117.861 44.1162 117.056 39.0473C115.814 31.2249 118.702 23.2215 125.119 18.242C130.023 14.43 136.212 12.4677 142.521 12.7247L143.854 12.7779C148.195 12.9508 152.421 14.166 156.145 16.3119C159.868 18.4578 162.969 21.4657 165.163 25.0593C167.393 28.8957 168.293 33.3122 167.731 37.6705C167.296 41.7713 168.337 45.9139 170.772 50.096C174.973 59.2792 175.883 71.0303 175.648 83.6746Z" fill="#2F2E41"/>
<path d="M221.569 336.81L208.098 340.177L142.502 203.238L146.602 336.81H133.131C118.737 273.968 92.7489 201.442 104.433 178.544L174.129 174.616L221.569 336.81Z" fill="#4C0AE0"/>
<path d="M141.916 60.6875C151.944 60.6875 160.073 52.8982 160.073 43.2896C160.073 33.681 151.944 25.8917 141.916 25.8917C131.889 25.8917 123.76 33.681 123.76 43.2896C123.76 52.8982 131.889 60.6875 141.916 60.6875Z" fill="#FFB9B9"/>
<path d="M157.73 75.2794L127.86 73.5957C130.787 67.1575 131.957 60.9579 130.788 55.0753H153.044C152.994 59.5919 155.339 67.4049 157.73 75.2794Z" fill="#FFB9B9"/>
<path d="M176.471 179.667L110.876 184.157L117.611 72.7539L129.032 69.6671L141.916 72.4731L154.801 66.2995L163.001 69.1061L176.471 179.667Z" fill="#4C0AE0"/>
<path d="M122.003 259.922L77.1987 250.1C90.5214 207.766 114.523 110.916 106.776 76.4018L130.203 66.2998L122.003 259.922Z" fill="#E6E6E6"/>
<path d="M100.333 137.575L83.3483 127.473L97.8333 86.821C99.4489 82.6262 102.543 79.1042 106.581 76.8639L111.461 74.1569L108.533 115.126L100.333 137.575Z" fill="#E6E6E6"/>
<path d="M215.419 250.662C201.278 258.502 165.93 262.872 150.409 257.396C149.267 219.146 147.027 110.951 154.216 65.1773L179.986 75.2793L177.643 105.585C165.323 131.511 201.098 221.808 215.419 250.662Z" fill="#E6E6E6"/>
<path d="M213.37 132.524L197.556 127.473L176.471 104.463L179.986 75.2792L215.126 122.422L213.37 132.524Z" fill="#E6E6E6"/>
<path d="M163.811 154.369C164.069 155.457 164.768 156.402 165.753 156.998C166.738 157.593 167.929 157.79 169.065 157.545L182.489 154.632L180.548 146.421L167.125 149.334C165.989 149.58 165.001 150.249 164.38 151.194C163.758 152.138 163.553 153.28 163.811 154.369V154.369Z" fill="#FFB9B9"/>
<path d="M157.73 38.7998C147.645 34.8261 137.685 34.5386 127.86 38.2385L123.76 24.2079H161.244L157.73 38.7998Z" fill="#2F2E41"/>
<path d="M175.886 144.871L183.5 158.34C196.306 154.918 207.405 144.128 218.055 131.402L215.126 122.422L196.97 126.912L175.886 144.871Z" fill="#E6E6E6"/>
<path d="M116.439 109.233H114.097C114.097 80.1547 120.966 62.0906 131.081 62.0906L130.496 64.3355C123.499 64.3355 116.439 78.2184 116.439 109.233Z" fill="#3F3D56"/>
<path d="M169.151 123.264C172.385 123.264 175.007 120.751 175.007 117.652C175.007 114.552 172.385 112.039 169.151 112.039C165.916 112.039 163.294 114.552 163.294 117.652C163.294 120.751 165.916 123.264 169.151 123.264Z" fill="#3F3D56"/>
<path d="M107.068 122.703H104.726C104.726 114.657 109.455 108.111 115.268 108.111V110.356C110.747 110.356 107.068 115.895 107.068 122.703Z" fill="#3F3D56"/>
<path d="M125.81 122.703H123.467C123.467 115.895 119.789 110.356 115.268 110.356V108.111C121.081 108.111 125.81 114.657 125.81 122.703Z" fill="#3F3D56"/>
<path d="M124.639 125.509C125.933 125.509 126.982 124.504 126.982 123.264C126.982 122.024 125.933 121.019 124.639 121.019C123.345 121.019 122.296 122.024 122.296 123.264C122.296 124.504 123.345 125.509 124.639 125.509Z" fill="#3F3D56"/>
<path d="M105.897 125.509C107.191 125.509 108.24 124.504 108.24 123.264C108.24 122.024 107.191 121.019 105.897 121.019C104.603 121.019 103.554 122.024 103.554 123.264C103.554 124.504 104.603 125.509 105.897 125.509Z" fill="#3F3D56"/>
<path d="M76.6129 102.621L91.2299 105.122L124.639 150.642L106.89 146.64L76.6129 102.621Z" fill="#6C63FF"/>
<path d="M74.0203 102.064C73.7976 102.067 73.5799 102.127 73.3899 102.239C73.1999 102.35 73.0447 102.508 72.9404 102.697C72.8362 102.886 72.7867 103.098 72.7972 103.311C72.8078 103.524 72.8779 103.731 73.0003 103.909L104.229 149.313C104.403 149.566 104.673 149.747 104.981 149.816L119.511 153.092C119.756 153.147 120.013 153.13 120.247 153.042C120.482 152.954 120.683 152.8 120.824 152.6C120.965 152.401 121.039 152.164 121.037 151.923C121.034 151.682 120.956 151.447 120.811 151.25L86.5233 104.533C86.4303 104.406 86.312 104.298 86.1753 104.214C86.0385 104.131 85.8859 104.074 85.7262 104.047L74.2546 102.084C74.1773 102.07 74.0989 102.064 74.0203 102.064V102.064Z" fill="#3F3D56"/>
<path d="M93.5011 134.527L94.369 142.904L108.065 141.601C109.224 141.491 110.29 140.944 111.029 140.08C111.767 139.217 112.117 138.108 112.002 136.997C111.887 135.886 111.316 134.864 110.415 134.157C109.514 133.449 108.357 133.113 107.197 133.224L93.5011 134.527Z" fill="#FFB9B9"/>
<path d="M81.5916 133.556C81.6114 136.413 82.8087 139.146 84.9224 141.16C87.0361 143.174 89.8949 144.307 92.8759 144.31H95.128L96.7675 131.217L83.1925 126.534L81.5916 133.556Z" fill="#E6E6E6"/>
<path d="M554 0H286.905V134.804H554V0Z" fill="#E6E6E6"/>
<path d="M294.684 127.35H546.221V7.45462H294.684V127.35Z" fill="white"/>
<path d="M403.597 24.8487H314.133V110.577H403.597V24.8487Z" fill="#3F3D56"/>
<path d="M382.203 63.9854C383.635 63.9854 384.796 62.8729 384.796 61.5006C384.796 60.1282 383.635 59.0157 382.203 59.0157C380.771 59.0157 379.61 60.1282 379.61 61.5006C379.61 62.8729 380.771 63.9854 382.203 63.9854Z" fill="#4C0AE0"/>
<path d="M372.479 55.2884C373.911 55.2884 375.072 54.1759 375.072 52.8035C375.072 51.4311 373.911 50.3186 372.479 50.3186C371.047 50.3186 369.886 51.4311 369.886 52.8035C369.886 54.1759 371.047 55.2884 372.479 55.2884Z" fill="#4C0AE0"/>
<path d="M371.182 61.5006C370.228 61.5007 369.293 61.7547 368.48 62.2342C367.765 61.2031 366.924 60.2572 365.975 59.4165C365.986 59.2839 365.996 59.151 365.996 59.0157C365.997 58.0406 365.698 57.0869 365.137 56.2735C364.576 55.46 363.777 54.8229 362.84 54.4416C361.904 54.0602 360.871 53.9514 359.87 54.1289C358.87 54.3063 357.946 54.7621 357.214 55.4394C355.825 55.2506 354.416 55.2388 353.024 55.4044C353.025 55.3655 353.03 55.3276 353.03 55.2884C353.031 54.4566 352.815 53.6378 352.4 52.9071C351.985 52.1764 351.385 51.5572 350.656 51.1062C349.926 50.6552 349.09 50.3869 348.225 50.3258C347.359 50.2648 346.491 50.413 345.7 50.7568C344.91 51.1005 344.222 51.629 343.7 52.2936C343.178 52.9582 342.839 53.7378 342.713 54.5608C342.587 55.3839 342.678 56.224 342.979 57.0043C343.28 57.7846 343.78 58.4801 344.434 59.027C343.566 59.7397 342.779 60.5379 342.085 61.4085C341.445 60.898 340.686 60.5428 339.872 60.3729C339.058 60.2029 338.214 60.2233 337.41 60.4322C336.606 60.6411 335.867 61.0325 335.254 61.5732C334.642 62.1138 334.174 62.7879 333.891 63.5384C333.607 64.2888 333.517 65.0937 333.627 65.8847C333.737 66.6757 334.044 67.4298 334.523 68.083C335.001 68.7362 335.637 69.2694 336.376 69.6375C337.115 70.0056 337.935 70.1977 338.768 70.1976L338.784 70.1968C338.776 70.4034 338.768 70.6102 338.768 70.8189C338.768 72.0693 338.926 73.3151 339.237 74.5294C337.696 75.0851 336.327 76.0071 335.259 77.2086C334.192 78.4102 333.46 79.852 333.133 81.3987C332.806 82.9454 332.895 84.5463 333.391 86.0512C333.887 87.5561 334.773 88.9156 335.968 90.0021C337.162 91.0887 338.625 91.8666 340.219 92.263C341.813 92.6593 343.486 92.661 345.081 92.268C346.676 91.875 348.141 91.1001 349.338 90.016C350.534 88.932 351.424 87.5743 351.923 86.0705C355.531 86.7349 359.267 86.2038 362.518 84.5645C362.85 85.3134 363.369 85.9727 364.028 86.4846C364.688 86.9965 365.469 87.3454 366.303 87.5005C367.136 87.6557 367.997 87.6124 368.809 87.3745C369.621 87.1366 370.359 86.7113 370.96 86.136C371.56 85.5607 372.004 84.8529 372.252 84.0749C372.5 83.2968 372.546 82.4723 372.384 81.6736C372.222 80.8749 371.858 80.1265 371.324 79.4942C370.789 78.8618 370.101 78.3647 369.32 78.0467C370.443 76.0042 371.074 73.7463 371.166 71.4393L371.182 71.4401C372.558 71.4401 373.877 70.9165 374.85 69.9845C375.822 69.0525 376.369 67.7884 376.369 66.4703C376.369 65.1523 375.822 63.8882 374.85 62.9562C373.877 62.0242 372.558 61.5006 371.182 61.5006V61.5006Z" fill="#4C0AE0"/>
<path d="M369.886 22.985H343.954V26.7124H369.886V22.985Z" fill="#E6E6E6"/>
<path d="M517.696 24.8487H428.232V110.577H517.696V24.8487Z" fill="#3F3D56"/>
<path d="M489.949 82.9947C490.593 82.9947 491.116 82.4941 491.116 81.8765C491.116 81.2589 490.593 80.7583 489.949 80.7583C489.305 80.7583 488.782 81.2589 488.782 81.8765C488.782 82.4941 489.305 82.9947 489.949 82.9947Z" fill="#6C63FF"/>
<path d="M485.573 79.081C486.218 79.081 486.74 78.5804 486.74 77.9628C486.74 77.3453 486.218 76.8446 485.573 76.8446C484.929 76.8446 484.406 77.3453 484.406 77.9628C484.406 78.5804 484.929 79.081 485.573 79.081Z" fill="#6C63FF"/>
<path d="M484.99 81.8765C484.56 81.8766 484.139 81.9909 483.774 82.2066C483.452 81.7426 483.073 81.317 482.646 80.9387C482.651 80.879 482.656 80.8192 482.656 80.7583C482.656 80.3195 482.522 79.8903 482.269 79.5243C482.017 79.1583 481.657 78.8716 481.236 78.6999C480.814 78.5283 480.349 78.4794 479.899 78.5592C479.449 78.6391 479.033 78.8442 478.704 79.149C478.079 79.064 477.445 79.0587 476.818 79.1332C476.819 79.1157 476.821 79.0986 476.821 79.081C476.822 78.7067 476.724 78.3382 476.537 78.0094C476.351 77.6806 476.081 77.402 475.753 77.199C475.424 76.9961 475.048 76.8754 474.659 76.8479C474.269 76.8204 473.878 76.8871 473.523 77.0418C473.167 77.1965 472.858 77.4343 472.623 77.7334C472.388 78.0325 472.235 78.3833 472.178 78.7536C472.121 79.124 472.163 79.5021 472.298 79.8532C472.433 80.2043 472.659 80.5173 472.953 80.7634C472.562 81.0841 472.208 81.4433 471.896 81.8351C471.608 81.6054 471.266 81.4455 470.9 81.369C470.534 81.2926 470.154 81.3017 469.792 81.3958C469.43 81.4898 469.098 81.6659 468.822 81.9092C468.546 82.1525 468.336 82.4558 468.208 82.7935C468.081 83.1312 468.04 83.4934 468.09 83.8494C468.139 84.2053 468.277 84.5446 468.493 84.8386C468.708 85.1325 468.994 85.3725 469.327 85.5381C469.659 85.7037 470.028 85.7902 470.403 85.7902L470.41 85.7898C470.407 85.8828 470.403 85.9759 470.403 86.0697C470.403 86.6324 470.474 87.193 470.614 87.7395C469.921 87.9896 469.305 88.4044 468.824 88.9451C468.344 89.4858 468.015 90.1346 467.867 90.8307C467.72 91.5267 467.76 92.2471 467.983 92.9243C468.207 93.6015 468.606 94.2132 469.143 94.7022C469.68 95.1911 470.339 95.5412 471.056 95.7196C471.773 95.8979 472.526 95.8987 473.244 95.7218C473.962 95.545 474.621 95.1963 475.159 94.7084C475.698 94.2206 476.098 93.6097 476.323 92.933C477.946 93.232 479.628 92.993 481.091 92.2553C481.24 92.5922 481.473 92.8889 481.77 93.1193C482.067 93.3497 482.419 93.5067 482.794 93.5765C483.169 93.6463 483.556 93.6268 483.922 93.5198C484.287 93.4127 484.619 93.2213 484.889 92.9624C485.16 92.7035 485.359 92.3851 485.471 92.0349C485.583 91.6848 485.603 91.3138 485.53 90.9544C485.457 90.5949 485.294 90.2582 485.053 89.9736C484.813 89.689 484.503 89.4654 484.151 89.3222C484.657 88.4031 484.941 87.3871 484.982 86.3489L484.99 86.3493C485.609 86.3493 486.202 86.1137 486.64 85.6943C487.078 85.2749 487.323 84.706 487.323 84.1129C487.323 83.5198 487.078 82.9509 486.64 82.5315C486.202 82.1121 485.609 81.8765 484.99 81.8765V81.8765Z" fill="#4C0AE0"/>
<path d="M499.104 61.775C499.749 61.775 500.271 61.2743 500.271 60.6568C500.271 60.0392 499.749 59.5386 499.104 59.5386C498.46 59.5386 497.937 60.0392 497.937 60.6568C497.937 61.2743 498.46 61.775 499.104 61.775Z" fill="#6C63FF"/>
<path d="M501.849 56.6779C502.494 56.6779 503.016 56.1772 503.016 55.5597C503.016 54.9421 502.494 54.4415 501.849 54.4415C501.205 54.4415 500.682 54.9421 500.682 55.5597C500.682 56.1772 501.205 56.6779 501.849 56.6779Z" fill="#6C63FF"/>
<path d="M497.76 56.0824C497.643 55.6864 497.414 55.3291 497.098 55.0504C497.477 54.6276 497.802 54.1631 498.067 53.6667C498.128 53.6552 498.189 53.6431 498.25 53.6266C498.691 53.508 499.086 53.2676 499.385 52.9355C499.684 52.6033 499.875 52.1941 499.933 51.7589C499.991 51.3236 499.914 50.8816 499.712 50.488C499.51 50.0943 499.191 49.7664 498.796 49.5452C498.711 48.9457 498.545 48.3595 498.3 47.8019C498.318 47.7976 498.336 47.7951 498.353 47.7903C498.73 47.6893 499.073 47.4994 499.353 47.2381C499.633 46.9768 499.839 46.6523 499.954 46.2946C500.069 45.9368 500.088 45.5571 500.01 45.1903C499.932 44.8235 499.76 44.4814 499.508 44.1952C499.256 43.909 498.933 43.688 498.569 43.5524C498.205 43.4168 497.811 43.371 497.424 43.4191C497.036 43.4672 496.668 43.6077 496.352 43.8277C496.036 44.0478 495.782 44.3403 495.615 44.6785C495.187 44.4051 494.73 44.1756 494.252 43.9938C494.404 43.6658 494.472 43.3074 494.45 42.9489C494.428 42.5905 494.315 42.2424 494.123 41.9343C493.93 41.6262 493.663 41.367 493.344 41.1787C493.025 40.9904 492.663 40.8785 492.29 40.8525C491.916 40.8265 491.541 40.8872 491.197 41.0293C490.853 41.1715 490.549 41.391 490.312 41.6692C490.075 41.9475 489.912 42.2763 489.836 42.6279C489.759 42.9795 489.773 43.3436 489.874 43.6892L489.877 43.6959C489.782 43.7176 489.688 43.7395 489.593 43.765C489.028 43.9176 488.484 44.1349 487.973 44.4123C487.534 43.8403 486.951 43.3847 486.277 43.0881C485.604 42.7915 484.863 42.6638 484.124 42.7168C483.385 42.7698 482.672 43.0019 482.052 43.3913C481.432 43.7806 480.926 44.3145 480.581 44.9428C480.235 45.571 480.062 46.2731 480.077 46.9831C480.092 47.6931 480.296 48.3877 480.668 49.0018C481.04 49.6159 481.569 50.1293 482.205 50.4938C482.841 50.8583 483.563 51.062 484.304 51.0857C484.444 52.6642 485.14 54.1501 486.277 55.2995C485.979 55.5286 485.744 55.8243 485.594 56.1607C485.443 56.497 485.38 56.8637 485.412 57.2286C485.443 57.5935 485.568 57.9454 485.774 58.2534C485.981 58.5614 486.263 58.816 486.597 58.9951C486.93 59.1741 487.304 59.2719 487.686 59.2801C488.068 59.2882 488.446 59.2064 488.787 59.0418C489.129 58.8771 489.423 58.6347 489.643 58.3359C489.864 58.037 490.005 57.6908 490.053 57.3276C491.113 57.5446 492.211 57.5311 493.265 57.2879L493.267 57.2948C493.35 57.5777 493.49 57.8421 493.679 58.0731C493.869 58.304 494.104 58.4968 494.372 58.6406C494.639 58.7844 494.934 58.8762 495.238 58.9109C495.543 58.9456 495.851 58.9225 496.146 58.8428C496.441 58.7632 496.717 58.6286 496.958 58.4467C497.199 58.2649 497.4 58.0393 497.55 57.7829C497.7 57.5266 497.795 57.2444 497.831 56.9526C497.867 56.6608 497.843 56.3651 497.76 56.0824V56.0824Z" fill="#4C0AE0"/>
<path d="M453.907 46.5798C454.552 46.5798 455.074 46.0792 455.074 45.4616C455.074 44.8441 454.552 44.3434 453.907 44.3434C453.263 44.3434 452.741 44.8441 452.741 45.4616C452.741 46.0792 453.263 46.5798 453.907 46.5798Z" fill="#6C63FF"/>
<path d="M447.941 47.0379C448.585 47.0379 449.108 46.5373 449.108 45.9197C449.108 45.3021 448.585 44.8015 447.941 44.8015C447.296 44.8015 446.774 45.3021 446.774 45.9197C446.774 46.5373 447.296 47.0379 447.941 47.0379Z" fill="#6C63FF"/>
<path d="M450.564 48.9713C450.274 49.2752 450.079 49.6502 449.998 50.0544C449.424 49.9694 448.84 49.9503 448.261 49.9974C448.218 49.9536 448.175 49.9101 448.128 49.869C447.79 49.5729 447.369 49.3787 446.917 49.3107C446.464 49.2426 446.001 49.3036 445.585 49.4861C445.168 49.6687 444.817 49.9646 444.575 50.3371C444.333 50.7096 444.211 51.1421 444.223 51.5807C443.737 51.9657 443.305 52.4108 442.94 52.9043C442.927 52.8922 442.915 52.8791 442.902 52.8672C442.614 52.6145 442.264 52.4351 441.885 52.3455C441.505 52.2559 441.109 52.259 440.731 52.3545C440.353 52.45 440.006 52.6348 439.723 52.8919C439.439 53.1491 439.227 53.4705 439.106 53.8265C438.986 54.1825 438.96 54.5619 439.032 54.9298C439.104 55.2977 439.272 55.6424 439.519 55.9322C439.766 56.222 440.085 56.4478 440.447 56.5887C440.809 56.7297 441.202 56.7813 441.59 56.7389C441.574 57.2316 441.612 57.7246 441.703 58.2097C441.332 58.2587 440.979 58.3927 440.673 58.6003C440.367 58.8078 440.118 59.0829 439.946 59.4023C439.775 59.7216 439.686 60.0758 439.688 60.435C439.69 60.7941 439.782 61.1475 439.956 61.4654C440.13 61.7833 440.382 62.0563 440.69 62.2612C440.997 62.4662 441.352 62.5971 441.724 62.643C442.096 62.6888 442.473 62.6482 442.825 62.5246C443.177 62.4009 443.493 62.1979 443.745 61.9326L443.75 61.9272C443.819 61.9926 443.888 62.0578 443.961 62.1211C444.394 62.5004 444.874 62.8283 445.39 63.0975C445.115 63.757 445.02 64.4726 445.112 65.1771C445.205 65.8817 445.483 66.5521 445.92 67.1255C446.358 67.6988 446.94 68.1563 447.612 68.455C448.285 68.7537 449.025 68.8838 449.764 68.8331C450.503 68.7824 451.217 68.5526 451.838 68.1652C452.459 67.7778 452.968 67.2456 453.315 66.6184C453.663 65.9912 453.838 65.2897 453.826 64.5796C453.813 63.8696 453.612 63.1743 453.242 62.5591C454.567 61.6118 455.516 60.2609 455.934 58.7282C456.294 58.8497 456.68 58.8846 457.058 58.8298C457.436 58.7749 457.794 58.6321 458.1 58.4137C458.407 58.1953 458.653 57.9082 458.817 57.5774C458.981 57.2467 459.057 56.8824 459.04 56.5167C459.023 56.1509 458.912 55.7949 458.717 55.4797C458.523 55.1646 458.251 54.9001 457.925 54.7093C457.598 54.5185 457.228 54.4074 456.847 54.3857C456.466 54.3639 456.084 54.4322 455.737 54.5846C455.369 53.6072 454.778 52.7213 454.006 51.992L454.011 51.987C454.218 51.7702 454.379 51.5164 454.483 51.2401C454.588 50.9638 454.635 50.6704 454.621 50.3767C454.607 50.0831 454.533 49.7949 454.403 49.5287C454.273 49.2625 454.09 49.0234 453.863 48.8252C453.637 48.627 453.371 48.4736 453.083 48.3736C452.794 48.2737 452.488 48.2293 452.182 48.2428C451.875 48.2564 451.575 48.3277 451.297 48.4527C451.019 48.5777 450.77 48.754 450.564 48.9713V48.9713Z" fill="#4C0AE0"/>
<path d="M483.985 22.985H458.053V26.7124H483.985V22.985Z" fill="#E6E6E6"/>
<path d="M16.3216 316.972C25.6697 328.968 45.0745 330.231 45.0745 330.231C45.0745 330.231 49.3231 312.044 39.975 300.047C30.6269 288.051 11.2221 286.788 11.2221 286.788C11.2221 286.788 6.97347 304.976 16.3216 316.972Z" fill="#E6E6E6"/>
<path d="M63.9428 321.482C57.7743 329.398 44.9696 330.231 44.9696 330.231C44.9696 330.231 42.1661 318.23 48.3346 310.314C54.5032 302.398 67.3079 301.565 67.3079 301.565C67.3079 301.565 70.1114 313.566 63.9428 321.482Z" fill="#E6E6E6"/>
<path d="M336.823 357.608H0V359H336.823V357.608Z" fill="#4C0AE0"/>
<path d="M176 91H153V108H176V91Z" fill="#E70013"/>
<path fill-rule="evenodd" clip-rule="evenodd" d="M168.387 99.4925C168.387 100.055 168.287 100.613 168.093 101.133C167.899 101.653 167.614 102.126 167.255 102.524C166.896 102.922 166.469 103.238 166 103.454C165.531 103.669 165.028 103.78 164.52 103.78C164.012 103.78 163.51 103.669 163.04 103.454C162.571 103.238 162.145 102.922 161.786 102.524C161.427 102.126 161.142 101.653 160.948 101.133C160.753 100.613 160.653 100.055 160.653 99.4925C160.653 98.9294 160.753 98.3719 160.948 97.8517C161.142 97.3315 161.427 96.8589 161.786 96.4607C162.145 96.0626 162.571 95.7468 163.04 95.5313C163.51 95.3159 164.012 95.205 164.52 95.205C165.028 95.205 165.531 95.3159 166 95.5313C166.469 95.7468 166.896 96.0626 167.255 96.4607C167.614 96.8589 167.899 97.3315 168.093 97.8517C168.287 98.3719 168.387 98.9294 168.387 99.4925V99.4925Z" fill="white"/>
<path fill-rule="evenodd" clip-rule="evenodd" d="M164.52 102.336C163.105 102.336 161.956 101.062 161.956 99.4925C161.956 97.9229 163.105 96.6491 164.52 96.6491C164.874 96.6491 165.277 96.7392 165.551 96.9623C163.675 97.0404 163.201 98.8043 163.201 99.5151C163.201 100.226 163.504 101.811 165.551 102.045C165.318 102.212 164.874 102.336 164.52 102.336V102.336Z" fill="#E70013"/>
<path fill-rule="evenodd" clip-rule="evenodd" d="M166.78 100.689L165.615 100.218L164.845 101.294L164.889 99.9209L163.727 99.4411L164.919 99.0634L164.972 97.6902L165.664 98.8304L166.858 98.4613L166.094 99.5435L166.78 100.689Z" fill="#E70013"/>
<path d="M170.322 117.091H167.979C167.979 85.3397 161.157 63.213 154.509 63.213L153.923 60.9681C159.885 60.9681 163.686 70.1771 165.825 77.9027C168.725 88.376 170.322 102.293 170.322 117.091Z" fill="#3F3D56"/>
</svg>
