<svg width="793" height="582" viewBox="0 0 793 582" fill="none" xmlns="http://www.w3.org/2000/svg">
<g clip-path="url(#clip0)">
<path opacity="0.1" d="M460.747 102.64C409.909 100.841 361.451 84.1244 315.249 65.8391C269.047 47.5538 223.255 27.2904 173.607 17.6012C141.686 11.3624 105.18 10.4849 79.4658 27.9151C54.7149 44.6834 46.7201 73.6321 42.4197 100.491C39.1853 120.703 37.3089 141.97 46.1506 160.895C52.3055 174.027 63.228 185.069 70.7847 197.651C97.0689 241.427 78.4874 295.413 49.9983 338.193C36.6372 358.271 21.1369 377.374 10.8276 398.723C0.518419 420.072 -4.25653 444.529 4.76769 466.302C13.7116 487.867 35.0164 504.092 58.1026 515.492C104.991 538.625 160.238 545.243 214.114 549.036C333.371 557.342 453.27 553.743 572.841 550.144C617.093 548.805 661.543 547.459 705.072 540.477C729.246 536.603 754.209 530.46 771.761 515.633C794.037 496.805 799.564 464.934 784.633 441.324C759.59 401.734 690.353 391.896 672.845 349.407C663.215 326.02 673.108 299.964 687.111 278.273C717.141 231.746 767.49 190.921 770.14 137.731C771.965 101.198 747.762 64.6196 710.336 47.3307C671.115 29.1941 616.721 31.4844 587.787 61.4593C557.991 92.3413 505.627 104.224 460.747 102.64Z" fill="#4C0AE0"/>
<path d="M176.87 539.146C176.87 539.146 136.714 508.227 129.128 468.897C126.052 452.379 117.8 437.322 105.611 425.984C99.7801 420.65 93.4822 415.871 86.7961 411.706" stroke="#535461" stroke-width="2" stroke-miterlimit="10"/>
<path d="M81.8825 386.929C85.4016 391.778 86.9933 412.323 86.9933 412.323C86.9933 412.323 68.1782 404.776 64.6518 399.935C62.9584 397.608 62.2421 394.691 62.6604 391.826C63.0787 388.961 64.5973 386.382 66.8823 384.658C69.1672 382.933 72.0312 382.203 74.8443 382.629C77.6574 383.055 80.1891 384.602 81.8825 386.929V386.929Z" fill="#4C0AE0"/>
<path d="M115.628 403.051C115.993 409.066 106.378 427.196 106.378 427.196C106.378 427.196 94.601 410.435 94.2286 404.419C94.087 401.551 95.0607 398.742 96.9386 396.6C98.8165 394.458 101.448 393.156 104.261 392.976C107.075 392.796 109.846 393.752 111.972 395.638C114.098 397.524 115.409 400.187 115.621 403.051H115.628Z" fill="#4C0AE0"/>
<path d="M148.337 449.392C145.68 454.776 128.383 465.484 128.383 465.484C128.383 465.484 126.536 444.96 129.194 439.577C130.502 437.045 132.734 435.137 135.409 434.265C138.084 433.392 140.989 433.624 143.498 434.91C146.007 436.197 147.92 438.435 148.825 441.144C149.73 443.852 149.555 446.814 148.337 449.392V449.392Z" fill="#4C0AE0"/>
<path d="M165.342 490.112C163.611 495.875 148.345 509.402 148.345 509.402C148.345 509.402 143.11 489.495 144.84 483.725C145.672 480.956 147.55 478.637 150.06 477.278C152.57 475.919 155.508 475.631 158.227 476.478C160.946 477.325 163.223 479.238 164.557 481.795C165.891 484.351 166.174 487.343 165.342 490.112V490.112Z" fill="#4C0AE0"/>
<path d="M88.9719 441.77C94.8128 442.573 113.277 434.081 113.277 434.081C113.277 434.081 97.6967 420.934 91.8266 420.131C89.0092 419.746 86.1567 420.516 83.8968 422.272C81.6369 424.029 80.1546 426.628 79.776 429.497C79.3975 432.367 80.1536 435.272 81.8782 437.573C83.6027 439.875 86.1544 441.385 88.9719 441.77V441.77Z" fill="#4C0AE0"/>
<path d="M109.452 489.146C115.293 488.127 130.384 474.407 130.384 474.407C130.384 474.407 111.649 466.614 105.816 467.633C104.419 467.866 103.081 468.379 101.88 469.141C100.679 469.904 99.6381 470.901 98.8174 472.075C97.9967 473.25 97.4124 474.578 97.0984 475.984C96.7844 477.389 96.7468 478.844 96.9879 480.265C97.2289 481.685 97.7438 483.043 98.5028 484.259C99.2618 485.476 100.25 486.528 101.41 487.353C102.57 488.179 103.879 488.763 105.262 489.07C106.645 489.378 108.074 489.403 109.466 489.146H109.452Z" fill="#4C0AE0"/>
<path d="M135.553 532.416C141.474 532.416 158.632 521.493 158.632 521.493C158.632 521.493 141.467 510.584 135.546 510.584C132.703 510.584 129.977 511.734 127.967 513.781C125.957 515.828 124.828 518.605 124.828 521.5C124.828 524.395 125.957 527.172 127.967 529.219C129.977 531.266 132.703 532.416 135.546 532.416H135.553Z" fill="#4C0AE0"/>
<path d="M566.971 271.722C566.971 271.722 591.722 227.068 629.031 214.204C644.697 208.905 658.254 198.575 667.668 184.764C672.084 178.162 675.894 171.16 679.051 163.847" stroke="#535461" stroke-width="2" stroke-miterlimit="10"/>
<path d="M702.473 155.667C698.224 159.861 678.445 164.204 678.445 164.204C678.445 164.204 683.3 144.201 687.549 139.999C689.601 138.043 692.324 136.986 695.133 137.055C697.941 137.124 700.611 138.313 702.568 140.367C704.524 142.421 705.61 145.175 705.593 148.037C705.575 150.898 704.455 153.638 702.473 155.667Z" fill="#6C63FF"/>
<path d="M691.288 191.829C685.447 193.004 666.559 185.701 666.559 185.701C666.559 185.701 681.307 171.573 687.111 170.42C688.505 170.105 689.946 170.077 691.351 170.337C692.756 170.597 694.095 171.14 695.291 171.935C696.486 172.73 697.514 173.759 698.313 174.964C699.113 176.169 699.668 177.524 699.946 178.95C700.224 180.376 700.22 181.844 699.933 183.269C699.647 184.693 699.084 186.045 698.277 187.244C697.471 188.444 696.437 189.468 695.237 190.255C694.036 191.042 692.694 191.577 691.288 191.829V191.829Z" fill="#6C63FF"/>
<path d="M650.576 231.002C644.984 229.031 632.272 212.999 632.272 212.999C632.272 212.999 651.986 208.404 657.593 210.374C658.94 210.829 660.185 211.553 661.256 212.502C662.326 213.451 663.201 214.607 663.829 215.904C664.458 217.2 664.827 218.611 664.915 220.053C665.004 221.496 664.81 222.943 664.346 224.309C663.881 225.675 663.155 226.933 662.209 228.011C661.263 229.088 660.116 229.964 658.835 230.587C657.554 231.209 656.164 231.567 654.747 231.638C653.329 231.709 651.911 231.493 650.576 231.002V231.002Z" fill="#6C63FF"/>
<path d="M613.165 253.578C607.324 252.596 592.167 238.951 592.167 238.951C592.167 238.951 610.851 231.024 616.684 232.006C619.492 232.476 622.002 234.063 623.66 236.418C625.319 238.773 625.992 241.702 625.53 244.562C625.068 247.421 623.51 249.977 621.198 251.666C618.886 253.356 616.01 254.041 613.202 253.57L613.165 253.578Z" fill="#6C63FF"/>
<path d="M650.065 170.063C650.058 176.094 660.798 193.591 660.798 193.591C660.798 193.591 671.523 176.116 671.523 170.093C671.561 168.636 671.311 167.186 670.79 165.829C670.268 164.472 669.485 163.235 668.486 162.191C667.487 161.147 666.294 160.317 664.975 159.75C663.657 159.184 662.24 158.892 660.809 158.892C659.378 158.892 657.961 159.184 656.643 159.75C655.324 160.317 654.131 161.147 653.132 162.191C652.133 163.235 651.35 164.472 650.828 165.829C650.307 167.186 650.057 168.636 650.095 170.093L650.065 170.063Z" fill="#6C63FF"/>
<path d="M606.675 197.026C608.442 202.782 623.803 216.204 623.803 216.204C623.803 216.204 628.914 196.261 627.132 190.505C626.209 187.838 624.305 185.641 621.822 184.375C619.339 183.11 616.471 182.875 613.822 183.72C611.172 184.565 608.948 186.425 607.618 188.907C606.287 191.389 605.954 194.3 606.689 197.026H606.675Z" fill="#6C63FF"/>
<path d="M568.073 229.128C568.862 235.077 581.77 250.968 581.77 250.968C581.77 250.968 590.101 232.192 589.313 226.221C589.156 224.774 588.717 223.373 588.022 222.102C587.326 220.831 586.388 219.714 585.262 218.817C584.136 217.92 582.846 217.262 581.467 216.881C580.088 216.499 578.647 216.403 577.231 216.597C575.815 216.79 574.451 217.271 573.219 218.01C571.988 218.748 570.914 219.73 570.061 220.898C569.207 222.065 568.592 223.395 568.251 224.809C567.91 226.222 567.849 227.691 568.073 229.128V229.128Z" fill="#6C63FF"/>
<path opacity="0.25" d="M702.473 155.667C698.224 159.861 678.445 164.204 678.445 164.204C678.445 164.204 683.3 144.201 687.549 139.999C689.601 138.043 692.324 136.986 695.133 137.055C697.941 137.124 700.611 138.313 702.568 140.367C704.524 142.421 705.61 145.175 705.593 148.037C705.575 150.898 704.455 153.638 702.473 155.667Z" fill="black"/>
<path opacity="0.25" d="M691.288 191.829C685.447 193.004 666.559 185.701 666.559 185.701C666.559 185.701 681.307 171.573 687.111 170.42C688.505 170.105 689.946 170.077 691.351 170.337C692.756 170.597 694.095 171.14 695.291 171.935C696.486 172.73 697.514 173.759 698.313 174.964C699.113 176.169 699.668 177.524 699.946 178.95C700.224 180.376 700.22 181.844 699.933 183.269C699.647 184.693 699.084 186.045 698.277 187.244C697.471 188.444 696.437 189.468 695.237 190.255C694.036 191.042 692.694 191.577 691.288 191.829V191.829Z" fill="black"/>
<path opacity="0.25" d="M650.576 231.002C644.984 229.031 632.272 212.999 632.272 212.999C632.272 212.999 651.986 208.404 657.593 210.374C658.94 210.829 660.185 211.553 661.256 212.502C662.326 213.451 663.201 214.607 663.829 215.904C664.458 217.2 664.827 218.611 664.915 220.053C665.004 221.496 664.81 222.943 664.346 224.309C663.881 225.675 663.155 226.933 662.209 228.011C661.263 229.088 660.116 229.964 658.835 230.587C657.554 231.209 656.164 231.567 654.747 231.638C653.329 231.709 651.911 231.493 650.576 231.002V231.002Z" fill="black"/>
<path opacity="0.25" d="M613.165 253.578C607.324 252.596 592.167 238.951 592.167 238.951C592.167 238.951 610.851 231.024 616.684 232.006C619.492 232.476 622.002 234.063 623.66 236.418C625.319 238.773 625.992 241.702 625.53 244.562C625.068 247.421 623.51 249.977 621.198 251.666C618.886 253.356 616.01 254.041 613.202 253.57L613.165 253.578Z" fill="black"/>
<path opacity="0.25" d="M650.065 170.063C650.058 176.094 660.798 193.591 660.798 193.591C660.798 193.591 671.523 176.116 671.523 170.093C671.561 168.636 671.311 167.186 670.79 165.829C670.268 164.472 669.485 163.235 668.486 162.191C667.487 161.147 666.294 160.317 664.975 159.75C663.657 159.184 662.24 158.892 660.809 158.892C659.378 158.892 657.961 159.184 656.643 159.75C655.324 160.317 654.131 161.147 653.132 162.191C652.133 163.235 651.35 164.472 650.828 165.829C650.307 167.186 650.057 168.636 650.095 170.093L650.065 170.063Z" fill="black"/>
<path opacity="0.25" d="M606.675 197.026C608.442 202.782 623.803 216.204 623.803 216.204C623.803 216.204 628.914 196.261 627.132 190.505C626.209 187.838 624.305 185.641 621.822 184.375C619.339 183.11 616.471 182.875 613.822 183.72C611.172 184.565 608.948 186.425 607.618 188.907C606.287 191.389 605.954 194.3 606.689 197.026H606.675Z" fill="black"/>
<path opacity="0.25" d="M568.073 229.128C568.862 235.077 581.77 250.968 581.77 250.968C581.77 250.968 590.101 232.192 589.313 226.221C589.156 224.774 588.717 223.373 588.022 222.102C587.326 220.831 586.388 219.714 585.262 218.817C584.136 217.92 582.846 217.262 581.467 216.881C580.088 216.499 578.647 216.403 577.231 216.597C575.815 216.79 574.451 217.271 573.219 218.01C571.988 218.748 570.914 219.73 570.061 220.898C569.207 222.065 568.592 223.395 568.251 224.809C567.91 226.222 567.849 227.691 568.073 229.128V229.128Z" fill="black"/>
<path d="M568.395 270.837C568.395 270.837 573.257 219.796 602.214 192.654C614.427 181.342 622.711 166.304 625.825 149.792C627.243 141.943 627.949 133.978 627.935 125.997" stroke="#535461" stroke-width="2" stroke-miterlimit="10"/>
<path d="M646.086 108.775C643.896 114.367 627.512 126.503 627.512 126.503C627.512 126.503 623.993 106.21 626.205 100.618C627.27 97.9325 629.339 95.7883 631.956 94.6566C634.573 93.525 637.525 93.4986 640.161 94.5833C642.798 95.668 644.903 97.7749 646.014 100.441C647.125 103.106 647.151 106.112 646.086 108.797V108.775Z" fill="#4C0AE0"/>
<path d="M650.255 146.491C645.415 149.956 625.212 151.094 625.212 151.094C625.212 151.094 633.083 132.102 637.924 128.637C639.072 127.762 640.38 127.13 641.772 126.78C643.164 126.429 644.611 126.366 646.027 126.595C647.443 126.824 648.8 127.341 650.017 128.113C651.233 128.886 652.286 129.9 653.111 131.094C653.936 132.288 654.518 133.639 654.821 135.066C655.125 136.494 655.144 137.969 654.877 139.404C654.611 140.839 654.065 142.205 653.271 143.421C652.477 144.637 651.451 145.678 650.255 146.483V146.491Z" fill="#4C0AE0"/>
<path d="M628.6 199.123C622.701 199.629 604.696 190.2 604.696 190.2C604.696 190.2 620.905 177.856 626.804 177.351C629.637 177.108 632.448 178.022 634.62 179.89C636.792 181.759 638.145 184.43 638.383 187.315C638.622 190.2 637.725 193.064 635.89 195.275C634.055 197.487 631.433 198.866 628.6 199.109V199.123Z" fill="#4C0AE0"/>
<path d="M603.404 235.181C597.672 236.668 578.368 230.519 578.368 230.519C578.368 230.519 592.291 215.565 598.023 214.048C600.774 213.321 603.697 213.737 606.147 215.205C608.597 216.673 610.375 219.072 611.088 221.874C611.802 224.677 611.393 227.653 609.952 230.148C608.511 232.644 606.155 234.454 603.404 235.181V235.181Z" fill="#6C63FF"/>
<path d="M603.915 143.606C606.31 149.116 623.058 160.709 623.058 160.709C623.058 160.709 625.906 140.304 623.511 134.794C622.318 132.216 620.182 130.216 617.56 129.22C614.937 128.225 612.037 128.313 609.478 129.467C606.919 130.62 604.905 132.747 603.865 135.394C602.826 138.04 602.843 140.995 603.915 143.628V143.606Z" fill="#4C0AE0"/>
<path d="M574.973 186.155C578.879 190.683 598.256 196.617 598.256 196.617C598.256 196.617 594.985 176.28 591.079 171.751C590.157 170.651 589.03 169.749 587.762 169.096C586.495 168.443 585.113 168.054 583.696 167.95C582.28 167.846 580.857 168.03 579.511 168.491C578.165 168.952 576.922 169.681 575.855 170.635C574.788 171.59 573.918 172.751 573.295 174.05C572.672 175.35 572.309 176.763 572.227 178.207C572.145 179.651 572.345 181.097 572.817 182.462C573.288 183.826 574.021 185.081 574.973 186.155V186.155Z" fill="#6C63FF"/>
<path d="M552.42 231.456C555.515 236.586 573.63 245.77 573.63 245.77C573.63 245.77 573.783 225.165 570.709 220.026C569.179 217.654 566.802 215.982 564.081 215.364C561.361 214.747 558.512 215.233 556.137 216.72C553.763 218.207 552.051 220.577 551.364 223.328C550.676 226.079 551.068 228.994 552.456 231.456H552.42Z" fill="#6C63FF"/>
<path d="M531.159 70.9477C532.371 66.4191 533.831 61.8682 534.853 57.2802C533.627 61.8682 532.159 66.434 531.159 70.9477Z" fill="url(#paint0_linear)"/>
<path d="M525.727 114.568C525.625 114.389 525.552 114.211 525.471 114.047C525.471 113.973 525.398 113.913 525.369 113.839C525.21 113.915 525.047 113.983 524.88 114.04C524.559 114.166 524.23 114.285 523.894 114.382C523.558 114.479 523.42 114.531 523.164 114.59C522.952 114.664 522.735 114.722 522.514 114.761L522.573 114.895C522.843 114.835 523.106 114.783 523.376 114.709L523.449 115.631C523.755 115.631 524.04 115.587 524.318 115.587C524.449 115.579 524.581 115.579 524.712 115.587C525.281 115.587 525.778 115.587 526.172 115.587C526.019 115.252 525.858 114.902 525.727 114.568ZM673.94 354.85C670.509 350.143 663.66 299.622 663.66 299.622C663.66 299.622 650.19 263.698 653.862 249.362C657.535 235.025 643.83 198.343 643.83 198.343C643.83 198.343 634.777 194.335 634.288 188.386C634.288 188.386 597.322 176.488 595.592 167.565C594.19 160.248 571.264 154.998 563.028 153.34C560.517 143.018 557.991 133.389 556.129 128.131C555.625 126.495 555.15 125.082 554.712 123.967C551.566 115.787 541.84 115.044 534.788 115.698C534.482 114.304 533.914 112.983 533.116 111.809C532.999 111.405 532.768 111.046 532.451 110.775C532.3 110.644 532.139 110.525 531.969 110.418C531.842 110.177 531.674 109.961 531.473 109.779C531.272 109.595 531.052 109.435 530.816 109.303C530.646 109.21 530.47 109.128 530.29 109.058C529.867 108.894 529.429 108.771 528.983 108.693C528.463 108.584 527.936 108.515 527.406 108.485C528.695 107.911 529.844 107.055 530.772 105.979C531.403 105.223 531.873 104.342 532.152 103.391C532.383 102.601 532.487 101.777 532.458 100.952C532.269 101.292 532.049 101.613 531.801 101.912C532.108 98.6174 530.4 95.2711 529.421 91.9918C528.236 87.7226 528.016 83.2353 528.779 78.8671C529.757 72.2788 532.181 65.616 533.824 58.9087C533.828 58.8716 533.828 58.8342 533.824 58.7971C534.685 55.4661 535.218 52.0559 535.415 48.6171C535.7 41.6793 533.955 34.7563 531.152 28.4356C528.662 22.8362 524.989 17.3261 519.367 15.0507C515.191 13.3329 510.511 13.6081 506.014 13.3255C495.923 12.686 486.301 9.07204 476.707 5.78529C467.113 2.49854 457.242 -0.490764 447.144 0.0818147C437.047 0.654393 426.657 5.61426 422.05 14.716C420.59 17.5566 419.751 20.7169 418.006 23.3865C414.735 28.4207 408.879 30.9416 403.995 34.4142C399.11 37.8869 394.81 42.817 393.043 48.6989C392.078 51.8679 391.942 55.2385 392.649 58.4774V58.4774C392.808 59.2088 393.012 59.9291 393.262 60.6338C393.955 62.5987 395.036 64.398 396.438 65.9209C397.496 67.0465 398.711 68.0062 400.045 68.7689V68.7689C401.72 69.7145 403.513 70.4249 405.375 70.8808C405.309 71.1039 405.243 71.3418 405.17 71.5723C405.053 71.9516 404.951 72.3159 404.842 72.7249C404.601 73.6396 404.374 74.5691 404.185 75.506C404.177 75.5727 404.177 75.6401 404.185 75.7068C403.288 79.9364 402.837 84.2515 402.841 88.5787C402.84 90.6251 402.942 92.6703 403.148 94.706V94.706C406.068 124.882 430.527 148.685 460.747 150.231C461.783 150.283 462.827 150.313 463.886 150.313C464.368 150.313 464.842 150.313 465.346 150.313C465.821 150.953 466.288 151.607 466.733 152.246C467.179 152.886 467.588 153.54 467.975 154.18L466.916 153.064L465.857 152.075C465.57 152.477 465.25 152.852 464.901 153.198C464.211 152.951 463.506 152.747 462.791 152.588V152.588C459.761 151.904 455.147 151.652 449.072 153.518C443.487 155.221 436.66 158.723 428.673 165.379L389.75 189.174L368.694 202.217L361.108 221.105C361.108 221.105 355.406 243.547 349.061 269.261C348.813 269.335 348.572 269.409 348.331 269.499C347.817 269.439 347.3 269.409 346.783 269.409C343.102 269.401 339.56 270.845 336.903 273.439C334.245 276.034 332.678 279.576 332.531 283.322C319.915 298.938 319.199 314.554 322.163 321.722C322.432 322.394 322.77 323.034 323.171 323.633C325.113 326.489 328.742 333.85 332.421 341.696C332.327 342.342 332.268 342.885 332.239 343.294C332.232 343.428 332.232 343.562 332.239 343.696C332.239 343.696 334.429 377.389 327.128 387.048C325.529 389.153 325.77 391.919 327.128 394.983C332.02 406.003 351.361 420.719 351.361 420.719C351.361 420.719 374.556 420.592 387.479 419.157C387.443 420.481 387.414 421.797 387.385 423.083C387.093 436.082 387.093 446.976 387.093 446.976L386.611 460.606C386.611 460.606 382.23 489.332 380.04 497.251C378.66 502.218 380.251 548.21 381.639 582.022H610.179C612.866 562.019 609.077 501.244 609.077 501.244C609.077 501.244 605.477 485.532 605.346 471.834C605.339 471.819 605.335 471.803 605.335 471.786C605.335 471.769 605.339 471.753 605.346 471.738C605.346 470.541 605.346 469.373 605.39 468.228L607.047 468.168L610.026 468.064H610.296C610.296 468.064 610.369 467.782 610.537 467.321C610.931 466.172 611.469 465.08 612.136 464.071C613.406 462.16 615.392 460.286 618.378 460.16C620.029 460.093 622.584 458.732 625.468 456.724C625.487 456.729 625.507 456.729 625.526 456.724C633.287 451.378 643.546 441.51 646.035 439.889C649.459 437.658 665.858 422.786 665.858 422.786C665.858 422.786 668.304 419.633 670.91 415.833L671.005 415.699C674.247 410.94 677.693 405.252 676.846 403.46C675.386 400.247 677.824 392.566 677.824 392.566C685.44 378.37 677.372 359.557 673.94 354.85ZM532.758 126.131C532.828 126.353 532.872 126.583 532.889 126.815C532.707 126.57 532.524 126.309 532.342 126.071L532.166 125.833L532.042 125.655L532.32 125.268C532.32 125.268 532.32 125.268 532.32 125.32C532.513 125.561 532.661 125.836 532.758 126.131V126.131ZM530.305 119.543C529.509 119.706 528.881 119.855 528.472 119.966C527.954 119.029 527.457 118.092 527.012 117.141C528.182 117.832 529.285 118.637 530.305 119.543V119.543ZM528.932 120.717C528.93 120.703 528.93 120.688 528.932 120.673L528.99 120.717C529.29 120.918 529.582 121.112 529.852 121.312C530.093 121.491 530.312 121.662 530.531 121.84C530.385 122.101 530.224 122.368 530.064 122.584C529.808 122.175 529.567 121.781 529.334 121.372C529.188 121.208 529.056 120.985 528.932 120.717ZM524.551 111.541C525.962 111.4 527.383 111.4 528.793 111.541V111.541C528.99 111.541 529.166 111.578 529.341 111.608C529.737 111.671 530.126 111.773 530.502 111.913C531.365 113.143 531.896 114.581 532.042 116.085L531.648 116.144L531.261 116.219C530.531 116.345 529.801 116.471 529.231 116.59L528.501 116.747C527.53 116.962 526.968 117.126 526.946 117.133C526.851 116.932 526.756 116.747 526.654 116.553C526.493 116.233 526.325 115.906 526.179 115.587C526.033 115.267 525.844 114.902 525.69 114.568C525.588 114.389 525.515 114.211 525.435 114.047C525.435 113.973 525.362 113.913 525.333 113.839C525.29 113.76 525.253 113.678 525.223 113.594C524.778 112.672 524.369 111.749 523.975 110.842C523.931 110.753 523.894 110.656 523.858 110.567L524.413 110.53V110.723L524.551 111.541ZM350.353 572.831C350.295 561.759 349.506 549.779 347.316 538.536C346.381 533.755 345.418 528.973 344.439 524.274C344.191 523.099 343.95 521.939 343.709 520.779L341.46 521.084H341.256C335.123 491.629 328.712 465.677 328.712 465.677C328.712 465.677 315.979 416.16 317.454 412.212C317.644 411.699 317.403 410.316 316.863 408.286C313.782 397.027 300.917 366.004 296.419 355.4C296.419 355.356 296.383 355.304 296.368 355.266C295.638 353.489 295.113 352.292 294.952 351.942L296.011 336.118L296.069 335.167L296.208 333.144L296.149 333.092L296.208 332.155C296.208 332.155 285.095 322.875 266.273 316.175C265.543 315.907 264.769 315.647 264.002 315.394C264.944 308.992 266.193 301.764 267.821 294.722C267.974 294.015 268.142 293.331 268.317 292.64C268.471 291.948 268.646 291.279 268.821 290.602C269.099 289.502 269.398 288.416 269.705 287.345C270.719 287.018 271.72 286.654 272.705 286.267L273.085 286.118C285.227 281.306 295.247 272.176 301.287 260.418C307.328 248.66 308.981 235.072 305.94 222.168V222.168C304.206 214.85 301.005 207.976 296.536 201.979C296.2 201.518 295.843 201.057 295.485 200.603C295.127 200.15 294.696 199.644 294.295 199.183C296.405 194.297 298.895 189.65 299.099 184.898C299.136 184.297 299.136 183.693 299.099 183.091V183.017C298.829 179.961 297.5 176.867 294.404 173.618C289.885 168.851 283.453 166.434 277.02 165.274C270.588 164.114 264.032 164.085 257.563 163.304C246.837 161.995 236.389 158.627 225.664 157.593C212.453 156.347 199.153 158.655 187.092 164.285C179.112 168.003 171.03 174.503 170.548 183.418C170.153 190.788 175.191 197.852 173.921 205.132C172.658 212.285 165.503 217.914 166.13 225.15C166.371 227.975 167.795 230.504 169.577 232.757C170.19 233.501 170.84 234.244 171.511 234.988C174.111 237.791 176.973 240.483 178.426 244.015C178.484 244.164 178.542 244.313 178.593 244.461C179.827 247.949 179.272 252.358 176.221 254.359C176.238 254.372 176.25 254.39 176.257 254.411V254.411C176.301 254.47 176.345 254.515 176.381 254.574C176.386 254.562 176.386 254.549 176.381 254.537C177.463 255.844 178.922 256.77 180.55 257.184L181.171 257.378C180.667 257.935 180.192 258.515 179.711 259.125L179.397 259.549C178.592 260.651 177.86 261.806 177.206 263.007C176.834 263.676 176.476 264.345 176.177 265.015C175.176 267.055 174.451 269.223 174.023 271.462C173.242 276.384 174.344 281.515 173.161 286.334C171.701 292.283 167.08 296.849 164.473 302.374C159.537 312.784 162.334 325.002 163.327 336.498C164.678 352.113 162.487 367.796 160.304 383.308C159.146 391.557 157.987 399.813 156.829 408.077C153.908 428.819 150.988 449.561 148.067 470.303C147.001 477.902 145.738 485.918 140.766 491.785H140.817C140.817 491.785 140.817 491.83 140.766 491.845C142.259 492.509 143.846 492.926 145.468 493.079V493.079C151.959 493.741 158.837 490.544 164.677 487.049C169.303 484.326 173.684 481.194 177.768 477.687C177.17 479.917 176.527 482.349 175.841 484.967C175.843 484.991 175.843 485.016 175.841 485.041V485.041C167.598 517.016 154.339 575.635 154.339 575.635C154.339 575.635 153.134 578.185 151.572 581.985H357.464C355.055 579.011 352.814 576.163 351.061 573.865L350.353 572.831ZM197.905 277.173C197.956 277.083 197.993 277.002 198.044 276.92C198.044 277.158 198.044 277.388 198.044 277.611C198.044 277.834 198.044 278.035 198.044 278.243C198.044 278.452 198.044 278.429 198.044 278.533C198.044 278.638 198.044 278.533 198.044 278.533C198.044 278.838 197.978 279.143 197.927 279.448C197.927 279.448 197.927 279.485 197.927 279.515L198.657 279.79L199.504 280.147C204.508 282.16 209.575 283.982 214.705 285.613C215.231 285.784 215.764 285.947 216.297 286.103L216.406 287.025C216.538 287.97 216.662 288.929 216.779 289.888C216.779 289.888 216.779 289.933 216.779 289.963C217.107 292.617 217.428 295.265 217.713 297.852C217.713 297.852 204.308 292.647 204.476 300.552C204.468 300.693 204.468 300.834 204.476 300.976C204.461 301.164 204.461 301.353 204.476 301.541C204.6 307.698 206.491 311.349 206.871 313.223C206.848 313.3 206.808 313.372 206.754 313.431C206.43 314.149 206.318 314.947 206.433 315.729C206.42 317.059 206.523 318.388 206.739 319.7C206.345 319.945 205.958 320.19 205.571 320.443C205.279 320.629 205.002 320.837 204.717 321.046C202.926 314.718 200.583 308.566 197.715 302.664C195.707 298.455 193.451 294.067 193.473 289.45C193.473 289.152 193.473 288.847 193.51 288.542C193.591 287.204 193.841 285.882 194.254 284.609C194.422 284.125 194.605 283.649 194.809 283.181C195.287 282.068 195.82 280.981 196.408 279.924C196.788 279.225 197.19 278.533 197.576 277.834C197.701 277.626 197.817 277.411 197.934 277.202L197.905 277.173ZM525.727 114.568C525.625 114.389 525.552 114.211 525.471 114.047C525.471 113.973 525.398 113.913 525.369 113.839C525.21 113.915 525.047 113.983 524.88 114.04C524.559 114.166 524.23 114.285 523.894 114.382C523.558 114.479 523.42 114.531 523.164 114.59L522.514 114.761L522.573 114.895C522.843 114.835 523.106 114.783 523.376 114.709L523.449 115.631C523.755 115.631 524.04 115.587 524.318 115.587H524.712C525.281 115.587 525.778 115.587 526.172 115.587C526.019 115.252 525.858 114.902 525.727 114.568Z" fill="url(#paint1_linear)"/>
<path d="M366.197 223.789L361.816 225.76C361.816 225.76 333.261 338.743 333.261 347.875C333.261 357.006 393.81 407.817 393.81 407.817L403.257 342.87C403.257 342.87 389.692 193.933 366.197 223.789Z" fill="#E8F5FF"/>
<path d="M499.012 187.85L473.713 174.406C472.296 168.254 469.782 162.419 466.295 157.191C462.594 151.748 457.673 146.402 451.54 143.613C436.039 136.534 517.104 99.3759 517.104 99.3759C518.381 103.84 519.885 108.233 521.609 112.538C525.785 123.037 532.714 136.616 541.643 140.483C556.822 147.063 499.012 187.85 499.012 187.85Z" fill="#FFC1C7"/>
<path opacity="0.1" d="M521.609 112.538C518.145 124.945 510.942 135.93 501.017 143.943C491.092 151.955 478.946 156.589 466.295 157.191C462.594 151.748 457.673 146.402 451.54 143.613C436.039 136.534 517.104 99.3759 517.104 99.3759C518.381 103.84 519.885 108.233 521.609 112.538V112.538Z" fill="black"/>
<path d="M523.887 93.7765C523.89 105.945 520.35 117.84 513.714 127.959C507.078 138.078 497.645 145.965 486.608 150.624C475.571 155.282 463.425 156.502 451.707 154.129C439.989 151.757 429.225 145.898 420.776 137.294C412.327 128.691 406.574 117.728 404.243 105.794C401.912 93.8596 403.108 81.4893 407.681 70.2474C412.253 59.0056 419.996 49.3973 429.93 42.6378C439.865 35.8783 451.544 32.2712 463.492 32.2726C471.433 32.2352 479.302 33.8005 486.646 36.878C493.989 39.9555 500.661 44.4843 506.277 50.2028C511.892 55.9214 516.34 62.7163 519.362 70.1952C522.385 77.6742 523.923 85.6889 523.887 93.7765V93.7765Z" fill="#FFC1C7"/>
<path d="M532.604 179.953L516.133 219.097L501.604 245.078H455.095L441.53 209.556L447.028 172.718H482.548L505.481 171.402L513.227 168.769L518.221 171.655L532.604 179.953Z" fill="#1A0F54"/>
<path opacity="0.1" d="M526.931 127.774C526.931 127.774 537.204 130.005 528.005 137.687C518.805 145.368 487.067 169.796 487.067 169.796C487.067 169.796 498.216 179.909 495.909 191.754L532.845 170.784L539.416 137.233C539.416 137.233 540.154 127.15 526.931 127.774Z" fill="black"/>
<path opacity="0.1" d="M494.332 169.796L470.837 173.744C470.837 173.744 475.685 192 473.261 197.183C473.187 197.344 473.126 197.51 473.078 197.681L463.492 224.071L470.676 244.796L495.544 210.255L487.067 197.183C487.067 197.183 496.026 185.092 501.355 180.898C506.685 176.704 494.332 169.796 494.332 169.796Z" fill="black"/>
<path d="M494.332 168.777L470.837 172.718C470.837 172.718 475.685 190.974 473.261 196.156C473.187 196.318 473.126 196.484 473.078 196.655L463.492 223.045L470.676 243.77L495.544 209.207L487.067 196.134C487.067 196.134 496.026 184.043 501.355 179.849C506.685 175.655 494.332 168.777 494.332 168.777Z" fill="#DCE6F2"/>
<path d="M527.917 125.804C527.917 125.804 538.19 128.035 528.983 135.716C519.776 143.397 487.067 169.796 487.067 169.796C487.067 169.796 499.18 177.938 496.88 189.776L533.816 168.814L540.387 135.262C540.387 135.262 541.118 125.179 527.917 125.804Z" fill="#1A0F54"/>
<path opacity="0.1" d="M467.909 159.519C467.909 159.519 470.15 163.787 480.043 171.484C480.043 171.484 463.572 180.407 469.873 192.952L444.677 186.259L440.8 173.923L467.909 159.519Z" fill="black"/>
<path d="M466.938 158.537C466.938 158.537 469.179 162.806 479.072 170.502C479.072 170.502 462.601 179.381 468.902 191.963L443.713 185.27L439.836 172.941L466.938 158.537Z" fill="#1A0F54"/>
<path opacity="0.1" d="M532.604 179.953L516.133 219.097L501.633 245.078H455.095L441.53 209.556L447.02 172.718H456.899C456.738 181.314 459.819 191.412 459.622 195.167C459.286 201.339 468.661 234.638 468.661 234.638C468.661 234.638 488.279 202.321 496.026 199.443C500.896 197.636 511.212 182.601 518.214 171.655L532.604 179.953Z" fill="black"/>
<path d="M597.49 385.94L595.818 388.082C595.818 388.082 607.93 450.002 604.579 464.064C604.009 466.598 603.684 469.183 603.608 471.782V471.894C603.017 486.201 607.259 504.769 607.259 504.769C607.259 504.769 610.646 559.498 608.719 582.007H381.931C380.602 548.724 379.171 505.602 380.47 500.82C382.661 492.931 387.041 464.309 387.041 464.309L387.523 450.746C387.523 450.746 387.523 437.636 387.918 423.031C388.085 416.465 388.334 409.572 388.691 403.46C389.151 395.771 389.794 389.294 390.677 386.111C391.222 383.699 391.534 381.238 391.612 378.764C391.612 378.534 391.612 378.296 391.656 378.058C391.656 377.314 391.729 376.511 391.758 375.686C391.758 375.455 391.758 375.225 391.758 374.942C391.897 370.153 391.846 364.472 391.692 358.583C391.692 358.263 391.692 357.936 391.692 357.609C391.568 353.192 391.386 348.685 391.181 344.402C390.546 331.017 389.721 319.7 389.721 319.7L361.867 225.707L369.373 206.879L390.203 193.881L428.716 170.197C447.502 154.47 459.87 156.359 464.587 158.084C465.045 158.243 465.493 158.429 465.93 158.641C466.076 158.716 466.193 158.775 466.303 158.842C466.453 158.915 466.597 158.999 466.733 159.095V159.095C465.442 159.728 464.32 160.669 463.462 161.839C462.497 163.17 461.808 164.688 461.44 166.301C461.193 167.3 461.02 168.316 460.922 169.342C460.827 170.42 460.79 171.536 460.79 172.658C460.842 175.121 461.05 177.577 461.411 180.013C461.411 180.057 461.411 180.117 461.411 180.176C461.652 181.916 461.951 183.619 462.243 185.218C462.24 185.245 462.24 185.273 462.243 185.3C462.579 187.166 462.915 188.891 463.141 190.379C463.185 190.646 463.222 190.892 463.258 191.122C463.419 192.105 463.495 193.1 463.484 194.097C463.567 196.502 463.885 198.894 464.434 201.235C464.623 202.217 464.842 203.265 465.083 204.358C465.412 205.846 465.77 207.467 466.157 209.118C466.368 210.025 466.595 210.962 466.828 211.891C466.916 212.263 467.011 212.635 467.098 213.014L467.245 213.602C468.8 219.9 470.486 226.169 471.523 229.961C472.136 232.192 472.523 233.567 472.523 233.567C472.523 233.567 483.519 215.461 492.295 205.154C492.426 205.005 492.543 204.864 492.667 204.73C493.536 203.712 494.39 202.782 495.208 201.964C496.997 200.15 498.603 198.856 499.895 198.38C500.171 198.277 500.437 198.15 500.691 198.001C504.283 195.926 510.08 188.393 515.505 180.504C516.038 179.76 516.556 178.949 517.082 178.183C518.287 176.414 519.455 174.636 520.558 172.934C521.404 171.632 522.215 170.368 522.981 169.163C526.632 163.378 529.202 159.065 529.202 159.065L534.269 158.835L535.153 158.79H535.744L558.75 157.704C558.75 157.704 559.743 157.876 561.378 158.21C561.466 158.21 561.553 158.21 561.648 158.27C569.811 159.92 592.488 165.148 593.876 172.398C595.57 181.277 632.148 193.123 632.148 193.123C632.63 199.071 641.589 202.99 641.589 202.99C641.589 202.99 655.154 239.501 651.526 253.808C647.941 267.937 660.856 302.887 661.2 303.868L658.724 307.051L597.49 385.94Z" fill="#E8F5FF"/>
<path opacity="0.1" d="M526.924 125.179C526.924 125.179 549.317 118.71 554.406 132.028C559.495 145.346 570.877 199.131 570.877 199.131C570.877 199.131 541.322 204.805 533.575 199.131C529.032 195.764 523.408 194.266 517.827 194.937L501.115 206.53L496.179 205.043C496.179 205.043 522.916 164.561 528.728 150.804C534.539 137.047 536.503 130.897 526.924 125.179Z" fill="black"/>
<path d="M525.953 122.205C525.953 122.205 548.36 115.735 553.471 129.053C558.582 142.371 569.943 196.156 569.943 196.156C569.943 196.156 540.395 201.83 532.641 196.156C528.1 192.789 522.478 191.291 516.9 191.963L500.173 203.555L495.237 202.068C495.237 202.068 521.974 161.586 527.786 147.829C533.597 134.073 535.532 127.938 525.953 122.205Z" fill="#E8F5FF"/>
<path opacity="0.1" d="M375.644 336.773C375.644 336.773 392.357 340.967 395.511 350.589C398.665 360.211 383.157 360.457 383.157 360.457C383.157 360.457 373.709 343.436 375.644 336.773Z" fill="black"/>
<path opacity="0.1" d="M437.894 407.817C437.894 407.817 396.964 493.176 406.411 501.318C415.859 509.461 437.894 407.817 437.894 407.817Z" fill="black"/>
<path opacity="0.1" d="M494.332 344.915C494.332 344.915 527.034 427.828 520.492 440.633C513.95 453.438 534.539 440.633 534.539 440.633L494.332 344.915Z" fill="black"/>
<path d="M539.869 426.816C539.869 426.816 429.417 432.245 461.637 467.276C493.857 502.307 559.976 468.763 559.976 468.763L539.869 426.816Z" fill="#FFC1C7"/>
<path opacity="0.1" d="M523.887 93.7765C523.897 101.845 522.341 109.835 519.309 117.289C518.294 117.408 517.279 117.483 516.301 117.527C514.841 114.263 515.622 110.493 515.651 106.901C515.68 103.31 514.381 99.0858 510.986 98.1192C504.217 96.1783 499.545 109.065 492.871 106.738C487.761 104.968 489.097 97.0707 486.154 92.5124C483.825 88.9059 479.16 87.8871 475.531 85.6265C467.814 80.8005 468.048 73.0819 464.463 65.7796C460.71 58.1279 452.781 60.3885 445.896 64.9022C440.668 68.3376 436.156 72.9406 430.563 75.677C425.723 78.0566 420.283 78.9192 414.917 79.0456C411.613 79.176 408.308 78.8203 405.104 77.9897C408.873 63.5591 417.667 51.0173 429.845 42.703C442.023 34.3887 456.755 30.8696 471.293 32.8019C485.831 34.7342 499.183 41.986 508.859 53.205C518.534 64.424 523.873 78.8442 523.879 93.7765H523.887Z" fill="black"/>
<path d="M445.918 62.9316C440.683 66.3671 436.178 70.9626 430.585 73.7139C425.745 76.086 420.305 76.9486 414.939 77.075C408.368 77.2237 401.293 76.0488 396.803 71.2154C392.678 66.7537 391.692 59.8902 393.437 54.038C395.182 48.1858 399.366 43.3301 404.279 39.8128C409.193 36.2955 414.895 33.8639 418.152 28.8297C419.875 26.1676 420.707 23.0296 422.138 20.1964C426.716 11.1318 437.01 6.22401 446.962 5.61425C456.913 5.00449 466.777 8.02354 476.254 11.2954C485.731 14.5673 495.281 18.1664 505.284 18.843C509.737 19.1256 514.366 18.843 518.499 20.5608C524.055 22.8585 527.698 28.3538 530.18 33.9457C532.962 40.2515 534.693 47.1373 534.401 54.0232C533.787 68.7243 524.252 83.1503 528.443 97.2342C529.553 100.989 531.633 104.841 530.524 108.597C528.903 114.077 521.959 115.326 516.345 115.587C514.885 112.322 515.666 108.545 515.695 104.96C515.724 101.376 514.425 97.145 511.037 96.1783C504.261 94.2524 499.589 107.117 492.93 104.797C487.856 103.02 489.17 95.1298 486.22 90.5715C483.891 86.9576 479.218 85.9463 475.597 83.6857C467.88 78.8597 468.113 71.141 464.529 63.8388C460.747 56.1499 452.81 58.4104 445.918 62.9316Z" fill="#99607E"/>
<path d="M338.817 345.897L333.246 347.875C333.246 347.875 335.437 381.426 328.136 391.049C320.834 400.671 352.113 424.593 352.113 424.593C352.113 424.593 394.985 424.348 396.197 420.875C397.409 417.402 394.007 358.709 394.007 358.709C394.007 358.709 370.993 349.578 372.928 335.025C372.928 335.025 365.904 369.313 355.493 367.833C345.082 366.354 333.261 357.497 338.817 345.897Z" fill="#E8F5FF"/>
<path opacity="0.1" d="M357.399 378.214C365.516 378.214 372.096 372.085 372.096 364.524C372.096 356.964 365.516 350.834 357.399 350.834C349.282 350.834 342.701 356.964 342.701 364.524C342.701 372.085 349.282 378.214 357.399 378.214Z" fill="black"/>
<path d="M373.469 346.886C373.469 346.886 370.548 256.106 345.125 276.332C319.703 296.558 319.455 320.748 324.295 327.894C329.136 335.04 344.658 370.815 344.658 370.815C347.086 372.248 349.813 373.075 352.615 373.228C355.418 373.381 358.216 372.856 360.78 371.695C363.344 370.534 365.602 368.771 367.369 366.55C369.135 364.329 370.36 361.713 370.942 358.917L373.469 346.886Z" fill="#FFC1C7"/>
<path opacity="0.1" d="M532.057 116.94C531.938 116.541 531.71 116.185 531.4 115.914C530.144 114.746 527.442 114.337 523.368 114.694L523.536 116.657C528.968 116.181 530.042 117.282 530.18 117.468V117.654L530.348 117.899C531.026 118.826 531.505 119.887 531.757 121.014C532.008 122.141 532.026 123.309 531.809 124.443C530.618 130.503 523.31 135.329 523.237 135.381L523.062 135.485L522.952 135.657C519.798 140.423 501.961 153.875 497.296 157.355L496.887 156.879C494.799 158.723 476.444 175.09 475.451 181.359C474.808 185.292 470.457 186.817 468.88 187.241C467.215 185.954 461.812 181.574 459.001 176.667C456.366 172.049 466.974 163.036 467.909 159.519L466.449 157.995C466.295 158.56 452.671 171.528 456.461 178.154C459.498 183.471 465.047 188.021 466.989 189.524C466.368 195.264 462.506 228.972 456.57 236.958C449.196 246.885 442.997 296.915 443.684 314.383C444.29 329.902 440.311 359.215 427.022 371.804C424.722 374.079 421.947 375.796 418.904 376.826C415.861 377.856 412.629 378.173 409.449 377.753H409.288H409.127C408.937 377.753 389.662 379.761 373.469 365.855C360.217 354.5 352.711 335.97 351.149 310.761H350.828L350.696 303.422C354.289 302.851 357.525 300.884 359.724 297.934C361.922 294.984 362.913 291.28 362.487 287.602C362.061 283.924 360.252 280.557 357.44 278.209C354.627 275.861 351.031 274.714 347.406 275.01C343.781 275.306 340.41 277.021 338.001 279.796C335.592 282.57 334.332 286.187 334.487 289.888C334.642 293.588 336.198 297.083 338.83 299.639C341.462 302.195 344.964 303.612 348.601 303.593H348.761L348.893 310.888L348.25 310.932C349.857 336.959 357.742 356.211 371.614 368.101C382.158 377 395.626 381.489 409.295 380.661C410.265 380.769 411.24 380.823 412.216 380.824C418.481 380.857 424.51 378.388 429.008 373.946C443.005 360.672 447.261 330.281 446.597 314.234C445.867 295.726 452.372 247.495 458.899 238.713C465.295 230.095 469.172 196.513 469.851 190.007C472.165 189.345 477.4 187.255 478.291 181.827C478.934 177.901 491.192 165.802 498.734 159.102L498.508 158.835C502.567 155.816 515.191 146.298 521.448 140.185C523.39 138.289 525.318 136.393 527.333 134.586C529.757 132.399 532.838 128.927 533.648 124.822C533.925 123.467 533.926 122.069 533.652 120.714C533.379 119.358 532.836 118.074 532.057 116.94V116.94Z" fill="black"/>
<path d="M466.741 189.055C466.434 188.839 459.162 183.537 455.519 177.157C451.737 170.532 465.361 157.571 465.507 157.005L466.967 158.53C466.04 162.04 455.431 171.06 458.067 175.67C461.389 181.493 468.384 186.586 468.457 186.638L466.741 189.055Z" fill="#353146"/>
<path d="M496.347 158.798L495.208 157.199C495.442 157.028 518.374 140.133 521.989 134.667L522.105 134.504L522.273 134.392C522.346 134.34 529.655 129.522 530.845 123.454C531.064 122.321 531.048 121.154 530.796 120.028C530.545 118.902 530.064 117.842 529.385 116.918L529.217 116.665V116.486C529.071 116.293 527.997 115.2 522.565 115.676L522.397 113.705C526.479 113.348 529.173 113.757 530.429 114.925C530.741 115.199 530.972 115.557 531.093 115.958C531.883 117.089 532.436 118.372 532.72 119.729C533.004 121.086 533.012 122.488 532.743 123.848C531.933 127.96 528.859 131.433 526.428 133.612C524.42 135.419 522.485 137.33 520.55 139.211C513.213 146.372 497.15 158.21 496.347 158.798Z" fill="#E8F5FF"/>
<path d="M349.754 300.833L347.82 300.869L348.035 312.847L349.97 312.811L349.754 300.833Z" fill="#E8F5FF"/>
<path d="M347.659 302.649C355.462 302.649 361.787 296.207 361.787 288.26C361.787 280.313 355.462 273.871 347.659 273.871C339.856 273.871 333.531 280.313 333.531 288.26C333.531 296.207 339.856 302.649 347.659 302.649Z" fill="#6C63FF"/>
<path d="M347.659 300.21C354.139 300.21 359.392 294.859 359.392 288.26C359.392 281.66 354.139 276.31 347.659 276.31C341.179 276.31 335.926 281.66 335.926 288.26C335.926 294.859 341.179 300.21 347.659 300.21Z" fill="#E8F5FF"/>
<path d="M411.296 379.865C410.32 379.866 409.345 379.814 408.375 379.709C394.707 380.529 381.242 376.041 370.694 367.149C356.822 355.252 348.951 336.022 347.33 309.973L350.251 309.787C351.813 334.996 359.319 353.534 372.578 364.881C388.772 378.75 408.039 376.779 408.229 376.779H408.39H408.551C411.732 377.197 414.964 376.879 418.008 375.849C421.052 374.819 423.829 373.103 426.132 370.83C439.413 358.241 443.392 328.928 442.786 313.409C442.056 295.926 448.254 245.896 455.636 235.977C462.097 227.284 466.106 188.103 466.149 187.709L466.259 186.594L467.339 186.4C467.405 186.4 473.713 185.181 474.502 180.377C475.524 174.116 493.85 157.749 495.931 155.898L497.836 158.128C490.265 164.821 478.006 176.927 477.393 180.86C476.502 186.304 471.267 188.386 468.96 189.04C468.23 195.554 464.382 229.128 458.009 237.747C451.481 246.529 444.976 294.759 445.706 313.267C446.334 329.314 442.121 359.713 428.125 372.979C423.618 377.432 417.575 379.905 411.296 379.865Z" fill="#353146"/>
<g opacity="0.1">
<path opacity="0.1" d="M530.107 76.1975C531.305 71.6912 532.75 67.1552 533.758 62.5895C532.553 67.1775 531.1 71.6912 530.107 76.1975Z" fill="black"/>
<path opacity="0.1" d="M517.893 111.608C516.432 108.344 517.214 104.566 517.243 100.982C517.272 97.3978 515.972 93.2038 512.585 92.2C505.809 90.274 501.136 103.146 494.478 100.818C489.367 99.0412 490.718 91.1515 487.768 86.5932C485.439 82.9792 480.773 81.9679 477.152 79.7074C469.428 74.8813 469.661 67.1627 466.084 59.8604C462.324 52.2013 454.402 54.4618 447.509 58.983C442.275 62.4185 437.77 67.0214 432.177 69.7653C427.336 72.1374 421.897 73 416.531 73.1264C409.996 73.2826 402.885 72.1002 398.395 67.2668C394.934 63.5487 393.685 58.0981 394.401 52.9895C394.277 53.339 394.167 53.6885 394.058 54.038C392.305 59.8902 393.328 66.7686 397.424 71.2153C401.914 76.0488 409.025 77.2237 415.56 77.075C420.933 76.9486 426.365 76.086 431.213 73.7139C436.821 70.9625 441.325 66.367 446.546 62.9315C453.438 58.4104 461.367 56.1498 465.12 63.809C468.697 71.1112 468.471 78.8299 476.188 83.6559C479.839 85.8867 484.475 86.9278 486.812 90.5417C489.732 95.1149 488.44 102.99 493.521 104.767C500.173 107.087 504.845 94.2226 511.621 96.1485C515.009 97.1152 516.316 101.354 516.279 104.931C516.243 108.507 515.483 112.292 516.929 115.557C522.543 115.296 529.487 114.07 531.115 108.567C531.339 107.777 531.443 106.957 531.422 106.135C529.049 110.307 522.945 111.378 517.893 111.608Z" fill="black"/>
</g>
<path opacity="0.1" d="M649.846 294.833L658.323 303.965C658.323 303.965 665.106 354.285 668.493 358.992C671.881 363.699 679.883 382.423 672.37 396.485C672.37 396.485 669.946 404.136 671.399 407.341C672.852 410.546 660.506 426.586 660.506 426.586C660.506 426.586 644.276 441.384 640.881 443.607C637.485 445.83 619.568 463.588 613.516 463.833C607.463 464.079 605.485 471.73 605.485 471.73L571.33 472.965C571.33 472.965 552.464 471.961 548.36 474.675C548.36 474.675 550.551 445.317 529.472 426.073L556.355 416.205C556.355 416.205 566.533 411.743 569.68 407.081C571.659 404.223 574.468 402.067 577.711 400.916C577.711 400.916 585.217 395.488 585.457 392.529C585.698 389.569 594.635 385.94 594.635 385.94L589.575 341.956L592.24 268.933C592.24 268.933 600.717 207.749 618.641 211.207C636.566 214.665 649.846 294.833 649.846 294.833Z" fill="black"/>
<path d="M652.767 294.833L661.243 303.965C661.243 303.965 668.026 354.285 671.414 358.992C674.802 363.699 682.804 382.423 675.291 396.485C675.291 396.485 672.874 404.136 674.327 407.341C675.78 410.546 663.426 426.586 663.426 426.586C663.426 426.586 647.196 441.384 643.801 443.607C640.406 445.83 622.489 463.588 616.436 463.833C610.384 464.079 608.405 471.73 608.405 471.73L574.25 472.965C574.25 472.965 555.369 471.961 551.281 474.675C551.281 474.675 553.471 445.317 532.393 426.073L559.276 416.205C559.276 416.205 569.453 411.743 572.6 407.081C574.58 404.223 577.388 402.067 580.631 400.916C580.631 400.916 588.137 395.488 588.378 392.529C588.619 389.569 597.555 385.94 597.555 385.94L592.496 341.956L595.161 268.933C595.161 268.933 603.637 207.749 621.562 211.207C639.486 214.665 652.767 294.833 652.767 294.833Z" fill="#E8F5FF"/>
<path opacity="0.1" d="M621.255 368.599C621.255 368.599 646.203 361.907 652.745 370.086C659.287 378.266 621.255 368.599 621.255 368.599Z" fill="black"/>
<path opacity="0.1" d="M615.443 379.82C623.92 385.866 650.08 386.111 650.08 386.111L615.443 379.82Z" fill="black"/>
<path opacity="0.1" d="M628.279 410.041C629.009 410.286 646.261 429.04 653.504 423.366C660.747 417.692 628.279 410.041 628.279 410.041Z" fill="black"/>
<path opacity="0.1" d="M395.927 252.648C395.927 252.648 400.994 288.178 398.497 302.649C396 317.119 405.112 335.048 405.112 335.048L395.927 252.648Z" fill="black"/>
<path d="M283.752 267.097C277.911 271.759 273.647 282.794 270.559 294.923C265.171 316.078 263.411 340.61 263.411 340.61C263.411 340.61 216.903 329.753 220.29 324.823C222.422 321.722 219.56 298.358 217.173 281.419C215.749 271.41 214.479 263.639 214.479 263.639C214.479 263.639 299.741 254.262 283.752 267.097Z" fill="#FFCCD0"/>
<path opacity="0.1" d="M283.752 266.108C277.911 270.778 273.647 281.805 270.559 293.934C261.293 296.799 251.438 297.058 242.039 294.682C232.64 292.305 224.048 287.383 217.173 280.437C215.749 270.421 214.479 262.65 214.479 262.65C214.479 262.65 299.741 253.28 283.752 266.108Z" fill="black"/>
<path d="M308.751 239.531C308.756 252.465 304.268 264.983 296.082 274.871C287.895 284.759 276.539 291.378 264.021 293.558C251.504 295.737 238.633 293.336 227.686 286.78C216.74 280.223 208.424 269.934 204.21 257.733C199.996 245.533 200.155 232.207 204.661 220.114C209.166 208.022 217.726 197.943 228.826 191.66C239.927 185.378 252.851 183.298 265.313 185.788C277.774 188.278 288.969 195.177 296.916 205.266C304.574 214.983 308.749 227.071 308.751 239.531V239.531Z" fill="#FFCCD0"/>
<path opacity="0.1" d="M351.156 582.008H335.824L334.531 554.427L333.181 525.88C333.181 525.88 336.663 525.352 342.212 524.564L344.454 524.259H344.636C345.848 530.052 347.046 536 348.199 541.942C350.119 552.49 351.119 563.19 351.185 573.917C351.185 574.661 351.185 575.404 351.185 576.103C351.229 578.089 351.185 580.074 351.156 582.008Z" fill="black"/>
<path d="M348.214 582.007H155.931C156.763 580.082 157.318 578.914 157.318 578.914C157.318 578.914 172.701 510.368 180.521 481.367C180.523 481.343 180.523 481.318 180.521 481.293C181.498 477.354 182.677 473.469 184.055 469.656V469.656C184.144 469.396 184.259 469.147 184.398 468.912C188.267 462.502 193.115 455.594 186.333 445.726C179.55 435.859 181.952 392.439 181.952 392.439C181.952 392.439 190.188 355.43 198.905 335.695C200.228 332.638 202.106 329.863 204.44 327.515C205.198 326.759 206.008 326.058 206.863 325.418V325.418C207.514 324.92 208.191 324.461 208.893 324.042L209.032 323.953C212.694 321.838 216.761 320.552 220.955 320.183C223.934 319.866 226.941 319.951 229.899 320.436C244.034 322.548 255.35 326.08 264.345 330.103C288.724 341.011 296.105 355.631 296.252 355.936L296.31 356.062C297.288 358.39 311.599 392.417 316.753 408.293C318.089 412.428 318.819 415.335 318.527 416.131C317.067 420.072 329.669 469.41 329.669 469.41C329.669 469.41 335.51 493.206 341.351 521.098C341.606 522.258 341.847 523.419 342.081 524.593C343.125 529.657 344.162 534.818 345.162 539.971C347.1 550.592 348.099 561.367 348.148 572.169C348.255 575.536 348.277 578.815 348.214 582.007Z" fill="#ED3A46"/>
<path opacity="0.1" d="M219.808 303.214C219.808 303.214 206.542 298.009 206.703 305.906C206.863 313.803 209.937 317.58 208.966 318.733C207.995 319.885 209.448 326.794 209.448 326.794C209.448 326.794 227.372 326.794 235.608 330.571C243.844 334.349 274.202 341.919 278.079 344.224C281.956 346.529 296.332 356.865 296.332 356.865L297.624 337.293C297.624 337.293 282.766 324.793 258.388 318.383C234.009 311.973 219.808 303.214 219.808 303.214Z" fill="black"/>
<path d="M219.808 302.225C219.808 302.225 206.542 297.02 206.703 304.917C206.863 312.814 209.937 316.591 208.966 317.744C207.995 318.896 209.448 325.805 209.448 325.805C209.448 325.805 227.372 325.805 235.608 329.59C243.844 333.375 274.202 340.937 278.079 343.235C281.956 345.533 296.332 355.876 296.332 355.876L297.639 336.364C297.639 336.364 282.781 323.864 258.402 317.454C234.024 311.044 219.808 302.225 219.808 302.225Z" fill="#ED3A46"/>
<path opacity="0.1" d="M259.855 349.325C259.855 349.325 285.205 377.277 283.913 385.018C282.62 392.759 259.855 349.325 259.855 349.325Z" fill="black"/>
<path opacity="0.1" d="M218.677 450.299C218.677 450.299 200.095 467.737 194.619 468.726C189.144 469.715 198.818 473.002 205.111 470.377C211.405 467.752 224.824 460.844 224.824 460.844L218.677 450.299Z" fill="black"/>
<path d="M355.763 582.008H312.431C306.371 576.654 300.639 571.694 296.989 568.712C291.148 563.938 286.935 556.911 284.248 551.259C283.642 549.973 283.117 548.768 282.671 547.675C281.874 545.792 281.172 543.869 280.569 541.912L312.657 522.504C314.431 524.04 316.097 525.7 317.644 527.471L318.031 527.925C319.812 530.066 321.382 532.498 321.521 534.491C321.681 536.811 328.019 545.786 334.495 554.405C341.066 563.172 347.798 571.552 348.243 572.117C348.243 572.117 349.353 573.657 351.163 576.021C352.441 577.732 354.018 579.784 355.763 582.008Z" fill="#FFCCD0"/>
<path opacity="0.1" d="M296.916 205.266C295.375 208.805 293.995 212.479 293.791 216.42C293.214 227.797 294.149 253.236 281.781 258.947C275.655 261.758 269.099 255.586 262.381 255.437C257.548 255.333 253.116 258.456 250.167 262.36C247.217 266.264 245.384 270.897 243.245 275.314C241.298 279.323 239.055 283.176 236.535 286.84C235.782 287.961 234.953 289.027 234.053 290.03C226.511 286.789 219.796 281.837 214.418 275.552C209.04 269.267 205.141 261.815 203.019 253.763C200.897 245.711 200.608 237.272 202.174 229.089C203.739 220.906 207.118 213.195 212.052 206.543C216.987 199.892 223.348 194.475 230.649 190.707C237.95 186.938 246 184.916 254.185 184.796C262.369 184.675 270.473 186.459 277.878 190.012C285.283 193.564 291.795 198.792 296.916 205.295V205.266Z" fill="black"/>
<path d="M292.82 214.412C292.236 225.789 293.178 251.228 280.802 256.932C274.677 259.742 268.12 253.578 261.403 253.429C256.57 253.318 252.145 256.448 249.188 260.345C246.231 264.241 244.413 268.881 242.267 273.306C240.319 277.315 238.076 281.168 235.557 284.832C234.053 287.003 232.388 289.182 230.074 290.401C226.044 292.543 221.159 291.338 216.837 289.963C211.23 288.163 205.705 286.136 200.263 283.88C200.388 283.043 200.452 282.198 200.453 281.352C200.292 281.664 200.117 281.954 199.942 282.266L199.599 282.876C198.978 283.992 198.372 285.107 197.817 286.252C197.606 286.691 197.401 287.144 197.219 287.598C196.484 289.286 196.023 291.084 195.853 292.922C195.481 297.882 197.883 302.589 200.015 307.051C208.214 324.31 213.281 344.492 207.112 362.598C204.44 370.473 199.811 377.471 196.43 385.078C190.521 398.551 188.781 413.538 191.443 428.043C193.13 437.056 196.51 445.979 195.678 455.118C194.218 470.845 180.901 482.55 167.561 490.596C160.355 494.923 151.535 498.775 143.884 495.355C148.761 489.555 150.017 481.531 151.068 473.961C153.945 453.314 156.829 432.656 159.72 411.989C160.874 403.765 162.025 395.54 163.173 387.316C165.32 371.864 167.496 356.241 166.152 340.692C165.174 329.233 162.414 317.067 167.291 306.694C169.869 301.199 174.461 296.648 175.892 290.729C177.068 285.917 175.972 280.801 176.746 275.901C177.17 273.672 177.887 271.51 178.878 269.476C180.14 266.716 181.788 264.156 183.77 261.877C181.813 261.297 179.988 260.501 178.878 258.835C182.018 256.753 182.492 252.061 181.069 248.536C179.645 245.012 176.797 242.327 174.235 239.546C171.672 236.765 169.204 233.523 168.883 229.73C168.262 222.51 175.344 216.918 176.593 209.794C177.856 202.544 172.862 195.495 173.264 188.155C173.731 179.284 181.733 172.837 189.633 169.097C201.554 163.476 214.723 161.167 227.803 162.404C238.448 163.43 248.75 166.784 259.366 168.085C265.769 168.829 272.26 168.903 278.619 170.048C284.979 171.194 291.352 173.61 295.828 178.362C307.627 190.892 293.492 201.206 292.82 214.412Z" fill="#353146"/>
<path opacity="0.1" d="M282.949 551.267C279.225 549.623 272.45 550.605 260.819 546.998C249.188 543.392 246.947 527.092 246.947 527.092V527.04C246.808 526.668 245.728 524.244 238.412 515.752C230.329 506.375 212.858 459.015 212.858 459.015C212.858 459.015 197.365 442.068 197.854 435.821C198.343 429.575 195.101 412.955 195.423 394.365C195.744 375.775 230.3 363.446 230.3 363.446C296.836 351.437 281.167 429.56 279.393 435.479C277.619 441.399 286.826 457.386 286.826 457.386C285.526 464.346 292.156 475.121 292.156 475.121C292.156 475.121 293.762 484.654 294.09 488.276C294.109 488.443 294.145 488.608 294.2 488.766C295.266 492.18 303.954 495.273 307.488 497.154C311.204 499.132 323.156 516.399 323.156 516.399C325.734 529.077 286.658 552.932 282.949 551.267Z" fill="black"/>
<path d="M284.884 548.292C281.167 546.641 274.385 547.63 262.761 544.016C251.138 540.403 248.889 524.118 248.889 524.118V524.065C248.758 523.686 247.67 521.269 240.354 512.777C232.272 503.401 214.8 456.033 214.8 456.033C214.8 456.033 199.307 439.093 199.789 432.847C200.271 426.601 197.043 409.981 197.365 391.406C197.686 372.83 232.22 360.509 232.22 360.509C298.756 348.499 283.088 426.623 281.313 432.542C279.539 438.461 288.746 454.449 288.746 454.449C287.446 461.409 294.076 472.184 294.076 472.184C294.076 472.184 295.682 481.717 296.018 485.338C296.03 485.506 296.064 485.671 296.12 485.829C297.186 489.242 305.874 492.336 309.416 494.217C313.124 496.188 325.084 513.462 325.084 513.462C327.676 526.118 288.6 549.973 284.884 548.292Z" fill="#ED3A46"/>
<path opacity="0.1" d="M233.535 401.296C233.535 401.296 262.601 432.527 270.186 432.527C277.772 432.527 233.535 401.296 233.535 401.296Z" fill="black"/>
<path d="M284.884 548.292C281.167 546.641 274.385 547.63 262.761 544.017C251.138 540.403 248.889 524.118 248.889 524.118V524.065C256.592 518.86 276.1 504.159 283.788 498.783C289.199 495.013 293.616 489.473 296.2 485.799C297.266 489.213 305.955 492.306 309.496 494.187C313.205 496.158 325.164 513.432 325.164 513.432C327.676 526.118 288.6 549.973 284.884 548.292Z" fill="#ED3A46"/>
<g opacity="0.1">
<path opacity="0.1" d="M178.922 258.917C178.959 258.976 179.01 259.028 179.053 259.088C179.272 258.805 179.499 258.523 179.732 258.255C179.484 258.502 179.212 258.723 178.922 258.917V258.917Z" fill="black"/>
<path opacity="0.1" d="M195.861 293.004C196.167 288.877 198.336 285.241 200.365 281.612C199.037 281.091 197.708 280.563 196.394 280.013C196.519 279.179 196.582 278.336 196.584 277.492C194.532 281.21 192.298 284.869 191.984 289.055C191.611 294.023 194.013 298.722 196.145 303.184C204.352 320.436 209.412 340.617 203.242 358.732C200.563 366.599 195.941 373.604 192.561 381.211C186.653 394.682 184.917 409.667 187.581 424.169C189.253 433.189 192.641 442.105 191.809 451.244C190.348 466.971 177.038 478.676 163.692 486.714C158.238 490.001 151.864 493.012 145.767 492.797C145.203 493.722 144.574 494.604 143.884 495.437C151.543 498.879 160.355 495.005 167.561 490.663C180.915 482.632 194.254 470.957 195.715 455.2C196.547 446.061 193.159 437.145 191.48 428.125C188.815 413.624 190.546 398.641 196.445 385.167C199.803 377.567 204.476 370.555 207.126 362.688C213.296 344.573 208.229 324.392 200.03 307.14C197.905 302.649 195.488 297.971 195.861 293.004Z" fill="black"/>
<path opacity="0.1" d="M295.814 178.451C295.095 177.701 294.324 177.005 293.506 176.369C302.355 188.059 289.578 197.993 288.943 210.575C288.374 221.952 289.308 247.398 276.933 253.095C270.814 255.913 264.251 249.741 257.541 249.592C252.7 249.488 248.276 252.619 245.319 256.515C242.362 260.412 240.544 265.052 238.405 269.469C236.453 273.477 234.208 277.33 231.687 280.995C230.227 283.173 228.519 285.345 226.197 286.572C222.181 288.706 217.297 287.509 212.967 286.126C208.757 284.777 204.586 283.29 200.453 281.664C200.445 282.438 200.381 283.211 200.263 283.977C205.71 286.237 211.237 288.265 216.844 290.059C221.167 291.442 226.051 292.64 230.074 290.505C232.388 289.279 234.068 287.1 235.564 284.921C238.086 281.261 240.329 277.411 242.274 273.402C244.421 268.985 246.231 264.338 249.196 260.441C252.16 256.545 256.577 253.422 261.41 253.526C268.128 253.675 274.691 259.846 280.81 257.028C293.185 251.332 292.243 225.886 292.82 214.509C293.492 201.28 307.627 190.974 295.814 178.451Z" fill="black"/>
</g>
<path opacity="0.1" d="M199.606 282.884C198.986 283.999 198.38 285.114 197.825 286.26C197.613 286.698 197.409 287.152 197.226 287.605C193.4 283.679 184.084 274.347 178.885 271.454C180.149 268.695 181.797 266.136 183.777 263.855C183.777 263.855 196.167 270.525 199.606 282.884Z" fill="black"/>
<path d="M199.949 282.274C197.08 269.045 183.777 261.884 183.777 261.884C181.795 264.164 180.148 266.723 178.885 269.484C184.369 272.54 194.473 282.787 197.825 286.259L199.949 282.274Z" fill="#ED3A46"/>
<path d="M562 234H509V269H562V234Z" fill="#E70013"/>
<path fill-rule="evenodd" clip-rule="evenodd" d="M544.458 251.484C544.458 252.644 544.227 253.792 543.78 254.863C543.332 255.933 542.675 256.907 541.848 257.726C541.02 258.546 540.038 259.196 538.957 259.64C537.876 260.083 536.717 260.312 535.547 260.312C534.376 260.312 533.218 260.083 532.137 259.64C531.055 259.196 530.073 258.546 529.245 257.726C528.418 256.907 527.762 255.933 527.314 254.863C526.866 253.792 526.635 252.644 526.635 251.484C526.635 250.325 526.866 249.177 527.314 248.106C527.762 247.035 528.418 246.062 529.245 245.243C530.073 244.423 531.055 243.773 532.137 243.329C533.218 242.886 534.376 242.657 535.547 242.657C536.717 242.657 537.876 242.886 538.957 243.329C540.038 243.773 541.02 244.423 541.848 245.243C542.675 246.062 543.332 247.035 543.78 248.106C544.227 249.177 544.458 250.325 544.458 251.484V251.484Z" fill="white"/>
<path fill-rule="evenodd" clip-rule="evenodd" d="M535.547 257.339C532.284 257.339 529.637 254.716 529.637 251.484C529.637 248.253 532.284 245.63 535.547 245.63C536.362 245.63 537.29 245.816 537.921 246.275C533.599 246.436 532.506 250.068 532.506 251.531C532.506 252.994 533.205 256.258 537.921 256.74C537.384 257.083 536.362 257.339 535.547 257.339V257.339Z" fill="#E70013"/>
<path fill-rule="evenodd" clip-rule="evenodd" d="M540.753 253.947L538.07 252.977L536.295 255.194L536.396 252.366L533.72 251.379L536.466 250.601L536.587 247.774L538.182 250.121L540.934 249.361L539.174 251.59L540.753 253.947Z" fill="#E70013"/>
</g>
<defs>
<linearGradient id="paint0_linear" x1="533.006" y1="70.9477" x2="533.006" y2="57.2802" gradientUnits="userSpaceOnUse">
<stop stop-color="#808080" stop-opacity="0.25"/>
<stop offset="0.54" stop-color="#808080" stop-opacity="0.12"/>
<stop offset="1" stop-color="#808080" stop-opacity="0.1"/>
</linearGradient>
<linearGradient id="paint1_linear" x1="334957" y1="489669" x2="334957" y2="34140.8" gradientUnits="userSpaceOnUse">
<stop stop-color="#808080" stop-opacity="0.25"/>
<stop offset="0.54" stop-color="#808080" stop-opacity="0.12"/>
<stop offset="1" stop-color="#808080" stop-opacity="0.1"/>
</linearGradient>
<clipPath id="clip0">
<rect width="793" height="582" fill="white"/>
</clipPath>
</defs>
</svg>
