<svg width="835" height="591" viewBox="0 0 835 591" fill="none" xmlns="http://www.w3.org/2000/svg">
<g clip-path="url(#clip0)">
<path opacity="0.1" d="M277.603 590.668C318.267 590.668 351.231 585.377 351.231 578.851C351.231 572.325 318.267 567.035 277.603 567.035C236.939 567.035 203.974 572.325 203.974 578.851C203.974 585.377 236.939 590.668 277.603 590.668Z" fill="#6C63FF"/>
<path opacity="0.1" d="M677.837 591C728.579 591 769.714 585.71 769.714 579.184C769.714 572.658 728.579 567.367 677.837 567.367C627.095 567.367 585.96 572.658 585.96 579.184C585.96 585.71 627.095 591 677.837 591Z" fill="#6C63FF"/>
<path opacity="0.1" d="M10.4579 255.354H87.1467V359.799H16.0723C15.8834 360.871 15.702 361.951 15.5055 363.031H87.1467V447.263C87.0183 447.225 86.9049 447.18 86.784 447.135C84.7589 446.334 82.7489 445.489 80.739 444.583L79.4544 444.001C77.4394 443.05 75.4244 442.043 73.4094 440.981C72.7066 440.611 72.0039 440.226 71.3087 439.833C60.1223 433.572 49.96 425.638 41.1743 416.306C40.9173 416.057 40.6755 415.793 40.4186 415.551C39.1945 414.222 37.9931 412.878 36.8294 411.504L35.5448 409.994C34.1696 408.311 32.8397 406.581 31.5475 404.83C31.3586 404.573 31.1773 404.316 30.9808 404.075C25.7258 396.794 21.3624 388.911 17.984 380.593C17.8782 380.344 17.7875 380.072 17.6893 379.838C16.6516 377.17 15.7322 374.477 14.9313 371.759C14.5837 370.619 14.2512 369.494 13.9641 368.308C13.8583 367.961 13.7676 367.621 13.6845 367.282C9.3925 350.542 8.88623 333.154 8.88623 315.886C8.88623 313.87 8.88623 311.847 8.88623 309.846C8.88623 302.862 8.96935 295.832 9.09025 288.81C9.09025 286.991 9.16581 285.179 9.20359 283.351C9.30938 278.715 9.46051 274.079 9.65697 269.444C9.70231 268.152 9.76276 266.869 9.83077 265.585C9.83077 264.845 9.86855 264.105 9.94411 263.365C10.1255 260.678 10.2766 258.012 10.4579 255.354Z" fill="#6C63FF"/>
<path opacity="0.1" d="M87.1467 139.063H45.0808C51.9188 128.369 59.3902 118.092 67.455 108.288C73.704 100.617 80.3007 93.1417 87.1467 85.9387V139.063Z" fill="#4C0AE0"/>
<path opacity="0.1" d="M87.1467 142.295V252.123H10.6997C10.6997 251.806 10.7526 251.481 10.7753 251.164C10.8433 250.296 10.9113 249.427 10.9868 248.567C11.07 247.555 11.1606 246.536 11.2589 245.547C11.3571 244.557 11.4629 243.349 11.5762 242.255C11.6896 241.16 11.7954 240.05 11.9238 238.955C12.0523 237.86 12.1656 236.765 12.3016 235.678C12.4377 234.591 12.5586 233.489 12.7021 232.401C12.8155 231.495 12.9364 230.597 13.0573 229.691C13.2311 228.415 13.4124 227.131 13.6089 225.863C13.6089 225.674 13.6618 225.478 13.692 225.296C15.0712 216.011 16.9504 206.806 19.3214 197.722C21.8034 188.194 24.9727 178.857 28.8046 169.786C32.8771 160.296 37.6455 151.12 43.0708 142.333L87.1467 142.295Z" fill="#4C0AE0"/>
<path opacity="0.1" d="M105.456 255.347V359.799H269.253V255.347H105.456ZM105.456 363.023V452.722C106.393 452.918 107.322 453.107 108.244 453.266C109.498 453.507 110.745 453.726 112.022 453.915C112.264 453.953 112.513 453.99 112.778 454.013C113.276 454.096 113.79 454.164 114.289 454.232C115.551 454.406 116.805 454.549 118.067 454.662C118.664 454.723 119.268 454.776 119.873 454.821L121.331 454.934C122.125 454.995 122.911 455.04 123.689 455.063C124.172 455.063 124.656 455.108 125.155 455.123C125.533 455.123 125.91 455.123 126.303 455.123C126.696 455.123 127.255 455.123 127.732 455.123C128.381 455.123 129.031 455.123 129.673 455.123H130.542C131.192 455.123 131.842 455.123 132.484 455.063H132.53C132.976 455.063 133.429 455.063 133.882 455.002C134.008 455.01 134.134 455.01 134.26 455.002C134.638 455.002 135.016 455.002 135.378 454.949H135.643L138.174 454.753C139.005 454.677 139.844 454.579 140.691 454.489L142.413 454.285C149.422 453.303 156.354 451.83 163.155 449.875C178.434 445.617 193.381 439.66 208.652 435.296C228.396 429.671 250.211 426.907 269.291 433.785V363.023H105.456ZM269.253 139.063V0.00746499C251.32 -0.186674 233.436 1.90917 216.034 6.2441C174.558 16.6561 137.343 39.2393 105.456 68.0819V139.056H113.677V142.28H105.456V252.123H269.253V142.287H147.431V139.063H269.253ZM479.643 92.0921C469.382 91.7297 459.181 88.483 449.954 83.4696C432.31 73.8806 418.218 59.0742 402.471 46.5783C369.752 20.5521 329.175 4.84727 287.547 0.951265V139.063H521.376L521.958 138.452L479.643 92.0921ZM500.944 88.3169L523.53 113.082V81.8236C515.966 82.7599 509.339 84.9872 500.974 88.2867L500.944 88.3169ZM523.53 474.996V363.023H475.404C475.275 362.547 475.147 362.064 474.996 361.581C475.139 362.064 475.26 362.547 475.396 363.023H287.577V444.001C289.361 445.322 291.121 446.712 292.867 448.124C294.748 449.634 296.607 451.227 298.473 452.79L300.355 454.345C301.254 455.1 302.161 455.855 303.075 456.565C304.889 458.035 306.72 459.485 308.569 460.914C309.483 461.669 310.42 462.349 311.349 463.058C326.105 474.331 341.67 484.504 357.919 493.494C361.561 495.507 365.236 497.473 368.943 499.391C371.414 500.652 373.9 501.905 376.394 503.121C380.142 504.948 383.92 506.71 387.728 508.406C422.84 524.155 459.967 534.962 498.05 540.518C506.508 541.766 514.999 542.748 523.522 543.463V474.988H524.278L523.53 474.996ZM287.577 142.287V252.123H523.56V142.287H287.577ZM287.577 255.347V359.799H523.56V255.347H287.577ZM541.877 81.6877V116.555L570.704 84.9495C561.153 83.4092 551.544 82.3093 541.877 81.6499V81.6877ZM541.877 255.385V359.799H771.399V255.347L541.877 255.385ZM770.56 483.286L771.369 363.023H541.877V544.663C556.66 545.284 571.467 545.107 586.232 544.135V544.135H586.489C593.541 543.692 600.561 543.047 607.548 542.202H607.707C644.983 537.867 681.431 528.149 715.913 513.352L770.56 483.286ZM815.656 272.547C814.795 270.516 813.895 268.5 812.981 266.506C811.273 262.731 809.467 259.062 807.609 255.392H789.7V359.799H834.977C834.955 330.232 827.466 300.03 815.679 272.509L815.656 272.547ZM789.7 363.061V466.501C802.455 454.285 813.23 440.309 820.991 424.332C830.323 405.094 834.592 384.262 834.94 363.046L789.7 363.061ZM789.7 224.949V252.13H805.931C801.021 242.773 795.61 233.687 789.723 224.911L789.7 224.949ZM634.041 102.179C632.847 101.726 631.653 101.266 630.451 100.82C617.78 96.1447 604.832 92.2563 591.68 89.1777L547.566 137.553L546.72 138.452L547.287 139.071H704.291C682.425 124.031 658.851 111.634 634.063 102.142L634.041 102.179ZM708.893 142.325H545.096L541.877 145.27V252.123H570.092H570.137H771.429V200.365C753.22 178.36 732.203 158.834 708.916 142.287L708.893 142.325Z" fill="#4C0AE0"/>
<path opacity="0.1" d="M87.1467 197.692V252.123H10.6997C10.6997 251.806 10.7526 251.481 10.7753 251.164C10.8433 250.296 10.9113 249.427 10.9868 248.567C11.07 247.555 11.1606 246.536 11.2589 245.547C11.3571 244.557 11.4629 243.349 11.5762 242.255C11.6896 241.16 11.7954 240.05 11.9238 238.955C12.0523 237.86 12.1656 236.765 12.3016 235.678C12.4377 234.591 12.5586 233.489 12.7021 232.401C12.8155 231.495 12.9364 230.597 13.0573 229.691C13.2311 228.415 13.4124 227.131 13.6089 225.863C13.6089 225.674 13.6618 225.478 13.692 225.296C15.0712 216.011 16.9504 206.806 19.3214 197.722L87.1467 197.692Z" fill="#6C63FF"/>
<path opacity="0.1" d="M10.4579 255.354H87.1467V359.799H16.0723C15.8834 360.871 15.702 361.951 15.5055 363.031H87.1467V447.263C87.0183 447.225 86.9049 447.18 86.784 447.135C84.7589 446.334 82.7489 445.489 80.739 444.583L79.4544 444.001C77.4394 443.05 75.4244 442.043 73.4094 440.981C72.7066 440.611 72.0039 440.226 71.3087 439.833C60.1223 433.572 49.96 425.638 41.1743 416.306C40.9173 416.057 40.6755 415.793 40.4186 415.551C39.1945 414.222 37.9931 412.878 36.8294 411.504L35.5448 409.994C34.1696 408.311 32.8397 406.581 31.5475 404.83C31.3586 404.573 31.1773 404.316 30.9808 404.075C25.7258 396.794 21.3624 388.911 17.984 380.593C17.8782 380.344 17.7875 380.072 17.6893 379.838C16.6516 377.17 15.7322 374.477 14.9313 371.759C14.5837 370.619 14.2512 369.494 13.9641 368.308C13.8583 367.961 13.7676 367.621 13.6845 367.282C9.3925 350.542 8.88623 333.154 8.88623 315.886C8.88623 313.87 8.88623 311.847 8.88623 309.846C8.88623 302.862 8.96935 295.832 9.09025 288.81C9.09025 286.991 9.16581 285.179 9.20359 283.351C9.30938 278.715 9.46051 274.079 9.65697 269.444C9.70231 268.152 9.76276 266.869 9.83077 265.585C9.83077 264.845 9.86855 264.105 9.94411 263.365C10.1255 260.678 10.2766 258.012 10.4579 255.354Z" fill="#4C0AE0"/>
<path opacity="0.1" d="M163.118 158.015V252.123H105.456V158.015H113.677V126.152H147.423V158.015H163.118Z" fill="#6C63FF"/>
<path opacity="0.1" d="M163.118 255.347H105.463V359.792H163.118V255.347Z" fill="#6C63FF"/>
<path opacity="0.1" d="M105.456 363.031H163.118V449.86C156.316 451.813 149.385 453.284 142.376 454.262L140.653 454.474C139.806 454.572 138.968 454.655 138.137 454.738C137.305 454.821 136.444 454.881 135.605 454.934H135.341C134.978 454.934 134.585 454.98 134.23 454.987H133.845C133.391 454.987 132.938 455.032 132.484 455.047C131.842 455.085 131.2 455.093 130.542 455.1C130.263 455.1 129.998 455.1 129.719 455.1C129.069 455.1 128.427 455.1 127.777 455.1H126.349C125.963 455.1 125.593 455.1 125.193 455.1L123.734 455.047C122.979 455.047 122.163 454.964 121.377 454.912L119.926 454.806L118.12 454.64C116.85 454.527 115.589 454.383 114.342 454.209L112.83 453.998L112.075 453.892C110.813 453.696 109.566 453.485 108.297 453.243C107.367 453.084 106.445 452.888 105.508 452.699L105.456 363.031Z" fill="#6C63FF"/>
<path opacity="0.1" d="M523.56 146.901H476.016V252.115H523.56V146.901Z" fill="#6C63FF"/>
<path opacity="0.1" d="M523.568 255.347V359.799H287.577V314.746H413.276V341.323H476.016V255.347H523.568Z" fill="#6C63FF"/>
<path opacity="0.1" d="M524.316 475.018H523.56V543.538C515.047 542.818 506.558 541.839 498.095 540.601C459.994 535.027 422.85 524.197 387.728 508.421C377.588 503.861 367.654 498.883 357.926 493.487C341.677 484.492 326.11 474.319 311.349 463.051C307.642 460.212 303.982 457.308 300.37 454.338C297.869 452.277 295.383 450.162 292.867 448.109C291.121 446.697 289.36 445.308 287.577 443.979V363.031H475.389C475.26 362.548 475.132 362.064 474.996 361.589C475.139 362.064 475.275 362.548 475.404 363.031H523.56V474.973C523.817 474.981 524.066 475.003 524.316 475.018Z" fill="#6C63FF"/>
<path opacity="0.1" d="M647.559 139.063H616.578V129.444H630.466V100.79C631.67 101.228 632.869 101.679 634.063 102.142V129.444H647.559V139.063Z" fill="#6C63FF"/>
<path opacity="0.1" d="M722.2 252.123H570.107C570.107 252.123 570.107 252.123 570.16 252.161L570.092 252.123H541.876V146.908H549.871V224.677H586.406V178.62H616.585V142.295H647.566V178.65H677.746V224.707H722.2V252.123Z" fill="#6C63FF"/>
<path opacity="0.1" d="M541.876 255.347V359.799H722.2V255.347H541.876ZM771.149 482.75L771.399 400.073H722.2V363.076H541.876V544.663C556.66 545.284 571.467 545.107 586.232 544.135V544.135H586.489C593.541 543.692 600.561 543.047 607.548 542.202H607.707C644.982 537.867 681.431 528.149 715.913 513.352" fill="#6C63FF"/>
<path opacity="0.1" d="M792.904 363.031H834.97C834.599 384.24 830.338 405.071 821.013 424.31C813.253 440.294 802.47 454.27 789.73 466.479V400.035H792.904V363.031Z" fill="#6C63FF"/>
<path opacity="0.1" d="M834.992 359.799H792.904V272.509H815.679C827.466 300.03 834.955 330.232 834.992 359.799Z" fill="#6C63FF"/>
<path opacity="0.1" d="M523.568 176.151H498.095V209.139H523.568V176.151Z" fill="#6C63FF"/>
<path opacity="0.1" d="M523.568 244.527H498.095V252.123H523.568V244.527Z" fill="#6C63FF"/>
<path opacity="0.1" d="M523.568 255.347H498.095V277.507H523.568V255.347Z" fill="#6C63FF"/>
<path opacity="0.1" d="M523.568 312.904H498.095V345.891H523.568V312.904Z" fill="#6C63FF"/>
<path opacity="0.1" d="M523.568 381.28H498.095V414.268H523.568V381.28Z" fill="#6C63FF"/>
<path opacity="0.1" d="M523.56 474.973C523.817 474.973 524.066 474.973 524.316 475.018H523.56V482.682H498.095V449.656H523.56V474.973Z" fill="#6C63FF"/>
<path opacity="0.1" d="M523.56 518.018V543.5C515.047 542.781 506.558 541.802 498.095 540.563V518.018H523.56Z" fill="#6C63FF"/>
<path opacity="0.1" d="M396.743 357.375H287.577V359.799H396.743V357.375Z" fill="#6C63FF"/>
<path opacity="0.1" d="M396.743 363.023H287.577V372.31H396.743V363.023Z" fill="#6C63FF"/>
<path opacity="0.1" d="M396.743 402.753H287.577V417.688H396.743V402.753Z" fill="#6C63FF"/>
<path opacity="0.1" d="M396.735 448.131V463.066H311.349C307.642 460.237 303.979 457.333 300.362 454.353C297.861 452.292 295.383 450.178 292.859 448.131H396.735Z" fill="#6C63FF"/>
<path opacity="0.1" d="M396.735 493.502V508.421H387.721C377.59 503.856 367.659 498.875 357.926 493.479L396.735 493.502Z" fill="#6C63FF"/>
<path opacity="0.1" d="M607.73 265.472H586.24V286.945H607.73V265.472Z" fill="#6C63FF"/>
<path opacity="0.1" d="M142.428 165.422H120.938V186.895H142.428V165.422Z" fill="#6C63FF"/>
<path opacity="0.1" d="M142.428 215.3H120.938V236.773H142.428V215.3Z" fill="#6C63FF"/>
<path opacity="0.1" d="M142.428 265.178H120.938V286.651H142.428V265.178Z" fill="#6C63FF"/>
<path opacity="0.1" d="M142.428 315.048H120.938V336.521H142.428V315.048Z" fill="#6C63FF"/>
<path opacity="0.1" d="M142.428 364.926H120.938V386.399H142.428V364.926Z" fill="#6C63FF"/>
<path opacity="0.1" d="M142.428 414.804H120.938V436.277H142.428V414.804Z" fill="#6C63FF"/>
<path opacity="0.1" d="M689.768 265.472H668.278V286.945H689.768V265.472Z" fill="#6C63FF"/>
<path opacity="0.1" d="M607.73 318.438H586.24V339.911H607.73V318.438Z" fill="#6C63FF"/>
<path opacity="0.1" d="M689.768 318.438H668.278V339.911H689.768V318.438Z" fill="#6C63FF"/>
<path opacity="0.1" d="M607.73 371.397H586.24V392.87H607.73V371.397Z" fill="#6C63FF"/>
<path opacity="0.1" d="M689.768 371.397H668.278V392.87H689.768V371.397Z" fill="#6C63FF"/>
<path opacity="0.1" d="M607.73 424.363H586.24V445.836H607.73V424.363Z" fill="#6C63FF"/>
<path opacity="0.1" d="M689.768 424.363H668.278V445.836H689.768V424.363Z" fill="#6C63FF"/>
<path opacity="0.1" d="M607.73 477.329H586.24V498.802H607.73V477.329Z" fill="#6C63FF"/>
<path opacity="0.1" d="M689.768 477.329H668.278V498.802H689.768V477.329Z" fill="#6C63FF"/>
<path opacity="0.1" d="M586.24 544.135V530.287H607.722V542.164L586.24 544.135Z" fill="#6C63FF"/>
<path opacity="0.1" d="M13.6013 225.281V237.566H87.1467V225.281H13.6013ZM20.9309 236.796H14.9312V226.036H20.9763L20.9309 236.796ZM28.253 236.796H22.2079V226.036H28.253V236.796ZM35.5599 236.796H29.5149V226.036H35.5599V236.796ZM42.8819 236.796H36.8445V226.036H42.8895L42.8819 236.796ZM50.1964 236.796H44.1514V226.036H50.1964V236.796ZM57.5185 236.796H51.4734V226.036H57.5185V236.796ZM64.8405 236.796H58.7955V226.036H64.8405V236.796ZM72.155 236.796H66.11V226.036H72.155V236.796ZM79.4695 236.796H73.4244V226.036H79.4695V236.796ZM86.784 236.796H80.7389V226.036H86.784V236.796Z" fill="#6C63FF"/>
<path opacity="0.1" d="M13.6013 261.025V273.309H87.1467V261.025H13.6013ZM20.9309 272.532H14.9312V261.803H20.9763L20.9309 272.532ZM28.253 272.532H22.2079V261.803H28.253V272.532ZM35.5599 272.532H29.5149V261.803H35.5599V272.532ZM42.8819 272.532H36.8445V261.803H42.8895L42.8819 272.532ZM50.1964 272.532H44.1514V261.803H50.1964V272.532ZM57.5185 272.532H51.4734V261.803H57.5185V272.532ZM64.8405 272.532H58.7955V261.803H64.8405V272.532ZM72.155 272.532H66.11V261.803H72.155V272.532ZM79.4695 272.532H73.4244V261.803H79.4695V272.532ZM86.784 272.532H80.7389V261.803H86.784V272.532Z" fill="#6C63FF"/>
<path opacity="0.1" d="M13.6013 296.784V309.091H87.1467V296.784H13.6013ZM20.9309 308.29H14.9312V297.554H20.9763L20.9309 308.29ZM28.253 308.29H22.2079V297.554H28.253V308.29ZM35.5599 308.29H29.5149V297.554H35.5599V308.29ZM42.8819 308.29H36.8445V297.554H42.8895L42.8819 308.29ZM50.1964 308.29H44.1514V297.554H50.1964V308.29ZM57.5185 308.29H51.4734V297.554H57.5185V308.29ZM64.8405 308.29H58.7955V297.554H64.8405V308.29ZM72.155 308.29H66.11V297.554H72.155V308.29ZM79.4695 308.29H73.4244V297.554H79.4695V308.29ZM86.784 308.29H80.7389V297.554H86.784V308.29Z" fill="#6C63FF"/>
<path opacity="0.1" d="M13.6013 332.542V344.812H87.1467V332.542H13.6013ZM20.9309 344.049H14.9312V333.305H20.9763L20.9309 344.049ZM28.253 344.049H22.2079V333.305H28.253V344.049ZM35.5599 344.049H29.5149V333.305H35.5599V344.049ZM42.8819 344.049H36.8445V333.305H42.8895L42.8819 344.049ZM50.1964 344.049H44.1514V333.305H50.1964V344.049ZM57.5185 344.049H51.4734V333.305H57.5185V344.049ZM64.8405 344.049H58.7955V333.305H64.8405V344.049ZM72.155 344.049H66.11V333.305H72.155V344.049ZM79.4695 344.049H73.4244V333.305H79.4695V344.049ZM86.784 344.049H80.7389V333.305H86.784V344.049Z" fill="#6C63FF"/>
<path opacity="0.1" d="M13.9187 368.293C14.2134 369.449 14.5459 370.604 14.8935 371.744V369.063H20.9385V379.8H17.7044C17.8026 380.049 17.9009 380.321 17.9991 380.555H87.1467V368.293H13.9187ZM28.2756 379.8H22.2306V369.063H28.2756V379.8ZM35.5826 379.8H29.5375V369.063H35.5826V379.8ZM42.9046 379.8H36.8445V369.063H42.8895L42.9046 379.8ZM50.2191 379.8H44.1741V369.063H50.2191V379.8ZM57.5411 379.8H51.4961V369.063H57.5411V379.8ZM64.8632 379.8H58.8182V369.063H64.8632V379.8ZM72.1777 379.8H66.1326V369.063H72.1777V379.8ZM79.4922 379.8H73.4471V369.063H79.4922V379.8ZM86.8066 379.8H80.7616V369.063H86.8066V379.8Z" fill="#6C63FF"/>
<path opacity="0.1" d="M30.9958 404.052C31.1848 404.294 31.3661 404.566 31.5626 404.807H35.5598V409.964C35.9906 410.477 36.4137 410.991 36.852 411.474V404.777H42.897V415.551H40.4488C40.6906 415.801 40.9248 416.065 41.2044 416.306H87.1693V404.052H30.9958ZM50.1964 415.551H44.1513V404.822H50.1964V415.551ZM57.5184 415.551H51.4734V404.822H57.5184V415.551ZM64.8405 415.551H58.7954V404.822H64.8405V415.551ZM72.1549 415.551H66.1099V404.822H72.1549V415.551ZM79.4694 415.551H73.4244V404.822H79.4694V415.551ZM86.7839 415.551H80.7389V404.822H86.7839V415.551Z" fill="#6C63FF"/>
<path opacity="0.1" d="M71.3389 439.803C72.0265 440.196 72.7292 440.558 73.4395 440.951V440.573H79.4845V443.971L80.7691 444.568V440.573H86.8142V447.104C86.9301 447.162 87.0516 447.208 87.1768 447.24V439.803H71.3389Z" fill="#6C63FF"/>
<path opacity="0.1" d="M570.107 252.123H570.152H570.107ZM523.56 474.965H524.316H523.56ZM474.996 361.581C475.139 362.064 475.26 362.548 475.396 363.023C475.275 362.548 475.147 362.064 474.996 361.581ZM570.107 252.1H570.152H570.107ZM113.707 139.041V142.265H147.461V139.041H113.707ZM523.56 474.965H524.316H523.56ZM474.996 361.581C475.139 362.064 475.26 362.548 475.396 363.023C475.275 362.548 475.147 362.064 474.996 361.581ZM570.107 252.1H570.152H570.107ZM523.56 474.943H524.316H523.56ZM474.996 361.581C475.139 362.064 475.26 362.548 475.396 363.023C475.275 362.548 475.147 362.064 474.996 361.581Z" fill="#6C63FF"/>
<path d="M348.798 286.666C348.798 286.666 345.821 286.251 345.821 281.917C345.821 277.583 343.69 269.489 343.69 269.489C343.69 269.451 341.846 255.392 339.3 253.157C336.754 250.922 333.482 237.8 333.482 237.8C333.482 237.8 332.923 230.68 331.782 229.147C330.641 227.614 329.099 223.862 326.825 218.509C324.55 213.155 315.067 209.448 315.067 209.448C315.067 209.448 297.922 199.512 293.063 196.273C292.621 196.006 292.209 195.695 291.831 195.344C290.985 194.234 287.298 194.211 287.298 194.211C286.912 191.78 286.542 188.986 286.421 186.457C286.421 186.185 286.421 185.913 286.383 185.642C291.801 182.442 295.882 177.396 297.876 171.432C297.967 171.145 298.043 170.843 298.126 170.556C298.45 170.449 298.749 170.276 299.003 170.047C299.257 169.818 299.46 169.539 299.599 169.227C300.038 168.253 300.045 167.113 300.589 166.207C301.224 165.135 302.433 164.561 303.385 163.753C305.788 161.714 306.407 158.279 306.294 155.153C306.219 152.624 305.811 150.072 305.969 147.557L306.015 146.923C306.06 146.546 306.113 146.168 306.181 145.806C306.551 143.933 307.36 142.166 307.813 140.309C308.266 138.452 308.312 136.36 307.254 134.76C305.705 132.411 302.478 131.943 299.645 131.702C296.433 131.43 293.562 131.785 291.506 129.119C290.545 127.726 289.462 126.42 288.272 125.216C287.849 124.823 283.739 122.316 283.739 122.15C279.727 120.294 275.179 119.945 270.931 121.169C268.8 121.788 266.79 122.8 264.629 123.306C259.967 124.408 254.602 123.215 250.642 125.88C248.436 127.39 247.113 129.791 245.874 132.132C244.867 134.06 243.844 135.985 242.806 137.908C241.136 141.072 239.436 144.288 238.733 147.792C238.586 148.554 238.495 149.326 238.461 150.102V150.14C238.461 150.419 238.461 150.698 238.461 150.978V151.333C238.461 151.597 238.461 151.854 238.507 152.088C238.552 152.322 238.544 152.397 238.567 152.556C238.59 152.714 238.628 153.069 238.673 153.311C238.718 153.552 238.809 153.975 238.9 154.308C238.937 154.451 238.99 154.587 239.036 154.723C239.111 154.979 239.202 155.229 239.3 155.478C239.353 155.606 239.406 155.742 239.466 155.87C239.58 156.135 239.716 156.391 239.852 156.625C239.912 156.731 239.958 156.829 240.018 156.927C240.229 157.279 240.461 157.617 240.713 157.939C242.33 159.955 244.71 161.239 246.471 163.126C246.471 163.202 246.471 163.277 246.471 163.345C246.471 163.557 246.471 163.761 246.471 163.972C246.564 168.182 247.686 172.305 249.738 175.983C251.789 179.661 254.709 182.782 258.244 185.075C258.244 185.362 258.282 185.657 258.297 185.944C258.444 188.185 258.416 190.434 258.213 192.671C257.906 192.309 257.521 192.021 257.086 191.827C256.652 191.634 256.18 191.54 255.705 191.554C255.38 191.538 255.055 191.566 254.738 191.637L254.67 191.584V191.652C253.007 192.06 250.959 193.789 249.002 198.704C249.002 198.704 243.048 205.409 238.514 205.129C233.98 204.85 222.502 212.106 222.502 212.106C222.502 212.106 211.304 219.369 208.901 226.769C207.558 230.965 205.948 235.07 204.08 239.061L190.237 267.564L187.683 290.177C187.683 290.177 189.096 300.234 188.817 301.767C188.537 303.3 194.627 317.124 194.627 317.124C194.627 317.124 214.75 352.453 222.971 354.265L223.56 353.849C223.912 354.033 224.285 354.173 224.671 354.265L226.364 353.072C226.465 354.401 226.422 355.738 226.235 357.058C225.102 360.547 226.658 383.311 228.638 387.773C230.618 392.236 229.915 450.744 229.915 450.744L229.636 455.908C229.636 455.908 229.636 456.074 229.704 456.361L229.636 457.584L229.84 457.69C230.051 459.328 229.983 460.99 229.636 462.605C228.925 464.871 228.638 471.273 228.638 471.273C228.638 471.273 222.979 507.425 225.661 514.688C228.343 521.952 230.626 529.91 230.626 529.91C230.626 529.91 233.459 538.97 230.762 540.518C228.064 542.066 220.394 544.663 221.974 548.438C223.409 551.927 228.857 561.274 229.666 562.641L229.598 563.358L228.487 575.386C228.667 576.974 229.098 578.523 229.764 579.976C230.981 582.596 233.346 585.315 237.842 585.02C238.597 584.967 239.474 584.877 240.32 584.763C248.549 583.661 258.682 579.991 258.682 579.991C258.156 579.658 257.674 579.259 257.246 578.806V578.806C256.842 578.415 256.521 577.945 256.304 577.426C256.087 576.906 255.979 576.349 255.984 575.786C256.105 573.596 252.002 563.162 250.982 560.594C250.823 560.225 250.74 560.013 250.74 560.013C250.74 560.013 260.095 550.243 258.538 541.583C258.538 541.583 248.186 535.542 251.594 532.228C255.002 528.913 261.092 519.392 261.092 519.392C261.092 519.392 261.372 483.792 261.092 478.476C260.801 474.787 260.976 471.076 261.614 467.43C261.727 466.879 261.863 466.343 262.007 465.814C266.72 466.517 271.478 466.878 276.243 466.894C277.981 466.894 279.749 466.894 281.532 466.788C281.532 467.292 281.555 467.835 281.6 468.419C281.993 477.238 282.726 492.701 283.323 498.447C284.169 506.685 288.847 528.883 288.847 528.883C288.847 528.883 279.923 534.606 290.403 548.71C290.403 548.71 290.403 553.822 289.708 554.562C288.966 556.981 288.368 559.441 287.917 561.931C287.479 564.589 287.298 567.277 288.008 568.673C289.708 572.011 299.909 571.739 299.909 571.739L300.158 571.694C302.084 571.495 304.03 571.68 305.884 572.239C307.738 572.797 309.462 573.718 310.956 574.948C314.833 578.059 329.545 576.692 337.509 575.703C340.63 575.31 342.715 574.948 342.715 574.948C342.817 574.595 342.852 574.226 342.821 573.861C342.738 571.905 341.204 567.616 330.807 563.788C330.807 563.788 321.029 557.219 321.165 551.496H320.961H319.827C320.651 551.451 321.18 551.496 321.18 551.496C321.18 551.496 317.349 537.528 318.913 536.395C320.477 535.263 315.792 519.785 315.792 519.785C315.792 519.785 313.11 493.811 312.966 491.992C312.972 490.43 313.209 488.878 313.669 487.386L312.966 473.146C312.966 473.146 312.83 468.412 312.966 466.871C312.943 465.534 312.835 464.2 312.641 462.877C312.573 462.349 312.505 461.798 312.43 461.254C316.095 460.325 318.475 459.464 318.475 459.464L318.052 409.896C321.165 403.856 321.739 390.605 321.724 381.205C321.724 375.164 321.452 370.694 321.452 370.694L325.706 363.756C325.706 363.756 326.689 355.45 325.132 353.63C324.444 352.807 324.754 351.954 325.321 351.252C325.615 351.019 325.926 350.807 326.25 350.618C326.25 350.618 326.205 350.55 326.152 350.452C326.449 350.204 326.765 349.979 327.097 349.78C327.097 349.78 325.585 347.439 326.938 346.45C328.207 347.311 329.341 347.96 330.202 348.489C330.142 349.04 330.081 349.357 330.081 349.357L330.444 348.602C331.275 349.07 331.782 349.357 331.782 349.357C331.782 349.357 338.446 336.091 338.303 334.135C338.159 332.18 342.836 323.942 342.836 323.942C342.836 323.942 343.403 319.616 345.957 317.804C348.511 315.992 347.937 302.862 347.937 302.862C347.937 302.862 348.647 296.021 350.347 293.227C352.047 290.434 348.798 286.666 348.798 286.666ZM221.278 280.845L221.407 284.008C220.651 282.793 220.107 281.917 220.107 281.917L221.278 280.845Z" fill="url(#paint0_linear)"/>
<path d="M332.144 343.626L330.512 350.573C330.512 350.573 317.44 343.906 315.082 335.434C312.724 326.963 319.026 323.746 319.026 323.746L331.207 328.903L332.144 343.626Z" fill="white"/>
<path opacity="0.1" d="M332.144 343.626L330.512 350.573C330.512 350.573 317.44 343.906 315.082 335.434C312.724 326.963 319.026 323.746 319.026 323.746L331.207 328.903L332.144 343.626Z" fill="black"/>
<path d="M258.78 580.037C258.78 580.037 246.69 584.476 238.378 585.035C233.965 585.33 231.646 582.627 230.452 580.022C229.799 578.574 229.379 577.032 229.205 575.454L230.285 563.486L230.86 557.114L248.519 552.531L251.02 560.172L251.254 560.753C252.259 563.305 256.287 573.687 256.166 575.854C256.161 576.409 256.268 576.959 256.481 577.471C256.694 577.984 257.008 578.448 257.405 578.836C257.81 579.293 258.272 579.697 258.78 580.037V580.037Z" fill="white"/>
<path d="M341.363 573.951C341.393 574.315 341.357 574.68 341.257 575.031C341.257 575.031 315.399 579.342 310.11 575.031C308.619 573.771 306.88 572.837 305.007 572.289C303.133 571.74 301.165 571.589 299.229 571.845C299.229 571.845 289.224 572.116 287.555 568.824C286.859 567.443 287.041 564.762 287.471 562.12C287.911 559.644 288.496 557.195 289.224 554.788L289.625 554.471L292.005 552.561L319.873 551.738H320.084C319.948 557.431 329.545 563.962 329.545 563.962C339.738 567.737 341.242 572.003 341.363 573.951Z" fill="white"/>
<path opacity="0.1" d="M341.363 573.951C341.389 574.315 341.351 574.681 341.25 575.031C341.25 575.031 315.399 579.342 310.11 575.031C308.62 573.772 306.883 572.839 305.01 572.29C303.138 571.742 301.171 571.59 299.237 571.845C299.237 571.845 289.224 572.116 287.562 568.824C286.867 567.435 287.041 564.762 287.471 562.12C291.325 562.505 297.408 563.464 299.796 565.751C303.408 569.232 309.528 572.705 313.284 572.977C316.223 573.166 333.807 573.725 341.363 573.951Z" fill="black"/>
<path opacity="0.1" d="M258.78 580.037C258.78 580.037 246.69 584.476 238.378 585.035C233.965 585.33 231.646 582.627 230.459 580.014C233.535 581.049 237.804 582.136 240.048 581.139C242.708 579.961 252.138 579.199 257.428 578.874C257.83 579.314 258.284 579.705 258.78 580.037V580.037Z" fill="black"/>
<path d="M276.719 222.261C266.745 218.388 253.914 205.59 257.118 199.61C257.829 198.101 258.252 196.472 258.365 194.808C258.571 192.549 258.601 190.277 258.455 188.013C258.231 184.305 257.784 180.613 257.118 176.959C257.118 176.959 288.257 177.661 286.444 182.244C285.915 183.588 285.832 185.921 285.975 188.533C286.119 191.146 286.497 194.098 286.89 196.597C287.434 200.025 287.978 202.638 287.978 202.638C287.978 202.638 286.074 205.303 284.955 205.446C283.837 205.59 291.03 227.78 276.719 222.261Z" fill="#BC5466"/>
<path opacity="0.1" d="M251.231 560.753L250.997 561.01C241.688 549.76 230.429 563.781 230.429 563.781L230.263 563.486L230.837 557.114L248.496 552.531L250.997 560.172L251.231 560.753Z" fill="black"/>
<path opacity="0.1" d="M320.092 552.531C320.092 552.531 313.291 552.387 309.664 555.589C306.037 558.79 288.507 556.283 289.262 555.589C289.486 555.244 289.621 554.85 289.655 554.441L292.035 552.531L319.903 551.708C320.009 552.214 320.092 552.531 320.092 552.531Z" fill="black"/>
<path d="M262.815 464.183C262.309 465.435 261.924 466.732 261.667 468.057C261.037 471.685 260.861 475.378 261.145 479.05C261.425 484.335 261.145 519.754 261.145 519.754C261.145 519.754 255.168 529.2 251.836 532.53C248.504 535.859 258.637 541.839 258.637 541.839C260.148 550.447 250.99 560.172 250.99 560.172C241.68 548.922 230.421 562.95 230.421 562.95C230.421 562.95 224.301 552.38 222.775 548.604C221.248 544.829 228.752 542.217 231.389 540.684C234.026 539.151 231.26 530.114 231.26 530.114C231.26 530.114 229.031 522.193 226.386 514.967C223.742 507.742 229.303 471.772 229.303 471.772C229.303 471.772 229.59 465.384 230.278 463.157C230.625 461.549 230.694 459.895 230.482 458.264C230.437 457.713 230.384 457.252 230.346 456.943C230.308 456.633 230.278 456.49 230.278 456.49L230.384 456.308L234.162 449.271C234.162 449.271 264.629 459.751 262.815 464.183Z" fill="#1A0F54"/>
<path d="M320.092 551.7C320.092 551.7 313.291 551.557 309.664 554.72C306.037 557.884 288.507 555.415 289.262 554.72C290.018 554.026 289.957 548.884 289.957 548.884C279.673 534.855 288.446 529.162 288.446 529.162C288.446 529.162 283.852 507.077 283.021 498.885C282.439 493.162 281.721 477.782 281.336 469.001C281.17 465.225 281.071 462.628 281.071 462.628L289.474 460.937L290.554 460.718L310.82 456.656C310.82 456.656 311.38 460.431 311.757 463.519C311.946 464.838 312.052 466.166 312.075 467.498C311.939 469.008 312.075 473.735 312.075 473.735L312.762 487.907C312.313 489.393 312.081 490.937 312.075 492.49C312.211 494.295 314.848 520.132 314.848 520.132C314.848 520.132 319.435 535.55 317.87 536.66C316.306 537.77 320.092 551.7 320.092 551.7Z" fill="#1A0F54"/>
<path opacity="0.1" d="M286.444 182.244C285.915 183.588 285.832 185.921 285.975 188.533C281.804 191.043 277.009 192.326 272.141 192.236C267.273 192.145 262.53 190.684 258.455 188.02C258.231 184.31 257.784 180.616 257.118 176.959C257.118 176.959 288.257 177.646 286.444 182.244Z" fill="black"/>
<path d="M298.481 165.558C298.487 168.278 298.058 170.983 297.211 173.569C295.318 179.362 291.436 184.301 286.251 187.512C281.067 190.722 274.913 191.998 268.878 191.113C262.843 190.229 257.315 187.241 253.271 182.678C249.228 178.114 246.929 172.27 246.781 166.177C246.781 165.965 246.781 165.769 246.781 165.558C246.722 162.128 247.347 158.721 248.62 155.535C249.893 152.35 251.788 149.449 254.195 147.003C256.601 144.557 259.471 142.614 262.637 141.288C265.803 139.961 269.202 139.278 272.635 139.278C276.067 139.278 279.466 139.961 282.632 141.288C285.798 142.614 288.668 144.557 291.074 147.003C293.481 149.449 295.376 152.35 296.649 155.535C297.922 158.721 298.547 162.128 298.488 165.558H298.481Z" fill="#BC5466"/>
<path opacity="0.1" d="M276.719 222.261C266.745 218.388 253.914 205.59 257.118 199.61C257.829 198.101 258.252 196.472 258.365 194.808L272.019 206.02L280.467 212.944L286.89 196.605C287.434 200.033 287.978 202.645 287.978 202.645C287.978 202.645 286.074 205.31 284.955 205.454C283.837 205.597 291.03 227.78 276.719 222.261Z" fill="black"/>
<path d="M312.029 271.814L300.627 463.217L285.756 464.191L247.249 353.208L253.566 221.446L254.896 193.607L272.019 207.659L280.474 214.582L287.086 197.768L299.38 208.474L312.029 271.814Z" fill="#1A0F54"/>
<path opacity="0.1" d="M262.815 464.183C262.309 465.435 261.924 466.732 261.667 468.057C250.846 466.387 240.337 463.107 230.489 458.324L230.285 458.219L230.353 457.003L230.391 456.369L234.169 449.332C234.169 449.332 264.629 459.751 262.815 464.183Z" fill="black"/>
<path opacity="0.1" d="M289.648 468.087C286.881 468.557 284.091 468.875 281.29 469.038C281.124 465.263 281.026 462.666 281.026 462.666L289.428 460.975L289.648 468.087Z" fill="black"/>
<path opacity="0.1" d="M311.712 463.557C306.339 464.954 298.043 466.524 290.615 465.543L290.509 460.756L310.775 456.693C310.775 456.693 311.334 460.431 311.712 463.557Z" fill="black"/>
<path opacity="0.1" d="M290.479 466.418C259.498 471.704 231.124 456.55 231.124 456.55L231.396 451.416C231.396 451.416 232.099 393.21 230.149 388.747C228.2 384.285 226.681 361.657 227.784 358.183C228.887 354.71 223.757 302.628 223.757 302.628L222.926 281.486L192.504 269.172L206.105 240.843C207.942 236.871 209.522 232.785 210.835 228.611C213.201 221.257 224.18 214.031 224.18 214.031C224.18 214.031 235.439 206.813 239.889 207.085C244.34 207.357 250.174 200.697 250.174 200.697C254.481 189.726 258.38 194.695 258.38 194.695C258.38 195.216 258.38 194.695 258.168 196.318C256.657 208.361 282.605 246.415 282.975 247.087L285.446 307.233L287.947 383.349L290.479 466.418Z" fill="black"/>
<path d="M289.648 466.418C258.667 471.704 230.285 456.55 230.285 456.55L230.565 451.416C230.565 451.416 231.268 393.21 229.311 388.747C227.354 384.285 225.842 361.657 226.953 358.183C228.064 354.71 222.926 302.628 222.926 302.628L222.087 281.486L191.65 269.126L205.251 240.797C207.085 236.824 208.664 232.738 209.982 228.566C212.339 221.212 223.326 213.986 223.326 213.986C223.326 213.986 234.585 206.768 239.028 207.04C243.471 207.311 249.312 200.652 249.312 200.652C253.627 189.681 258.38 194.649 258.38 194.649C258.38 195.17 257.926 195.404 258.168 196.273C261.493 207.953 281.774 246.37 282.144 247.042L284.645 307.188L287.146 383.304L289.648 466.418Z" fill="white"/>
<path opacity="0.1" d="M281.298 248.755C277.966 247.366 260.314 227.229 260.314 227.229V222.646C259.672 221.136 255.856 222.057 252.758 223.114L254.088 195.276L255.599 196.529C258.909 208.202 280.913 248.083 281.298 248.755Z" fill="black"/>
<path d="M282.137 247.087C278.797 245.698 261.145 225.561 261.145 225.561V220.978C260.503 219.467 256.687 220.389 253.589 221.446L254.926 193.607L256.438 194.861C259.755 206.534 281.766 246.422 282.137 247.087Z" fill="white"/>
<path opacity="0.1" d="M231.124 347.515C231.54 347.515 252.667 345.295 252.667 345.295C252.667 345.295 265.46 370.43 264.621 376.546C263.782 382.662 262.264 388.076 257.118 387.117C251.972 386.158 229.424 387.872 229.424 387.872L231.124 347.515Z" fill="black"/>
<path d="M230.285 345.846C230.701 345.846 251.828 343.626 251.828 343.626C251.828 343.626 264.614 368.769 263.782 374.877C262.951 380.986 261.417 386.407 256.279 385.448C251.141 384.489 228.585 386.203 228.585 386.203L230.285 345.846Z" fill="white"/>
<path d="M246.207 334.045C246.207 334.045 265.596 344.457 266.012 347.636C266.427 350.814 256.143 346.246 253.921 345.695C252.459 345.343 250.971 345.111 249.471 345L234.653 345.401L246.207 334.045Z" fill="#BC5466"/>
<path opacity="0.1" d="M275.888 250.054C277.014 250.054 277.928 249.141 277.928 248.016C277.928 246.89 277.014 245.977 275.888 245.977C274.761 245.977 273.847 246.89 273.847 248.016C273.847 249.141 274.761 250.054 275.888 250.054Z" fill="black"/>
<path d="M275.888 249.224C277.014 249.224 277.928 248.311 277.928 247.185C277.928 246.059 277.014 245.146 275.888 245.146C274.761 245.146 273.847 246.059 273.847 247.185C273.847 248.311 274.761 249.224 275.888 249.224Z" fill="#3F3D56"/>
<path opacity="0.1" d="M279.643 338.303C280.77 338.303 281.683 337.39 281.683 336.265C281.683 335.139 280.77 334.226 279.643 334.226C278.516 334.226 277.603 335.139 277.603 336.265C277.603 337.39 278.516 338.303 279.643 338.303Z" fill="black"/>
<path d="M279.643 337.465C280.77 337.465 281.683 336.552 281.683 335.427C281.683 334.301 280.77 333.388 279.643 333.388C278.516 333.388 277.603 334.301 277.603 335.427C277.603 336.552 278.516 337.465 279.643 337.465Z" fill="#3F3D56"/>
<path opacity="0.1" d="M277.92 294.179C279.047 294.179 279.961 293.266 279.961 292.14C279.961 291.014 279.047 290.101 277.92 290.101C276.794 290.101 275.88 291.014 275.88 292.14C275.88 293.266 276.794 294.179 277.92 294.179Z" fill="black"/>
<path d="M277.92 293.348C279.047 293.348 279.961 292.435 279.961 291.31C279.961 290.184 279.047 289.271 277.92 289.271C276.794 289.271 275.88 290.184 275.88 291.31C275.88 292.435 276.794 293.348 277.92 293.348Z" fill="#3F3D56"/>
<path d="M324.951 344.578C324.951 344.578 326.341 346.661 324.951 347.635C323.56 348.609 325.087 350.965 325.087 350.965C325.087 350.965 321.618 352.996 323.145 354.823C324.671 356.651 323.704 364.903 323.704 364.903L319.533 371.804C319.533 371.804 319.782 376.251 319.797 382.262C319.797 391.639 319.246 404.822 316.193 410.832L316.616 460.144C316.616 460.144 302.01 465.475 289.784 463.851L287.97 384.723C287.97 384.723 290.615 339.851 291.59 331.244C292.16 326.775 292.392 322.27 292.285 317.766C292.285 317.766 291.869 304.296 290.471 298.044C290.471 298.044 288.96 270.961 288.809 263.464C288.741 259.877 288.93 249.412 289.141 239.461C289.376 228.581 289.64 218.32 289.64 218.32L286.882 196.514C286.882 196.514 289.64 196.235 290.471 197.345C290.844 197.692 291.248 198.003 291.68 198.273V198.273C296.441 201.49 313.261 211.381 313.261 211.381C313.261 211.381 322.57 215.081 324.8 220.381C327.029 225.681 328.578 229.442 329.658 230.952C330.739 232.462 331.328 239.559 331.328 239.559C331.328 239.559 334.532 252.621 337.033 254.834C339.534 257.046 341.363 271.12 341.363 271.12L319.261 288.486C319.261 288.486 317.319 317.373 316.903 318.491C316.488 319.608 324.951 344.578 324.951 344.578Z" fill="white"/>
<path d="M325.789 344.578C325.789 344.578 327.172 346.661 325.789 347.635C324.407 348.609 325.918 350.965 325.918 350.965C325.918 350.965 322.472 353.019 323.983 354.846C325.495 356.673 324.543 364.926 324.543 364.926L320.371 371.827C320.371 371.827 320.621 376.274 320.643 382.284C320.643 391.662 320.092 404.845 317.039 410.855L317.455 460.167C317.455 460.167 302.826 465.497 290.615 463.874L288.809 384.746C288.809 384.746 291.454 339.874 292.428 331.266C292.999 326.798 293.229 322.292 293.116 317.789C293.116 317.789 292.7 304.319 291.31 298.067C291.31 298.067 289.799 270.984 289.64 263.486C289.572 259.9 289.769 249.435 289.973 239.484C290.207 228.603 290.471 218.342 290.471 218.342L286.829 196.242C286.829 196.242 290.471 196.242 291.31 197.367C291.679 197.719 292.084 198.03 292.519 198.296C297.279 201.513 314.107 211.404 314.107 211.404C314.107 211.404 323.409 215.103 325.638 220.404C327.867 225.704 329.416 229.464 330.504 230.974C331.593 232.484 332.167 239.582 332.167 239.582C332.167 239.582 335.371 252.644 337.872 254.856C340.373 257.068 342.179 271.112 342.179 271.112L320.077 288.478C320.077 288.478 318.135 317.366 317.712 318.483C317.289 319.601 325.789 344.578 325.789 344.578Z" fill="white"/>
<path opacity="0.1" d="M299.32 224.753L301.315 230.567L290.811 241.137C291.046 230.265 291.31 219.996 291.31 219.996L287.668 197.896C287.668 197.896 291.31 197.896 292.149 199.021C292.517 199.372 292.922 199.681 293.358 199.942L302.289 225.689L299.32 224.753Z" fill="black"/>
<path d="M298.481 223.084L300.483 228.898L289.98 239.468C290.214 228.588 290.479 218.327 290.479 218.327L286.829 196.227C286.829 196.227 290.479 196.227 291.31 197.352C291.681 197.702 292.086 198.013 292.519 198.281L301.458 224.02L298.481 223.084Z" fill="white"/>
<path opacity="0.1" d="M298.481 165.558C298.487 168.278 298.058 170.983 297.211 173.569C297.069 173.591 296.923 173.584 296.783 173.549C296.643 173.514 296.511 173.451 296.395 173.365C296.199 166.569 292.851 160.189 288.733 154.761C287.577 153.121 286.175 151.67 284.577 150.457C282.962 149.244 280.952 148.676 278.94 148.864C276.673 149.173 274.671 150.713 272.381 150.91C269.359 151.159 266.654 149.067 263.654 148.962C262.434 148.973 261.231 149.245 260.125 149.758C259.019 150.271 258.035 151.014 257.239 151.937C255.663 153.8 254.492 155.97 253.801 158.309C252.612 161.857 251.965 165.563 251.881 169.303C251.843 171.417 251.639 174.067 249.675 174.837C249.823 173.282 249.646 171.714 249.156 170.231C248.665 168.748 247.872 167.383 246.826 166.222L246.781 166.177C246.781 165.965 246.781 165.769 246.781 165.558C246.722 162.128 247.347 158.721 248.62 155.535C249.893 152.35 251.788 149.449 254.195 147.003C256.601 144.557 259.471 142.614 262.637 141.288C265.803 139.961 269.202 139.278 272.635 139.278C276.067 139.278 279.466 139.961 282.632 141.288C285.798 142.614 288.668 144.557 291.074 147.003C293.481 149.449 295.376 152.35 296.649 155.535C297.922 158.721 298.547 162.128 298.488 165.558H298.481Z" fill="black"/>
<path d="M283.338 124.536C279.412 122.691 274.946 122.342 270.78 123.555C268.687 124.174 266.714 125.178 264.591 125.684C260.057 126.779 254.768 125.593 250.876 128.244C248.715 129.754 247.416 132.14 246.207 134.457L243.184 140.211C241.537 143.359 239.874 146.561 239.187 150.026C238.499 153.492 238.915 157.373 241.114 160.159C242.716 162.19 245.081 163.466 246.819 165.376C247.86 166.538 248.65 167.903 249.138 169.384C249.627 170.865 249.805 172.431 249.66 173.984C251.632 173.229 251.821 170.571 251.866 168.457C251.95 164.717 252.597 161.011 253.786 157.464C254.475 155.123 255.646 152.953 257.224 151.091C258.02 150.169 259.005 149.426 260.111 148.913C261.217 148.4 262.42 148.129 263.639 148.116C266.661 148.222 269.374 150.306 272.366 150.057C274.633 149.868 276.643 148.32 278.925 148.018C280.937 147.828 282.948 148.396 284.562 149.611C286.16 150.822 287.559 152.274 288.711 153.915C292.836 159.344 296.184 165.709 296.38 172.519C297.234 173.146 298.466 172.33 298.889 171.364C299.312 170.397 299.327 169.265 299.864 168.344C300.483 167.279 301.67 166.713 302.599 165.912C304.957 163.881 305.546 160.461 305.455 157.358C305.365 154.255 304.76 151.106 305.35 148.056C305.705 146.183 306.506 144.432 306.944 142.582C307.382 140.732 307.435 138.656 306.4 137.062C304.889 134.722 301.708 134.261 298.934 134.042C295.783 133.77 292.965 134.118 290.955 131.468C290.011 130.085 288.95 128.786 287.781 127.587C287.381 127.194 283.338 124.702 283.338 124.536Z" fill="#512E4E"/>
<path opacity="0.1" d="M201.209 283.759L193.313 269.172L190.811 291.679C190.811 291.679 192.202 301.676 191.922 303.209C191.643 304.742 197.62 318.483 197.62 318.483C197.62 318.483 217.364 353.623 225.427 355.435L252.667 335.985L245.443 326.819C245.443 326.819 242.942 325.845 242.315 326.819C242.315 326.819 228.903 303.76 227.512 302.092C226.122 300.423 226.394 297.093 226.394 297.093C226.394 297.093 224.308 294.873 225.004 292.789C225.699 290.705 220.976 283.48 220.976 283.48L225.283 279.455L201.209 283.759Z" fill="black"/>
<path d="M193.728 267.511L191.642 269.172L189.141 291.679C189.141 291.679 190.532 301.676 190.252 303.209C189.973 304.742 195.957 318.483 195.957 318.483C195.957 318.483 215.694 353.623 223.757 355.435L251.005 335.985L243.773 326.819C243.773 326.819 241.272 325.845 240.645 326.819C240.645 326.819 227.233 303.76 225.842 302.091C224.452 300.423 224.731 297.093 224.731 297.093C224.731 297.093 222.646 294.873 223.341 292.789C224.036 290.705 219.306 283.48 219.306 283.48L223.613 279.455L193.728 267.511Z" fill="white"/>
<path opacity="0.1" d="M323.145 355.684C324.656 357.519 323.704 365.756 323.704 365.756L319.533 372.658C319.533 372.658 319.782 377.112 319.797 383.115L312.785 385.304C312.151 385.502 311.479 385.546 310.825 385.431C310.171 385.317 309.554 385.048 309.026 384.647C308.497 384.245 308.072 383.724 307.786 383.125C307.5 382.526 307.362 381.868 307.382 381.205L308.591 342.237L324.951 348.489C323.56 349.455 325.087 351.826 325.087 351.826C325.087 351.826 321.618 353.849 323.145 355.684Z" fill="black"/>
<path d="M323.983 354.846C325.495 356.681 324.543 364.926 324.543 364.926L320.371 371.827C320.371 371.827 320.621 376.274 320.643 382.284L313.503 384.512C312.882 384.704 312.224 384.746 311.584 384.634C310.944 384.521 310.34 384.257 309.823 383.864C309.306 383.471 308.89 382.961 308.61 382.374C308.33 381.788 308.194 381.144 308.213 380.495L309.43 341.406L325.797 347.658C324.399 348.625 325.925 350.988 325.925 350.988C325.925 350.988 322.472 353.019 323.983 354.846Z" fill="white"/>
<path d="M329.401 336.272C329.401 336.272 328.29 343.362 325.51 343.777C322.729 344.192 321.482 355.246 318.709 354.854C315.936 354.461 317.772 344.578 317.87 342.66C317.969 340.742 314.848 332.799 317.183 330.994C319.518 329.19 326.908 330.994 326.908 330.994L329.401 336.272Z" fill="#BC5466"/>
<path opacity="0.1" d="M335.318 281.675L340.562 271.105C340.562 271.105 342.647 279.161 342.647 283.465C342.647 287.768 345.564 288.191 345.564 288.191C345.564 288.191 348.76 291.966 347.075 294.715C345.39 297.463 344.71 304.304 344.71 304.304C344.71 304.304 345.262 317.358 342.761 319.163C340.26 320.967 339.738 325.279 339.738 325.279C339.738 325.279 335.144 333.471 335.288 335.419C335.431 337.367 328.895 350.557 328.895 350.557C328.895 350.557 332.091 334.166 313.465 327.083C313.465 327.083 313.321 321.519 314.712 319.993C316.102 318.468 318.271 317.774 316.911 310.065C315.551 302.356 316.518 293.144 316.518 291.294C316.518 289.445 320.689 277.908 320.689 277.908L335.318 281.675Z" fill="black"/>
<path d="M337.585 269.595L342.164 271.105C342.164 271.105 344.257 279.161 344.257 283.465C344.257 287.768 347.174 288.191 347.174 288.191C347.174 288.191 350.37 291.966 348.685 294.715C347 297.463 346.327 304.304 346.327 304.304C346.327 304.304 346.879 317.358 344.378 319.163C341.877 320.968 341.317 325.279 341.317 325.279C341.317 325.279 336.731 333.471 336.874 335.419C337.018 337.367 330.474 350.558 330.474 350.558C330.474 350.558 333.678 334.166 315.044 327.083C315.044 327.083 314.908 321.519 316.299 319.994C317.689 318.468 319.858 317.774 318.497 310.065C317.137 302.356 318.105 293.144 318.105 291.294C318.105 289.445 322.276 277.908 322.276 277.908L337.585 269.595Z" fill="white"/>
<path opacity="0.1" d="M236.444 543.576C236.444 543.576 243.743 538.993 248.534 542.323C253.325 545.652 236.444 543.576 236.444 543.576Z" fill="black"/>
<path opacity="0.1" d="M293.161 529.404C293.161 529.404 299.622 528.573 305.047 534.41C310.473 540.246 293.161 529.404 293.161 529.404Z" fill="black"/>
<g opacity="0.1">
<path opacity="0.1" d="M302.614 164.259C301.685 165.059 300.491 165.633 299.871 166.698C299.342 167.611 299.327 168.736 298.904 169.718C298.481 170.699 297.249 171.5 296.395 170.881C296.199 164.085 292.844 157.705 288.726 152.269C287.574 150.628 286.175 149.176 284.577 147.965C282.96 146.75 280.947 146.182 278.933 146.372C276.666 146.682 274.671 148.222 272.381 148.411C269.359 148.667 266.646 146.576 263.646 146.47C262.427 146.482 261.225 146.755 260.12 147.269C259.015 147.783 258.032 148.528 257.239 149.453C255.661 151.312 254.49 153.48 253.801 155.818C252.613 159.365 251.966 163.071 251.881 166.811C251.836 168.918 251.639 171.545 249.69 172.33C249.735 172.888 249.735 173.449 249.69 174.007C251.655 173.251 251.851 170.594 251.896 168.48C251.981 164.74 252.628 161.034 253.816 157.486C254.505 155.146 255.676 152.976 257.254 151.114C258.049 150.191 259.032 149.449 260.137 148.936C261.242 148.423 262.443 148.151 263.662 148.139C266.684 148.245 269.404 150.328 272.397 150.079C274.663 149.891 276.673 148.343 278.948 148.041C280.962 147.851 282.975 148.419 284.592 149.634C286.19 150.845 287.589 152.297 288.741 153.938C292.859 159.366 296.214 165.731 296.41 172.542C297.264 173.168 298.496 172.353 298.919 171.387C299.342 170.42 299.357 169.287 299.886 168.366C300.506 167.302 301.7 166.735 302.629 165.935C304.987 163.904 305.576 160.484 305.486 157.381C305.486 157.282 305.486 157.184 305.486 157.094C305.342 159.782 304.624 162.522 302.614 164.259Z" fill="black"/>
<path opacity="0.1" d="M246.834 163.723C245.096 161.813 242.723 160.537 241.129 158.513C239.786 156.722 239.019 154.565 238.93 152.329C238.692 155.124 239.473 157.91 241.129 160.174C242.723 162.205 245.096 163.481 246.834 165.392C248.502 167.26 249.504 169.629 249.682 172.126C249.798 170.606 249.605 169.078 249.116 167.634C248.626 166.19 247.85 164.86 246.834 163.723V163.723Z" fill="black"/>
<path opacity="0.1" d="M306.959 140.928C306.513 142.778 305.72 144.537 305.357 146.402C305.142 147.648 305.064 148.914 305.123 150.177C305.148 149.458 305.226 148.741 305.357 148.033C305.72 146.161 306.513 144.409 306.959 142.559C307.219 141.539 307.303 140.482 307.208 139.433C307.161 139.937 307.078 140.437 306.959 140.928V140.928Z" fill="black"/>
</g>
<path opacity="0.1" d="M100.295 574.276C140.958 574.276 173.923 568.985 173.923 562.46C173.923 555.934 140.958 550.643 100.295 550.643C59.6307 550.643 26.6661 555.934 26.6661 562.46C26.6661 568.985 59.6307 574.276 100.295 574.276Z" fill="#6C63FF"/>
<path d="M102.667 336.099H97.9294V442.687H102.667V336.099Z" fill="#535461"/>
<path d="M132.439 442.363L132.144 447.165L131.721 453.96L131.547 456.784L131.132 463.579L130.95 466.403L130.527 473.199L125.752 550.266C125.544 553.581 124.08 556.694 121.657 558.969C119.234 561.244 116.034 562.511 112.71 562.512H87.8796C84.5554 562.511 81.3568 561.244 78.9351 558.968C76.5134 556.693 75.0507 553.581 74.845 550.266L70.0921 473.146L69.6689 466.35L69.4951 463.527L69.072 456.731L68.8982 453.907L68.475 447.112L68.1728 442.31C68.1203 441.386 68.2573 440.461 68.5755 439.591C68.8937 438.722 69.3863 437.926 70.0231 437.254C70.6599 436.582 71.4275 436.046 72.2788 435.681C73.13 435.316 74.047 435.128 74.9735 435.13H125.759C126.682 435.137 127.594 435.334 128.438 435.708C129.281 436.082 130.04 436.624 130.666 437.302C131.292 437.98 131.772 438.778 132.077 439.649C132.382 440.519 132.505 441.443 132.439 442.363V442.363Z" fill="#3F3D56"/>
<path d="M132.144 447.165L131.721 453.938H68.868L68.4448 447.165H132.144Z" fill="#9D9CB5"/>
<path d="M131.547 456.761L131.132 463.542H69.4649L69.0417 456.761H131.547Z" fill="#9D9CB5"/>
<path d="M130.95 466.373L130.535 473.146H70.0618L69.6387 466.373H130.95Z" fill="#9D9CB5"/>
<path d="M61.2135 376.048C88.8015 395.996 100.317 427.194 100.317 427.194C100.317 427.194 67.0696 426.054 39.4741 406.106C11.8785 386.158 0.385376 354.967 0.385376 354.967C0.385376 354.967 33.6179 356.1 61.2135 376.048Z" fill="#4C0AE0"/>
<path d="M0.362671 354.967C0.362671 354.967 34.8798 374.107 45.9498 389.956C57.0197 405.804 100.317 427.194 100.317 427.194" stroke="#535461" stroke-width="2" stroke-miterlimit="10"/>
<path d="M79.0236 335.864C94.038 346.714 100.317 363.695 100.317 363.695C100.317 363.695 82.22 363.076 67.198 352.226C52.1761 341.376 45.912 324.388 45.912 324.388C45.912 324.388 64.0017 325.007 79.0236 335.864Z" fill="#4C0AE0"/>
<path d="M45.912 324.388C45.912 324.388 64.6969 334.807 70.7193 343.43C76.7416 352.052 100.317 363.695 100.317 363.695" stroke="#535461" stroke-width="2" stroke-miterlimit="10"/>
<path d="M122.117 362.834C104.866 381.778 101.216 406.536 101.216 406.536C101.216 406.536 125.54 400.571 142.776 381.62C160.012 362.668 163.677 337.918 163.677 337.918C163.677 337.918 139.368 343.89 122.117 362.834Z" fill="#4C0AE0"/>
<path d="M163.692 337.926C163.692 337.926 141.219 357.345 135.507 370.725C129.794 384.104 101.216 406.536 101.216 406.536" stroke="#535461" stroke-width="2" stroke-miterlimit="10"/>
<path d="M755.379 356.167C755.379 356.167 742.904 294.148 747.68 286.432C747.68 286.432 747.853 279.259 747.566 270.116C747.566 269.768 747.566 269.421 747.566 269.066C748.406 269.626 749.282 270.13 750.188 270.576C754.588 272.835 759.64 273.487 764.47 272.418L760.691 268.213C759.785 267.209 758.84 266.121 758.644 264.793C758.447 263.464 758.991 262.278 759.46 261.093C763.049 252.032 763.238 240.639 756.324 233.723C750.483 227.909 749.062 220.404 742.723 215.096C738.091 211.207 735.544 205.507 733.141 199.995C731.109 195.336 729.061 190.64 727.897 185.702C726.99 181.844 726.628 177.85 725.381 174.082C724.134 170.314 721.799 166.652 718.15 164.969C716.85 164.372 715.407 164.032 714.22 163.24C712.664 162.19 711.727 160.484 710.601 158.989C704.881 151.438 685.726 155.886 676.658 158.951C674.193 159.723 671.91 160.987 669.948 162.666L670.031 162.53C670.099 162.417 670.182 162.303 670.258 162.19C669.265 162.992 668.408 163.948 667.719 165.022C666.397 167.113 665.845 169.552 664.742 171.817C663.412 174.497 656.014 181.98 659.195 184.992C659.418 185.195 659.674 185.358 659.951 185.476C661.145 185.972 662.46 186.104 663.729 185.853L663.593 186.178C662.507 188.836 661.95 191.68 661.954 194.551C661.954 206.956 672.192 217.014 684.834 217.014C687.211 217.016 689.573 216.652 691.839 215.934C691.892 216.221 691.937 216.508 691.99 216.795C691.99 216.908 692.028 217.021 692.043 217.134L691.642 217.693C691.622 217.659 691.599 217.626 691.574 217.595L679.711 234.161C677.897 235.437 667.455 242.987 666.865 248.65C666.246 254.849 665.626 262.105 665.626 262.105L665.543 263.66C665.024 264.093 664.418 264.408 663.766 264.584C663.113 264.76 662.431 264.793 661.765 264.679C658.062 264.075 658.062 278.27 658.062 278.27C658.062 278.27 655.599 280.535 653.906 278.572C652.213 276.609 647.74 283.261 647.74 283.261L619.706 284.469L619.064 284.507L617.553 279.833C617.39 279.34 617.039 278.931 616.577 278.695C616.114 278.459 615.577 278.415 615.082 278.572C614.965 278.61 614.851 278.658 614.742 278.715L614.636 278.776L614.44 278.912L614.341 279.002C614.287 279.052 614.237 279.104 614.19 279.161L614.1 279.267L614.054 279.312C613.88 279.553 613.764 279.832 613.717 280.125C613.67 280.419 613.692 280.72 613.782 281.003L615.082 285.012C609.672 286.1 604.14 289.165 608.651 297.607L585.786 293.386L593.184 299.592L631.373 307.467C630.867 308.373 631.199 309.687 632.779 311.537C639.579 319.518 651.972 321.685 656.959 322.244C658.276 325.187 659.921 327.973 661.863 330.549L661.432 338.5C661.432 338.5 648.806 399.099 646.493 402.172C647.661 400.85 648.729 399.445 649.69 397.966C646.025 410.417 640.902 427.458 639.557 430.01C637.396 434.088 635.393 450.585 637.857 451.642C638.612 451.967 640.773 451.808 643.856 451.574V452.941L643.72 504.729C643.72 504.729 644.34 536.494 642.64 539.521C640.94 542.549 640.486 548.899 640.486 548.899C640.486 548.899 633.685 561.425 628.298 566.461C628.261 566.5 628.221 566.536 628.177 566.567L628.011 565.389C628.011 565.389 621.535 573.559 607.208 573.098C607.208 573.098 598.587 578.7 611.372 579.002C624.157 579.304 640.486 578.549 640.486 578.549C640.486 578.549 651.889 561.183 661.44 563.449V576.609H664.364V563.237C665.72 562.345 666.881 561.187 667.776 559.833C668.671 558.48 669.281 556.959 669.57 555.362C669.821 553.717 669.637 552.034 669.038 550.481C668.439 548.928 667.445 547.558 666.155 546.505C665.575 545.982 665.11 545.344 664.789 544.632C664.467 543.92 664.297 543.149 664.288 542.368L664.183 542.458C664.183 542.194 664.115 541.922 664.084 541.643C663.246 534.848 662.195 520.827 665.905 510.452C670.991 496.227 672.532 476.415 668.83 464.621C667.635 460.851 666.654 457.017 665.89 453.137C665.8 452.646 665.717 452.178 665.641 451.74C668.172 452.083 670.678 452.587 673.144 453.25C681.721 455.614 700.483 456.052 716.502 455.923C716.54 456.361 716.585 456.822 716.638 457.282C716.924 460.484 717.521 463.65 718.422 466.735C720.432 472.776 721.353 499.406 721.353 499.406C721.353 499.406 723.945 521.302 722.532 530.212C721.777 535.165 721.021 540.14 720.59 545.139V545.237C720.59 545.237 716.344 557.318 713.238 563.879C713.162 564.045 713.079 564.211 713.004 564.37C712.176 564.445 711.361 564.625 710.578 564.906C710.578 564.906 706.415 573.211 702.266 574.585C698.118 575.96 699.493 580.482 708.886 578.821C718.278 577.16 732.461 575.801 732.461 575.801L733.073 567.329L735.96 563.72L735.204 572.169L738.28 571.565L737.872 561.289L742.594 555.385C742.594 555.385 748.299 550.311 739.821 540.329V540.548C739.73 540.405 739.647 540.254 739.549 540.11V540.065C738.144 537.89 737.025 533.836 739.073 526.64C742.776 513.639 744.929 501.837 744.929 501.837C744.929 501.837 753.196 470.224 743.259 455.266H743.697C742.679 453.162 741.959 450.925 741.559 448.622C741.509 448.35 741.463 448.071 741.423 447.784C748.775 447.361 755.992 446.032 761.878 443.163C761.855 443.133 758.311 368.112 755.379 356.167ZM662.037 303.843V303.994L660.525 304.07L662.037 303.843ZM656.853 304.56C656.605 304.616 656.372 304.727 656.173 304.885C655.523 305.804 655.115 306.871 654.987 307.988L652.629 307.46C652.629 307.46 650.974 307.105 648.594 306.705L647.468 305.572C650.566 305.316 653.785 304.938 656.853 304.56V304.56Z" fill="url(#paint1_linear)"/>
<path d="M734.856 561.395L733.957 572.094L736.972 571.49L736.519 559.885L734.856 561.395Z" fill="#1D2366"/>
<path d="M666.072 510.596C662.437 520.94 663.465 534.901 664.281 541.681C664.583 544.188 664.863 545.713 664.863 545.713C664.863 545.713 659.43 558.08 658.976 558.548C658.523 559.017 642.987 568.492 642.987 568.492L632.129 574.827C632.129 574.827 621.112 570.002 626.394 568.341C627.473 567.909 628.445 567.246 629.242 566.401C634.532 561.38 641.174 548.899 641.174 548.899C641.174 548.899 641.627 542.564 643.289 539.552C644.952 536.539 644.347 504.88 644.347 504.88L644.476 453.273V446.546L665.142 446.697C665.273 448.981 665.571 451.252 666.034 453.492C666.776 457.359 667.737 461.181 668.913 464.939C672.555 476.71 671.044 496.424 666.072 510.596Z" fill="#FFB0B1"/>
<path opacity="0.1" d="M664.863 545.713C664.863 545.713 659.43 558.08 658.976 558.548C658.523 559.017 642.987 568.492 642.987 568.492L632.129 574.827C632.129 574.827 621.112 570.002 626.394 568.341C627.473 567.908 628.445 567.246 629.242 566.401L629.711 569.7L633.33 569.549L664.311 541.696C664.583 544.188 664.863 545.713 664.863 545.713Z" fill="black"/>
<path d="M664.485 542.398L633.33 570.44L629.711 570.591L628.955 565.306C628.955 565.306 622.623 573.445 608.553 572.992C608.553 572.992 600.105 578.572 612.626 578.874C625.147 579.176 641.136 578.421 641.136 578.421C641.136 578.421 652.304 561.055 661.651 563.32V576.435H664.523V563.199C665.858 562.301 666.997 561.143 667.872 559.793C668.748 558.444 669.34 556.931 669.616 555.347C669.864 553.715 669.688 552.046 669.105 550.502C668.521 548.957 667.549 547.589 666.283 546.528C665.718 545.998 665.267 545.359 664.957 544.649C664.648 543.938 664.487 543.173 664.485 542.398V542.398Z" fill="#1D2366"/>
<path d="M737.728 526.723C735.718 533.896 736.814 537.936 738.189 540.103V540.148C739.953 542.824 741.179 545.816 741.801 548.959L741.922 549.639L727.746 570.289L720.054 573.309C720.054 573.309 707.684 569.089 709.943 567.881C710.51 567.586 711.394 566.016 712.407 563.849C715.429 557.318 719.6 545.267 719.6 545.267V545.169C720.039 540.193 720.734 535.233 721.505 530.295C722.887 521.408 720.348 499.595 720.348 499.595C720.348 499.595 719.442 473.07 717.477 467.038C716.59 463.97 716 460.825 715.716 457.645C715.308 453.87 715.218 450.759 715.218 450.759C715.218 450.759 723.363 439.433 738.295 451.665C739.489 452.641 740.539 453.779 741.415 455.048C751.73 469.71 743.425 502.011 743.425 502.011C743.425 502.011 741.347 513.759 737.728 526.723Z" fill="#FFB0B1"/>
<path opacity="0.1" d="M741.944 549.639L727.769 570.289L720.076 573.309C720.076 573.309 707.707 569.089 709.966 567.881C710.533 567.586 711.417 566.016 712.429 563.849C717.666 563.803 720.379 568.787 720.379 568.787L727.013 567.73C727.013 567.73 735.763 550.545 737.728 549.495C739.693 548.446 738.03 541.651 738.03 541.651V539.922C738.083 539.982 738.128 540.05 738.189 540.11V540.156C739.953 542.831 741.179 545.824 741.801 548.967L741.944 549.639Z" fill="black"/>
<path d="M720.832 569.232C720.832 569.232 717.054 562.301 709.815 564.861C709.815 564.861 705.742 573.166 701.669 574.51C697.596 575.854 698.957 580.384 708.16 578.731C717.364 577.077 731.237 575.71 731.237 575.71L731.842 567.262L741.196 555.355C741.196 555.355 746.773 550.303 738.476 540.359V542.089C738.476 542.089 740.138 548.884 738.174 549.933C736.209 550.983 727.489 568.175 727.489 568.175L720.832 569.232Z" fill="#1D2366"/>
<path opacity="0.1" d="M665.165 446.682C665.295 448.965 665.593 451.237 666.057 453.477C657.548 452.231 649.652 452.85 644.476 453.258V446.531L665.165 446.682Z" fill="black"/>
<path opacity="0.1" d="M742.254 456.928C742.254 456.928 730.164 457.517 715.747 457.637C715.339 453.862 715.248 450.751 715.248 450.751C715.248 450.751 723.394 439.426 738.325 451.657C739.519 452.633 740.569 453.772 741.446 455.04C741.68 455.684 741.95 456.314 742.254 456.928V456.928Z" fill="black"/>
<path d="M742.753 457.849C742.753 457.849 689.798 460.409 673.658 455.886C657.518 451.364 641.521 455.282 639.111 454.233C636.7 453.183 638.657 436.746 640.773 432.676C642.889 428.607 654.495 387.449 654.495 387.449L665.664 329.266L677.429 326.027L678.26 325.793L698.76 320.145L713.782 316C713.782 316 743.652 432.525 741.09 441.118C740.16 444.408 740.01 447.869 740.652 451.228C741.044 453.521 741.75 455.749 742.753 457.849V457.849Z" fill="#1A0F54"/>
<path d="M626.235 287.195C626.235 287.195 615.656 298.52 623.666 304.832C631.675 311.144 636.942 305.436 636.942 305.436L626.235 287.195Z" fill="#C7DAF5"/>
<path opacity="0.1" d="M626.235 287.195C626.235 287.195 615.656 298.52 623.666 304.832C631.675 311.144 636.942 305.436 636.942 305.436L626.235 287.195Z" fill="black"/>
<path d="M711.704 212.733C711.704 212.733 710.465 213.91 708.598 215.647C705.939 218.131 702.002 221.763 698.511 224.806C693.675 229.011 689.685 232.099 691.113 229.464C692.541 226.829 692.269 222.238 691.559 217.942C691.506 217.655 691.461 217.368 691.408 217.089C690.82 213.934 690.04 210.817 689.073 207.757C689.073 207.757 696.886 197.669 701.208 193.69C702.818 192.18 703.944 191.561 704.012 192.611C704.087 194.023 705.145 197.141 706.46 200.448C706.498 200.554 706.536 200.652 706.581 200.758C707.457 203.023 708.447 205.348 709.316 207.357C710.646 210.437 711.704 212.733 711.704 212.733Z" fill="#FFB0B1"/>
<path opacity="0.1" d="M706.581 200.758C705.847 204.704 704.065 208.38 701.423 211.403C698.78 214.426 695.374 216.685 691.559 217.942C690.958 214.496 690.128 211.093 689.073 207.757C689.073 207.757 703.785 188.768 704.012 192.611C704.065 194.068 705.213 197.299 706.581 200.758Z" fill="black"/>
<path opacity="0.1" d="M690.093 223.016L691.997 220.336C691.997 220.336 693.259 228.022 697.899 224.632C702.538 221.242 702.765 250.145 702.765 250.145L697.785 324.539L661.802 322.387L662.822 286.44L666.895 268.319L676.968 241.975L682.96 233.27L690.093 223.016Z" fill="black"/>
<path d="M702.765 250.605L698.231 317.872L697.755 324.999L677.693 323.799L676.938 323.754L661.825 322.848L662.845 286.893L666.918 268.772L676.99 242.428L682.983 233.723L690.116 223.431L692.02 220.759C692.02 220.759 693.282 228.445 697.921 225.055L698.02 224.987C702.553 222.118 702.765 250.605 702.765 250.605Z" fill="#1D2366"/>
<path d="M667.424 262.475C667.424 262.475 665.618 266.25 661.991 265.638C658.364 265.027 658.372 279.229 658.372 279.229C658.372 279.229 655.961 281.494 654.299 279.531C652.637 277.568 648.254 284.205 648.254 284.205L620.794 285.413C620.794 285.413 633.013 290.992 630.617 307.875C630.617 307.875 672.102 305.308 673.462 301.389C674.822 297.471 667.424 262.475 667.424 262.475Z" fill="white"/>
<path opacity="0.03" d="M667.424 262.475C667.424 262.475 665.618 266.25 661.991 265.638C658.364 265.027 658.372 279.229 658.372 279.229C658.372 279.229 655.961 281.494 654.299 279.531C652.637 277.568 648.254 284.205 648.254 284.205L620.794 285.413C620.794 285.413 633.013 290.992 630.617 307.875C630.617 307.875 672.102 305.308 673.462 301.389C674.822 297.471 667.424 262.475 667.424 262.475Z" fill="black"/>
<path d="M587.622 294.284L594.861 300.461L654.45 312.972L647.06 305.436L587.622 294.284Z" fill="white"/>
<path d="M690.206 225.395C689.217 226.905 686.383 234.636 684.018 241.386C682.046 247.011 680.398 251.957 680.398 251.957C680.398 251.957 676.552 276.979 674.588 281.502C672.623 286.024 673.688 303.662 673.688 303.662L666.366 347.22C666.366 347.22 663.049 369.683 657.926 383.1C652.871 396.305 647.241 402.497 647.068 402.693C649.335 399.628 661.689 339.27 661.689 339.27L665.769 263.147C665.769 263.147 666.366 255.913 666.971 249.729C667.575 243.546 679.817 235.104 679.817 235.104L691.619 218.335C692.806 219.92 692.012 222.684 690.206 225.395Z" fill="white"/>
<path d="M659.43 323.225C659.43 323.225 642.05 322.47 633.633 312.368C625.215 302.265 653.09 308.336 653.09 308.336L660.336 309.997L659.43 323.225Z" fill="#FFB0B1"/>
<path opacity="0.1" d="M740.592 438.844C739.661 442.135 739.511 445.596 740.153 448.954C721.195 450.298 700.914 445.179 700.914 445.179C697.135 448.652 687.184 453.771 687.184 453.771L681.758 386.573C678.29 377.512 676.93 330.043 676.93 330.043C676.93 330.043 677.24 327.559 677.686 323.837C677.686 323.746 677.686 323.648 677.723 323.557C679.076 313.16 681.758 293.643 683.073 291.007C684.887 287.383 677.497 277.741 677.497 277.741L680.859 249.088L681.267 245.63C688.355 242.466 693.788 232.364 693.788 232.364L697.959 225.062C702.493 222.155 702.727 250.643 702.727 250.643L698.193 317.91L713.215 313.764C713.215 313.764 743.153 430.252 740.592 438.844Z" fill="black"/>
<path d="M760.049 443.488C739.383 453.741 701.82 444.243 701.82 444.243C698.042 447.716 688.091 452.835 688.091 452.835L682.658 385.637C679.197 376.576 677.837 329.107 677.837 329.107C677.837 329.107 682.204 293.688 684.018 290.071C684.547 289.014 684.29 287.444 683.663 285.752C680.579 277.702 679.445 269.038 680.353 260.466L681.804 248.151L682.204 244.701C689.3 241.53 694.733 231.427 694.733 231.427L698.511 224.813L705.462 212.627L708.757 206.858L709.316 207.364L713.585 211.23C713.585 211.23 715.399 212.74 718.119 215.005C724.036 219.988 734.259 228.762 739.534 234.13C744.173 238.857 745.639 257.242 746.062 271.082C746.342 280.195 746.176 287.338 746.176 287.338C741.498 295.032 753.732 356.802 753.732 356.802C756.581 368.739 760.049 443.488 760.049 443.488Z" fill="white"/>
<path opacity="0.03" d="M720.379 231.276C720.379 231.276 706.196 258.254 707.843 268.507C709.49 278.761 714.175 290.366 711.916 293.076C711.139 294.103 710.136 294.937 708.984 295.512C707.831 296.087 706.562 296.388 705.274 296.391C703.007 296.542 696.962 300.763 696.962 301.216C696.962 301.669 691.378 301.669 686.383 303.783C681.388 305.897 674.013 307.097 674.013 307.097C674.013 307.097 659.656 306.644 658.319 308.003C656.981 309.362 655.606 317.494 658.47 323.98C661.334 330.466 664.515 335.306 666.918 336.189C669.321 337.072 684.569 331.968 696.939 330.76C709.309 329.552 722.736 319.759 722.736 319.759C722.736 319.759 737.524 314.474 740.116 305.587C742.707 296.7 736.95 247.857 736.95 247.857C736.95 247.857 732.597 225.092 720.379 231.276Z" fill="black"/>
<path opacity="0.03" d="M718.565 229.011C718.565 229.011 704.382 255.996 706.044 266.242C707.707 276.488 712.377 288.101 710.11 290.819C709.336 291.847 708.334 292.681 707.183 293.257C706.032 293.832 704.762 294.132 703.475 294.133C701.208 294.284 695.163 298.505 695.163 298.958C695.163 299.411 689.579 299.411 684.584 301.518C679.59 303.624 672.215 304.832 672.215 304.832C672.215 304.832 657.858 304.379 656.528 305.738C655.198 307.097 653.808 315.237 656.679 321.715C659.55 328.193 662.724 333.041 665.127 333.924C667.53 334.807 682.779 329.703 695.148 328.503C707.518 327.302 720.945 317.494 720.945 317.494C720.945 317.494 735.726 312.209 738.287 303.33C740.849 294.451 735.121 245.592 735.121 245.592C735.121 245.592 730.784 222.835 718.565 229.011Z" fill="black"/>
<path d="M719.933 229.917C719.933 229.917 705.75 256.902 707.412 267.148C709.074 277.394 713.744 289.007 711.485 291.717C710.711 292.748 709.709 293.584 708.556 294.161C707.403 294.737 706.132 295.038 704.843 295.039C702.576 295.19 696.531 299.411 696.531 299.857C696.531 300.302 690.954 300.31 685.952 302.424C680.95 304.538 673.583 305.738 673.583 305.738C673.583 305.738 659.226 305.285 657.888 306.644C656.551 308.003 655.175 316.143 658.039 322.621C660.903 329.099 664.084 333.947 666.487 334.83C668.89 335.713 684.139 330.609 696.508 329.401C708.878 328.193 722.306 318.4 722.306 318.4C722.306 318.4 737.093 313.115 739.685 304.228C742.277 295.341 736.557 246.498 736.557 246.498C736.557 246.498 732.144 223.771 719.933 229.917Z" fill="white"/>
<path opacity="0.1" d="M719.623 302.295C719.623 302.295 708.289 300.03 712.233 303.805C716.177 307.581 716.155 310.888 720.983 310.737C725.812 310.586 719.623 302.295 719.623 302.295Z" fill="black"/>
<path opacity="0.1" d="M738.778 383.523C738.778 383.523 733.655 386.988 743.456 394.976C753.256 402.965 738.778 383.523 738.778 383.523Z" fill="black"/>
<path opacity="0.1" d="M729 412.01C729 412.463 727.187 428.621 733.972 432.661C740.758 436.7 729 412.01 729 412.01Z" fill="black"/>
<path d="M621.263 285.375C615.792 285.564 603.974 287.232 610.102 298.656C615.52 308.766 624.625 302.008 629.749 296.882C628.499 292.102 625.462 287.983 621.263 285.375V285.375Z" fill="#FFB0B1"/>
<path d="M629.817 296.791L630.043 296.557L629.817 296.791Z" fill="#FFB0B1"/>
<path opacity="0.1" d="M718.119 215.466C712.316 219.43 707.45 222.775 706.498 223.469C703.898 225.395 698.941 236.697 695.745 242.466C693.199 247.109 684.924 248.302 681.804 248.597L682.204 245.146C689.3 241.975 694.733 231.873 694.733 231.873L708.757 207.304L713.585 211.691C713.585 211.691 715.399 213.201 718.119 215.466Z" fill="black"/>
<path d="M718.119 215.013C712.316 218.977 707.45 222.322 706.498 223.024C703.898 224.942 698.941 236.244 695.745 242.013C693.199 246.656 684.924 247.849 681.804 248.144L682.204 244.693C689.3 241.522 694.733 231.42 694.733 231.42L708.757 206.851L713.585 211.222C713.585 211.222 715.399 212.717 718.119 215.013Z" fill="#DCE7FF"/>
<path d="M706.951 195.774C706.954 200.307 705.579 204.733 703.007 208.467C699.969 212.881 695.449 216.061 690.265 217.429C685.082 218.798 679.58 218.265 674.756 215.926C669.933 213.588 666.108 209.599 663.976 204.684C661.844 199.769 661.546 194.253 663.135 189.137C664.725 184.021 668.098 179.644 672.641 176.8C677.185 173.956 682.598 172.834 687.898 173.637C693.199 174.44 698.036 177.115 701.532 181.176C705.027 185.238 706.95 190.417 706.951 195.774V195.774Z" fill="#FFB0B1"/>
<path opacity="0.1" d="M746.062 271.09C742.994 269.203 740.495 266.521 738.831 263.328C737.569 260.836 736.73 257.959 734.577 256.193C732.635 254.607 730.043 254.222 727.625 253.512C719.676 251.164 713.011 243.916 712.762 235.64C712.641 231.744 713.858 227.856 713.306 223.998C712.992 221.814 712.123 219.747 710.782 217.995C710.116 217.157 709.386 216.372 708.598 215.647C707.541 214.65 706.43 213.684 705.463 212.627C704.853 211.972 704.321 211.25 703.876 210.475C703.516 209.84 703.225 209.17 703.007 208.474C701.495 203.853 702.871 198.372 701.208 193.698L701.118 193.441C700.49 191.78 699.213 190.119 697.438 189.991C695.662 189.862 694.143 191.335 692.451 191.992C688.907 193.366 685.083 191.025 682.129 188.639C679.174 186.253 675.842 183.528 672.086 184.056C669.6 184.411 667.636 186.102 665.346 186.978C664.829 187.178 664.296 187.332 663.752 187.439C665.689 182.61 669.249 178.607 673.82 176.116C678.391 173.626 683.687 172.803 688.798 173.79C693.91 174.778 698.518 177.513 701.831 181.526C705.143 185.539 706.954 190.58 706.951 195.782C706.954 197.353 706.789 198.919 706.46 200.456C706.498 200.561 706.536 200.659 706.581 200.765C707.457 203.03 708.447 205.356 709.316 207.364L713.586 211.23C713.586 211.23 715.399 212.74 718.119 215.005C724.036 219.988 734.26 228.762 739.534 234.13C744.173 238.872 745.624 257.25 746.062 271.09Z" fill="black"/>
<path d="M665.082 173.183C666.162 170.986 666.699 168.525 667.991 166.441C669.888 163.421 673.197 161.488 676.598 160.318C685.476 157.26 704.238 152.82 709.845 160.318C710.948 161.828 711.863 163.504 713.389 164.546C714.553 165.339 715.958 165.678 717.235 166.275C720.809 167.951 723.091 171.605 724.308 175.335C725.525 179.065 725.887 183.067 726.779 186.91C727.92 191.841 729.922 196.514 731.917 201.158C734.267 206.639 736.761 212.325 741.295 216.198C747.483 221.483 748.851 228.966 754.594 234.765C761.394 241.651 761.175 253.014 757.669 262.037C757.208 263.222 756.687 264.46 756.868 265.721C757.049 266.982 757.986 268.13 758.87 269.134L762.588 273.324C753.793 275.446 743.841 270.855 739.745 262.799C738.484 260.308 737.645 257.438 735.484 255.664C733.549 254.078 730.95 253.701 728.539 252.991C720.59 250.635 713.926 243.38 713.676 235.104C713.555 231.216 714.772 227.327 714.22 223.477C713.913 221.278 713.041 219.197 711.689 217.436C709.611 214.726 706.475 212.906 704.783 209.886C701.919 204.835 704.095 198.273 702.032 192.852C701.397 191.191 700.128 189.53 698.352 189.402C696.576 189.273 695.058 190.746 693.357 191.403C689.821 192.777 685.998 190.444 683.043 188.05C680.089 185.657 676.756 182.939 672.993 183.475C670.507 183.822 668.55 185.513 666.261 186.397C664.568 187.046 661.137 187.627 659.656 186.2C656.528 183.324 663.775 175.871 665.082 173.183Z" fill="#591D4B"/>
<path opacity="0.1" d="M741.846 260.308C740.577 257.816 739.745 254.947 737.584 253.18C735.65 251.594 733.05 251.209 730.632 250.5C722.691 248.151 716.026 240.896 715.769 232.62C715.648 228.732 716.865 224.836 716.321 220.985C716.004 218.801 715.133 216.734 713.79 214.983C711.704 212.272 708.568 210.452 706.883 207.432C704.019 202.388 706.195 195.827 704.125 190.398C703.498 188.745 702.221 187.084 700.453 186.948C698.685 186.812 697.151 188.299 695.458 188.956C691.922 190.331 688.091 187.99 685.144 185.604C682.197 183.218 678.849 180.492 675.094 181.021C672.608 181.376 670.643 183.067 668.361 183.943C666.669 184.592 663.23 185.181 661.749 183.754C658.636 180.734 665.883 173.297 667.182 170.624C668.263 168.419 668.799 165.965 670.099 163.881C670.167 163.768 670.243 163.655 670.318 163.542C669.346 164.346 668.507 165.299 667.832 166.366C666.54 168.449 666.004 170.896 664.923 173.108C663.616 175.781 656.369 183.241 659.49 186.238C661.001 187.673 664.402 187.084 666.094 186.434C668.361 185.551 670.341 183.86 672.827 183.512C676.605 182.976 679.93 185.702 682.877 188.088C685.824 190.474 689.677 192.815 693.199 191.44C694.891 190.784 696.372 189.304 698.186 189.44C699.999 189.575 701.208 191.229 701.866 192.89C703.929 198.311 701.752 204.873 704.616 209.924C706.309 212.891 709.445 214.748 711.523 217.474C712.875 219.235 713.747 221.316 714.054 223.515C714.606 227.365 713.389 231.254 713.51 235.142C713.759 243.448 720.424 250.673 728.373 253.029C730.768 253.739 733.383 254.116 735.317 255.702C737.486 257.476 738.34 260.345 739.579 262.837C743.675 270.893 753.626 275.484 762.422 273.362L760.669 271.384C753.044 271.497 745.329 267.163 741.846 260.308Z" fill="black"/>
<path opacity="0.1" d="M689.753 225.848C688.763 227.358 685.93 235.089 683.564 241.839C681.35 240.979 679.34 235.489 679.34 235.489L691.143 218.712C692.352 220.373 691.559 223.129 689.753 225.848Z" fill="black"/>
<path d="M690.206 225.395C689.216 226.905 686.383 234.636 684.018 241.386C681.804 240.533 679.794 235.036 679.794 235.036L691.597 218.267C692.806 219.921 692.012 222.684 690.206 225.395Z" fill="#DCE7FF"/>
<path d="M621.58 302.529L615.036 281.909C614.959 281.668 614.93 281.414 614.951 281.161C614.972 280.908 615.043 280.662 615.16 280.437C615.276 280.212 615.436 280.012 615.63 279.849C615.824 279.685 616.049 279.562 616.291 279.486V279.486C616.778 279.334 617.305 279.38 617.758 279.615C618.211 279.85 618.553 280.254 618.709 280.739L625.253 301.336L624.603 305.648L621.58 302.529Z" fill="#BE8B87"/>
<path opacity="0.1" d="M615.656 280.097C616.144 279.943 616.673 279.988 617.128 280.223C617.583 280.458 617.926 280.864 618.082 281.351L624.625 301.948L624.134 305.18L624.61 305.678L625.26 301.367L618.679 280.769C618.522 280.284 618.181 279.88 617.728 279.645C617.275 279.41 616.748 279.364 616.261 279.516V279.516C615.851 279.649 615.497 279.914 615.256 280.271C615.384 280.202 615.518 280.144 615.656 280.097V280.097Z" fill="white"/>
<path d="M621.58 302.529L625.253 301.367L624.716 304.9L624.603 305.678L623.53 304.561L621.58 302.529Z" fill="#EFC8C4"/>
<path d="M623.53 304.561C623.594 304.48 623.673 304.413 623.764 304.364C623.817 304.331 623.879 304.313 623.942 304.313C624.004 304.313 624.066 304.331 624.119 304.364C624.171 304.426 624.214 304.495 624.248 304.568C624.298 304.651 624.366 304.722 624.447 304.776C624.528 304.83 624.62 304.864 624.716 304.878L624.603 305.633L623.53 304.561Z" fill="#727A9C"/>
<path d="M614.999 289.233C614.999 289.233 628.124 289.158 625.033 294.737C621.943 300.317 617.114 300.989 617.114 300.989L614.999 289.233Z" fill="#FFB0B1"/>
<path d="M533.368 38.8242H532.801C510.253 38.8242 490.312 50.7462 478.842 68.3387C467.372 50.7462 447.431 38.8242 424.883 38.8242H424.316C407.394 38.9853 391.22 45.8128 379.308 57.823C367.396 69.8332 360.709 86.0556 360.699 102.965C360.699 123.962 369.903 153.756 387.849 178.272C422.041 224.987 478.842 265.857 478.842 265.857C478.842 265.857 535.643 224.994 569.827 178.272C587.781 153.756 596.977 123.962 596.977 102.965C596.968 86.0569 590.282 69.8357 578.371 57.8257C566.461 45.8157 550.288 38.9873 533.368 38.8242V38.8242ZM525.26 181.866C522.692 181.857 520.187 181.071 518.074 179.613C515.961 178.155 514.339 176.093 513.42 173.697H499.939C499.051 173.691 498.188 173.409 497.468 172.889C496.749 172.369 496.21 171.638 495.927 170.798L491.786 158.332L478.683 204.08C478.428 204.96 477.894 205.735 477.161 206.286C476.428 206.837 475.536 207.136 474.618 207.138H474.354C473.396 207.091 472.484 206.718 471.769 206.081C471.053 205.443 470.579 204.579 470.424 203.634L456.921 122.483L447.053 170.503C446.826 171.415 446.301 172.226 445.56 172.804C444.819 173.383 443.905 173.698 442.965 173.697H423.976C423.407 173.721 422.838 173.63 422.305 173.429C421.772 173.228 421.285 172.921 420.874 172.527C420.463 172.133 420.136 171.66 419.912 171.136C419.688 170.613 419.573 170.049 419.573 169.48C419.573 168.911 419.688 168.347 419.912 167.824C420.136 167.3 420.463 166.827 420.874 166.433C421.285 166.039 421.772 165.732 422.305 165.531C422.838 165.33 423.407 165.239 423.976 165.263H439.64L453.619 100.7C453.849 99.7451 454.403 98.8999 455.187 98.3084C455.971 97.7169 456.936 97.416 457.918 97.457C458.9 97.498 459.837 97.8784 460.568 98.5333C461.3 99.1881 461.782 100.077 461.931 101.047L475.721 183.83L487.464 142.899C487.708 142.037 488.225 141.277 488.937 140.733C489.65 140.188 490.519 139.889 491.416 139.879H491.499C492.387 139.879 493.252 140.159 493.971 140.68C494.69 141.201 495.227 141.935 495.504 142.778L502.992 165.286H513.253C513.983 163.071 515.311 161.101 517.09 159.592C518.87 158.084 521.032 157.096 523.337 156.738C525.643 156.38 528.003 156.665 530.157 157.563C532.311 158.46 534.175 159.935 535.543 161.824C536.911 163.713 537.73 165.943 537.909 168.267C538.089 170.592 537.623 172.921 536.561 174.998C535.5 177.074 533.885 178.818 531.895 180.035C529.905 181.252 527.616 181.897 525.283 181.897L525.26 181.866Z" fill="#ED3A46" fill-opacity="0.9"/>
<path d="M316 243H298V255H316V243Z" fill="#E70013"/>
<path fill-rule="evenodd" clip-rule="evenodd" d="M310.042 248.995C310.042 249.392 309.964 249.786 309.812 250.153C309.66 250.52 309.437 250.854 309.156 251.135C308.875 251.416 308.541 251.639 308.174 251.791C307.807 251.943 307.413 252.021 307.016 252.021C306.618 252.021 306.225 251.943 305.858 251.791C305.49 251.639 305.157 251.416 304.876 251.135C304.595 250.854 304.372 250.52 304.22 250.153C304.068 249.786 303.989 249.392 303.989 248.995C303.989 248.597 304.068 248.204 304.22 247.836C304.372 247.469 304.595 247.136 304.876 246.855C305.157 246.574 305.49 246.351 305.858 246.199C306.225 246.046 306.618 245.968 307.016 245.968C307.413 245.968 307.807 246.046 308.174 246.199C308.541 246.351 308.875 246.574 309.156 246.855C309.437 247.136 309.66 247.469 309.812 247.836C309.964 248.204 310.042 248.597 310.042 248.995V248.995Z" fill="white"/>
<path fill-rule="evenodd" clip-rule="evenodd" d="M307.016 251.002C305.908 251.002 305.009 250.103 305.009 248.995C305.009 247.887 305.908 246.988 307.016 246.988C307.293 246.988 307.608 247.051 307.822 247.209C306.355 247.264 305.983 248.509 305.983 249.011C305.983 249.512 306.22 250.631 307.822 250.797C307.64 250.914 307.293 251.002 307.016 251.002V251.002Z" fill="#E70013"/>
<path fill-rule="evenodd" clip-rule="evenodd" d="M308.784 249.839L307.873 249.507L307.27 250.266L307.304 249.297L306.395 248.958L307.328 248.692L307.369 247.723L307.911 248.527L308.845 248.267L308.248 249.031L308.784 249.839Z" fill="#E70013"/>
<path d="M704 259H686V271H704V259Z" fill="#E70013"/>
<path fill-rule="evenodd" clip-rule="evenodd" d="M698.042 264.995C698.042 265.392 697.964 265.786 697.812 266.153C697.66 266.52 697.437 266.854 697.156 267.135C696.875 267.416 696.541 267.639 696.174 267.791C695.807 267.943 695.413 268.021 695.016 268.021C694.618 268.021 694.225 267.943 693.858 267.791C693.49 267.639 693.157 267.416 692.876 267.135C692.595 266.854 692.372 266.52 692.22 266.153C692.068 265.786 691.989 265.392 691.989 264.995C691.989 264.597 692.068 264.204 692.22 263.836C692.372 263.469 692.595 263.136 692.876 262.855C693.157 262.574 693.49 262.351 693.858 262.199C694.225 262.046 694.618 261.968 695.016 261.968C695.413 261.968 695.807 262.046 696.174 262.199C696.541 262.351 696.875 262.574 697.156 262.855C697.437 263.136 697.66 263.469 697.812 263.836C697.964 264.204 698.042 264.597 698.042 264.995V264.995Z" fill="white"/>
<path fill-rule="evenodd" clip-rule="evenodd" d="M695.016 267.002C693.908 267.002 693.009 266.103 693.009 264.995C693.009 263.887 693.908 262.988 695.016 262.988C695.293 262.988 695.608 263.051 695.822 263.209C694.355 263.264 693.983 264.509 693.983 265.011C693.983 265.512 694.22 266.631 695.822 266.797C695.64 266.914 695.293 267.002 695.016 267.002V267.002Z" fill="#E70013"/>
<path fill-rule="evenodd" clip-rule="evenodd" d="M696.784 265.839L695.873 265.507L695.27 266.266L695.304 265.297L694.395 264.958L695.328 264.692L695.369 263.723L695.911 264.527L696.845 264.267L696.248 265.031L696.784 265.839Z" fill="#E70013"/>
<path d="M141.575 97.57C141.035 97.93 140.3 98.335 139.37 98.785C138.44 99.235 137.345 99.625 136.085 99.955C134.855 100.255 133.505 100.39 132.035 100.36C129.485 100.33 127.205 99.88 125.195 99.01C123.185 98.14 121.46 96.955 120.02 95.455C118.61 93.925 117.53 92.185 116.78 90.235C116.03 88.285 115.655 86.2 115.655 83.98C115.655 81.55 116.045 79.315 116.825 77.275C117.635 75.205 118.76 73.42 120.2 71.92C121.64 70.39 123.335 69.205 125.285 68.365C127.265 67.525 129.425 67.105 131.765 67.105C133.715 67.105 135.485 67.375 137.075 67.915C138.665 68.425 140.03 69.025 141.17 69.715L139.415 73.81C138.515 73.21 137.42 72.64 136.13 72.1C134.84 71.56 133.43 71.29 131.9 71.29C130.31 71.29 128.81 71.62 127.4 72.28C125.99 72.91 124.745 73.795 123.665 74.935C122.585 76.045 121.73 77.365 121.1 78.895C120.5 80.395 120.2 82.015 120.2 83.755C120.2 86.095 120.68 88.21 121.64 90.1C122.63 91.96 124.01 93.43 125.78 94.51C127.58 95.59 129.68 96.13 132.08 96.13C133.76 96.13 135.23 95.89 136.49 95.41C137.78 94.9 138.845 94.315 139.685 93.655L141.575 97.57ZM146.9 83.755C146.9 81.505 147.32 79.375 148.16 77.365C149.03 75.355 150.23 73.585 151.76 72.055C153.29 70.525 155.045 69.325 157.025 68.455C159.035 67.555 161.18 67.105 163.46 67.105C165.74 67.105 167.885 67.555 169.895 68.455C171.935 69.325 173.72 70.525 175.25 72.055C176.78 73.585 177.98 75.355 178.85 77.365C179.72 79.375 180.155 81.505 180.155 83.755C180.155 86.065 179.72 88.225 178.85 90.235C177.98 92.215 176.78 93.97 175.25 95.5C173.72 97.03 171.935 98.23 169.895 99.1C167.885 99.94 165.74 100.36 163.46 100.36C161.18 100.36 159.035 99.94 157.025 99.1C155.045 98.26 153.29 97.09 151.76 95.59C150.23 94.09 149.03 92.335 148.16 90.325C147.32 88.285 146.9 86.095 146.9 83.755ZM151.4 83.8C151.4 85.51 151.715 87.115 152.345 88.615C152.975 90.085 153.845 91.39 154.955 92.53C156.065 93.67 157.355 94.555 158.825 95.185C160.295 95.815 161.885 96.13 163.595 96.13C165.845 96.13 167.87 95.59 169.67 94.51C171.5 93.4 172.955 91.915 174.035 90.055C175.115 88.165 175.655 86.065 175.655 83.755C175.655 82.045 175.34 80.44 174.71 78.94C174.08 77.41 173.21 76.075 172.1 74.935C170.99 73.795 169.7 72.91 168.23 72.28C166.76 71.62 165.185 71.29 163.505 71.29C161.225 71.29 159.17 71.86 157.34 73C155.51 74.14 154.055 75.655 152.975 77.545C151.925 79.435 151.4 81.52 151.4 83.8ZM187.828 67.465L197.188 90.91L206.233 67.465H211.363L197.008 101.485L182.653 67.465H187.828ZM217.831 67.465H222.196V100H217.831V67.465ZM231.542 100V67.465H240.452C243.662 67.465 246.392 67.96 248.642 68.95C250.892 69.91 252.707 71.2 254.087 72.82C255.497 74.44 256.517 76.24 257.147 78.22C257.807 80.17 258.137 82.135 258.137 84.115C258.137 86.545 257.702 88.75 256.832 90.73C255.962 92.68 254.777 94.345 253.277 95.725C251.777 97.105 250.052 98.17 248.102 98.92C246.182 99.64 244.157 100 242.027 100H231.542ZM235.907 95.77H241.172C243.542 95.77 245.657 95.305 247.517 94.375C249.407 93.445 250.892 92.095 251.972 90.325C253.052 88.525 253.592 86.35 253.592 83.8C253.592 81.16 253.022 78.94 251.882 77.14C250.772 75.34 249.287 73.975 247.427 73.045C245.597 72.115 243.647 71.65 241.577 71.65H235.907V95.77ZM263.218 88.48H271.588V92.17H263.218V88.48ZM276.84 70.39H284.625V100H280.215V74.575H276.84V70.39ZM299.929 90.28C298.399 90.28 296.944 89.875 295.564 89.065C294.214 88.255 293.119 87.145 292.279 85.735C291.439 84.295 291.019 82.675 291.019 80.875C291.019 78.775 291.499 76.96 292.459 75.43C293.449 73.87 294.724 72.67 296.284 71.83C297.874 70.96 299.569 70.525 301.369 70.525C303.349 70.525 305.134 70.975 306.724 71.875C308.344 72.745 309.619 73.96 310.549 75.52C311.509 77.08 311.989 78.88 311.989 80.92C311.989 83.26 311.554 85.39 310.684 87.31C309.814 89.23 308.659 90.985 307.219 92.575C305.779 94.135 304.174 95.575 302.404 96.895C300.664 98.215 298.939 99.445 297.229 100.585L294.259 97.39C296.899 96.04 299.164 94.615 301.054 93.115C302.974 91.585 304.429 90.085 305.419 88.615C304.729 89.185 303.934 89.605 303.034 89.875C302.134 90.145 301.099 90.28 299.929 90.28ZM301.549 86.59C303.289 86.59 304.714 86.08 305.824 85.06C306.934 84.04 307.489 82.72 307.489 81.1V80.245C307.489 79.195 307.219 78.235 306.679 77.365C306.139 76.465 305.419 75.76 304.519 75.25C303.619 74.74 302.629 74.485 301.549 74.485C299.869 74.485 298.444 75.055 297.274 76.195C296.104 77.305 295.519 78.775 295.519 80.605C295.519 82.435 296.104 83.89 297.274 84.97C298.444 86.05 299.869 86.59 301.549 86.59Z" fill="#1A0F54"/>
</g>
<defs>
<linearGradient id="paint0_linear" x1="269.253" y1="585.058" x2="269.253" y2="120.452" gradientUnits="userSpaceOnUse">
<stop stop-color="#808080" stop-opacity="0.25"/>
<stop offset="0.54" stop-color="#808080" stop-opacity="0.12"/>
<stop offset="1" stop-color="#808080" stop-opacity="0.1"/>
</linearGradient>
<linearGradient id="paint1_linear" x1="168668" y1="350552" x2="168668" y2="112065" gradientUnits="userSpaceOnUse">
<stop stop-color="#808080" stop-opacity="0.25"/>
<stop offset="0.54" stop-color="#808080" stop-opacity="0.12"/>
<stop offset="1" stop-color="#808080" stop-opacity="0.1"/>
</linearGradient>
<clipPath id="clip0">
<rect width="835" height="591" fill="white"/>
</clipPath>
</defs>
</svg>
